<?xml version="1.0" standalone="no"?>
<!DOCTYPE svg PUBLIC "-//W3C//DTD SVG 1.1//EN" "http://www.w3.org/Graphics/SVG/1.1/DTD/svg11.dtd" >
<svg xmlns="http://www.w3.org/2000/svg" xmlns:xlink="http://www.w3.org/1999/xlink" version="1.1">
<metadata></metadata>
<defs>
<font id="afterschool_festivalregular" horiz-adv-x="520" >
<font-face units-per-em="2048" ascent="1536" descent="-512" />
<missing-glyph horiz-adv-x="501" />
<glyph horiz-adv-x="0" />
<glyph unicode="&#xd;" horiz-adv-x="501" />
<glyph horiz-adv-x="0" />
<glyph horiz-adv-x="0" />
<glyph unicode=" "  horiz-adv-x="501" />
<glyph unicode="&#x09;" horiz-adv-x="501" />
<glyph unicode="&#xa0;" horiz-adv-x="501" />
<glyph unicode="!" d="M-27 -211q0 29 18.5 44t47.5 13q57 4 57 -59q2 -29 -16 -44t-45 -15q-27 2 -43.5 16t-18.5 45zM19.5 -64q-0.5 28 3.5 44q6 16 35.5 90.5t70.5 179t86 222.5t82 222.5t58.5 180t15.5 94.5q-4 4 -5 2t-6 -6q-6 -4 -16 0q-8 4 -4 8q0 2 4 4l2 2q8 4 34 10t50 -4 q6 0 19.5 -3t21.5 -7l2 -2q29 -23 30 -53.5t-3 -45.5q-6 -18 -38 -93.5t-74 -179t-88 -221.5t-84 -221.5t-60.5 -179t-14.5 -94.5q2 0 11 2q6 8 16 2q4 -2 4 -8v-4h-4q-2 0 -2 -2q-8 -4 -34 -11t-50 3q-10 2 -31 10l-2 6q-29 25 -29.5 53z" />
<glyph unicode="&#x22;" horiz-adv-x="294" d="M47 733q23 27 22 59.5t9 59.5q10 23 26.5 27t28.5 -11q16 -10 18.5 -30.5t-10.5 -42.5q-6 -12 -23.5 -26.5t-34.5 -26t-29.5 -14.5t-6.5 5zM150 733q23 27 21.5 59.5t8.5 59.5q10 23 26.5 27t29.5 -11q16 -10 18 -30.5t-10 -42.5q-6 -12 -23.5 -26.5t-35 -26t-29.5 -14.5 t-6 5z" />
<glyph unicode="%" horiz-adv-x="653" d="M66.5 -142q-0.5 28 3.5 44q6 16 38.5 101t78.5 205t98.5 256t94.5 256t66.5 206t18.5 104q-4 4 -5 2t-5 -6q-6 -4 -17 0q-8 4 -4 8q0 2 4 4l2 2q8 4 34 10.5t50 -3.5q6 0 19.5 -3.5t21.5 -7.5l2 -2q29 -23 30 -53.5t-3 -44.5q-6 -18 -41 -104.5t-82 -205t-100.5 -254.5 t-96.5 -255t-68.5 -205t-17.5 -105q2 0 11 3q6 8 16 2q4 -2 4 -9v-4h-4q-2 0 -2 -2q-8 -4 -33.5 -11t-50.5 3q-10 2 -31 10l-2 6q-29 25 -29.5 53zM67.5 718q4.5 44 24.5 89q14 29 27.5 51.5t27.5 40.5l27 27q2 6 8 8q2 2 13.5 12t27 20.5t33.5 18.5t37 8h4q31 -4 47 -24 q14 -16 14 -60v-17t-2 -20q-2 -10 -4 -22t-6 -27q6 -23 4 -51q-4 -59 -31.5 -114.5t-68.5 -79.5q-16 -12 -35 -13q-6 -2 -12 -2h-4q-47 0 -77 20.5t-44.5 55.5t-10 79zM108.5 662.5q6.5 -41.5 24.5 -62.5q23 -23 60 -29q6 -2 18 -2l2 2q2 0 23 4q4 2 9 5.5t9 7.5 q16 10 34.5 35.5t28.5 72.5t9.5 77t-8 47.5t-17.5 22.5t-20 1q-6 -2 -15 -10q-6 -6 -13 -15.5t-13 -25.5q-4 -8 -4 -11l-3 -4q-12 -33 -11 -52t5 -28q2 -4 7.5 -3t9.5 1q4 4 6 7.5t4 5.5q10 14 10 41v10q0 12 10 12q10 2 14.5 -13.5t-5.5 -37.5q-8 -16 -13 -21q-2 -2 -4 -3 t-4 -5q-10 -6 -18 -6h-2q-14 -2 -29 4q-16 10 -18 32.5t2 41.5q0 4 1 8t1 8t2 6q10 35 24.5 52.5t28.5 25.5q16 8 33 8q12 -2 22 -6t18.5 -11t16.5 -24q0 6 2 17.5t4 21.5q2 9 2 21q2 29 -5 53.5t-32 28.5q-10 0 -24 -6q-29 -10 -66 -47q-6 -4 -11 -10.5t-11 -12.5 q-4 -6 -6 -10t-7 -8l-6 -7q-16 -18 -25 -34.5t-16 -28.5q-8 -14 -12 -27q-29 -78 -22.5 -119.5zM307 15q4 44 25 89q14 29 27.5 51.5t27.5 41.5l27 26q2 6 8 8q2 2 13 12.5t26.5 20.5t34 18.5t36.5 8.5h5q31 -4 47 -25q14 -16 14 -59v-17.5t-2 -19.5t-4 -22.5t-6 -26.5 q6 -23 4 -51q-4 -59 -32 -114.5t-69 -80.5q-16 -12 -34 -12q-6 -2 -13 -2h-4q-47 0 -76.5 20.5t-44 55t-10.5 78.5zM348 -40q6 -42 25 -62q23 -23 59 -29q6 -2 19 -2l2 2q2 0 22 4q4 2 9 5t10 7q16 10 34.5 36t28.5 73t9 76.5t-8 47t-17.5 22.5t-20.5 1q-6 -2 -14 -10 q-6 -6 -13.5 -15.5t-13.5 -25.5q-4 -8 -4 -10l-2 -4q-12 -33 -11 -52.5t5 -27.5q2 -4 7 -3t9 1q4 4 6.5 7t4.5 5q10 14 10 41v10q0 12 10 13q10 2 14 -13.5t-6 -38.5q-8 -16 -12 -20q-2 -2 -4 -3t-4 -5q-10 -6 -19 -6h-2q-14 -2 -28 4q-16 10 -18.5 32.5t1.5 40.5q0 4 1 8.5 t1 8.5t2 6q10 35 24.5 52.5t29.5 25.5q16 8 32 8q12 -2 23 -6q10 -4 18 -11.5t17 -23.5q0 6 2 17.5t4 21.5q2 8 2 20q2 29 -5 53.5t-32 28.5q-10 0 -25 -6q-29 -10 -65 -47q-6 -4 -11 -10t-12 -12q-4 -6 -6 -10.5t-6 -8.5l-6 -6q-16 -18 -25.5 -34.5t-15.5 -29.5 q-8 -14 -12 -26q-29 -78 -23 -120z" />
<glyph unicode="'" horiz-adv-x="512" d="M625 733q23 27 21.5 59.5t8.5 59.5q10 23 26.5 27t29.5 -11q16 -10 18 -30.5t-10 -42.5q-6 -12 -23.5 -26.5t-35 -26t-29.5 -14.5t-6 5z" />
<glyph unicode="(" horiz-adv-x="710" d="M159 126q5 85 24.5 172t48 167t55.5 135q49 92 93 163t87 130q8 10 18 22q10 10 23.5 28t34.5 40l18 21q10 10 41 41.5t72 65.5t86 59.5t86 25.5h8q68 -6 98 -76l4 -16l-22 -17q-12 37 -47 39q-25 0 -60 -18q-29 -16 -73.5 -49t-102.5 -98q-16 -16 -30.5 -35t-30.5 -41 l-2 2q-14 -16 -23.5 -31.5t-17.5 -26.5q-8 -12 -15 -22q-43 -57 -73.5 -107.5t-52.5 -91.5q-25 -47 -44 -86q-74 -168 -101.5 -283.5t-26 -191.5t23 -117t49 -60.5t51 -23.5t27.5 -4l10 -22q-94 0 -147 42t-73.5 110.5t-15.5 153.5z" />
<glyph unicode=")" horiz-adv-x="538" d="M-229 -143l22 10q4 -2 23.5 -16.5t52.5 -19.5t78 8.5t98 65.5t114.5 153.5t129.5 273.5q16 39 30 90q12 43 26.5 101.5t25.5 129.5q2 12 6 27q4 12 5 28.5t5 39.5h-2q4 27 8 51t2 47q4 86 -3 140t-17 87q-12 37 -29 55q-25 23 -61 7l-4 26l14 10q74 27 123 -16l6 -6 q29 -29 43 -79t19.5 -102.5t4 -97.5t-1.5 -59l-2 -27q-2 -59 -6 -88q-2 -16 -4 -28q-10 -72 -29.5 -154t-50.5 -182q-20 -57 -56 -134t-83 -153t-104.5 -139.5t-120 -97t-129 -26.5t-133.5 75z" />
<glyph unicode="*" horiz-adv-x="714" d="M134 778q1 6 1 15l2 2q10 29 33 36t35 9q8 0 19.5 -1t25.5 -1q-27 29 -49 36q-4 -2 -4 -8t-2 -12q-2 -2 -9 4q-2 2 -2 4q0 6 5.5 22.5t21.5 30.5l14 17l6 -2q27 10 42.5 -1t25.5 -22q2 -2 3 -5t5 -5q-2 23 -5 42t-11 30q-6 2 -8 -4q-4 -6 -13 -7q-6 0 -6 7q0 2 2 4l2 2 q4 6 22.5 16t41.5 10q4 2 10 1t14 -1l2 -2q29 -10 36 -32.5t9 -34.5q0 -10 -1 -21.5t-3 -27.5q29 25 35 47q0 4 -8 0q-2 2 -5 3t-5 5q0 4 2 6q0 2 2 2h4q8 -2 23.5 -8t27.5 -23q8 -2 17 -16v-2q8 -27 -2.5 -43t-18.5 -25q43 2 61 19q2 6 -4 8t-6 12q0 4 6 4h4l3 -2 q4 -4 15 -22.5t11 -40.5q2 -4 1 -10.5t-1 -14.5l-2 -2q-10 -29 -32.5 -36t-34.5 -9q-10 0 -25.5 1t-36.5 3q16 -16 29.5 -28.5t25.5 -14.5q6 0 5 1t-1 3q-4 4 -0.5 7.5l7.5 7.5l4 -2q0 -2 2 -4l4 -3q-4 -6 -9 -23t-22 -28q-2 -6 -7 -9t-11 -9v2q-25 -8 -40.5 -1t-25.5 17 q4 -35 17 -51q6 -2 8 4t12 6q4 -2 4 -6v-4l-2 -2q-4 -4 -22.5 -15.5t-40.5 -11.5q-4 -2 -10.5 -1t-14.5 1l-2 2q-29 10 -36 33t-9 35q0 10 1 24.5t3 34.5q-43 -37 -49 -59q4 -4 5 -4t3 -2q8 0 10 -4v-6v-2q-2 -2 -2 0h-4q-4 2 -21.5 7t-31.5 21q-8 8 -12 17h-2q-10 27 2 44 t18 27l4 2q-41 -4 -55 -14q-2 -6 4 -8q6 -4 6 -12q-4 -6 -6 -7q-2 0 -4 2l-2 3q-6 4 -16.5 22t-10.5 41q-2 4 -1 10z" />
<glyph unicode="+" horiz-adv-x="729" d="M163 293q1 6 1 14l2 2q10 29 32.5 36t34.5 9q23 0 71 -5t99.5 -8t95.5 0t62 17q2 6 -4 9q-6 2 -6 12q0 4 6 4h4l2 -2q4 -4 15.5 -22.5t11.5 -41.5q2 -4 1 -10t-1 -14l-2 -2q-10 -29 -33 -36t-35 -9q-23 0 -70 4t-98 7t-96 1t-63 -16q-2 -6 4 -9q6 -4 6 -12q-4 -6 -6 -6 t-4 2l-3 2q-6 4 -16 22.5t-10 41.5q-2 4 -1 10zM293 479q0 2 2 4l2 2q4 6 22.5 16.5t40.5 10.5q4 2 10.5 1t14.5 -1l2 -2q29 -10 36 -32.5t9 -35.5q0 -23 -5 -70.5t-8 -99t0 -95.5t17 -62q6 -2 8 4t13 6q4 -2 4 -6v-4l-2 -2q-4 -4 -22.5 -15.5t-41.5 -11.5q-4 -2 -10 -1 t-14 1l-2 2q-29 10 -36 33t-9 35q0 20 4 68t7 99.5t1 96.5t-17 63q-6 2 -8 -4q-4 -6 -12 -6q-6 0 -6 6z" />
<glyph unicode="," horiz-adv-x="245" d="M66 -45q12 14 15 30.5t1 33t-3 33t3 30.5q10 27 33.5 33t48.5 -6q57 -16 31 -76q-4 -14 -28 -31.5t-49.5 -31t-42.5 -19.5t-9 4z" />
<glyph unicode="-" horiz-adv-x="739" d="M163 293q1 6 1 14l2 2q10 29 32.5 36t34.5 9q23 0 71 -5t99.5 -8t95.5 0t62 17q2 6 -4 9q-6 2 -6 12q0 4 6 4h4l2 -2q4 -4 15.5 -22.5t11.5 -41.5q2 -4 1 -10t-1 -14l-2 -2q-10 -29 -33 -36t-35 -9q-23 0 -70 4t-98 7t-96 1t-63 -16q-2 -6 4 -9q6 -4 6 -12q-4 -6 -6 -6 t-4 2l-3 2q-6 4 -16 22.5t-10 41.5q-2 4 -1 10z" />
<glyph unicode="." horiz-adv-x="245" d="M59 61q0 29 18.5 44.5t47.5 13.5q57 4 57 -60q2 -29 -16 -44t-45 -15q-27 2 -43.5 16.5t-18.5 44.5z" />
<glyph unicode="/" horiz-adv-x="509" d="M-28 -142q-1 28 3 44q6 16 39 101t79 205t98.5 256t94.5 256t66.5 206t18.5 104q-4 4 -5 2t-6 -6q-6 -4 -16 0q-8 4 -4 8q0 2 4 4l2 2q8 4 34 10.5t50 -3.5q6 0 19.5 -3.5t21.5 -7.5l2 -2q29 -23 30 -53.5t-3 -44.5q-6 -18 -41 -104.5t-82 -205t-100.5 -254.5t-96.5 -255 t-68.5 -205t-17.5 -105q2 0 10 3q6 8 17 2q4 -2 4 -9v-4h-4q-2 0 -2 -2q-8 -4 -34 -11t-50 3q-10 2 -31 10l-2 6q-29 25 -30 53z" />
<glyph unicode="0" horiz-adv-x="854" d="M27.5 233.5q9.5 120.5 66.5 245.5q39 78 77 139.5t79 112.5q6 10 16 21q8 10 21.5 23t34.5 34l20 18q10 8 40 36t73 56.5t93 51t101 22.5h10q86 -6 134 -65q41 -57 41 -166q0 -23 -2.5 -48.5t-6.5 -54.5q-6 -66 -26 -137q6 -29 9 -61.5t-1 -77.5q-6 -80 -28.5 -162 t-58.5 -154.5t-83 -132t-105 -92.5q-49 -29 -98 -35q-10 -2 -17 -2h-14h-12q-129 -2 -213 56.5t-122 155t-28.5 217zM141 79.5q4 -61.5 22.5 -103.5t43.5 -70q59 -68 164 -80q14 -2 26.5 -2h24.5q4 0 5 1t5 1q8 2 23.5 4t33.5 10q12 4 25.5 12.5t26.5 18.5q49 33 99 103.5 t77 199.5q29 129 26.5 213t-22 131t-49 60.5t-56.5 1.5q-18 -10 -38 -29q-16 -16 -38 -43t-38 -70q-4 -8 -6 -14t-7 -12q0 -6 -4 -11q-33 -92 -30.5 -147t12.5 -74q8 -14 22.5 -12t22.5 6q12 8 20.5 19.5t12.5 15.5q29 45 26 110q-4 16 -2 31q2 12 7.5 21.5t21.5 11.5 q33 2 43 -41t-18 -100v-2q-16 -37 -37 -58l-21 -18q-12 -10 -26.5 -14.5t-26.5 -6.5l-2 -2q-47 -4 -78 13q-25 12 -36 36.5t-16 54t-3 60.5t6 55q2 12 5 23.5t5 22.5q2 10 4 18q29 96 70 144t78 69q43 23 90 22q31 -2 59 -14q25 -10 51.5 -33.5t45.5 -66.5l18 110q4 16 4 28 t2 26q2 39 -1 78.5t-13 71.5t-31.5 52.5t-56.5 22.5q-31 -2 -70 -16q-35 -14 -81 -43t-101 -84q-16 -14 -29.5 -31t-30.5 -35v2q-25 -31 -36 -49q-8 -10 -15 -21q-41 -49 -68.5 -93t-43.5 -79q-20 -39 -33 -73q-41 -106 -54.5 -188.5t-9.5 -144z" />
<glyph unicode="1" horiz-adv-x="829" d="M43 727q0 10 8 18q10 8 17.5 4t11.5 -14q6 -10 8 -28q18 -33 56 -30t89 25q23 10 43.5 22.5t45.5 25.5q35 23 58 37t58 36q8 4 16.5 9.5t16.5 9.5l4 4q2 2 4 2l78 51q66 74 117 86t84 -4q18 -6 28 -20q8 -12 13 -25q4 -10 5 -20.5t1 -20.5q0 -14 -3 -25.5t-5 -17.5 q0 -2 -2 -4q-16 -49 -44 -68.5t-34 -23.5q-2 -2 -4 -2t-4 -2h-4q-2 0 -2.5 -1t-2.5 -1q-10 -2 -24 0t-27 16q-16 20 -5 30.5t15 8.5q12 0 13 -17q4 -2 10 -2q4 0 9 1t9 10q4 6 13.5 23.5t13.5 51.5v33q-2 25 -9 33t-16 10q-6 0 -10 -2l-8 -4q-8 -6 -15 -14t-16 -23 q-37 -74 -82 -172q-39 -84 -90 -202.5t-108 -268.5q-4 -8 -4 -10q-8 -20 -13 -29q-14 -35 -26.5 -67.5t-24.5 -65.5q-8 -25 -15 -48.5t-11 -45.5q-12 -55 -6 -94t40 -49q16 0 29 -3q10 -2 17.5 -7t0.5 -17q-6 -8 -16 -12t-26.5 -2t-43.5 14q-18 10 -38.5 29.5t-32.5 56.5 q-8 27 -13 65q-2 29 2.5 65t14.5 81q4 16 10 34.5t12 39.5q8 23 17.5 51t19.5 63l15 39q12 37 24 68t26.5 66.5t34 78.5t46.5 103q4 6 6 11t6 11q-14 -8 -26.5 -14t-22.5 -12q-84 -41 -139 -50q-33 -6 -66 -2q-39 4 -63.5 19.5t-36.5 32.5q-16 23 -22.5 39t-4.5 26z" />
<glyph unicode="2" horiz-adv-x="854" d="M51 -111q-4 20 1 29.5t7 11.5q4 4 6.5 5.5t6.5 5.5t8 7t8 7q25 23 50.5 47.5t51.5 50.5q6 4 12.5 10.5l10.5 10.5q4 2 5 4t3 4q109 104 205 201.5t174 179.5q4 4 11 13l14 18q23 35 38 68.5t25 62.5q37 115 23.5 183.5t-41.5 104.5q-35 41 -90 58q-47 10 -85 6t-73 -16 q-16 -6 -42 -21.5t-54.5 -43.5t-56 -70t-48.5 -101q-20 -63 -21 -106.5t10 -72t31.5 -44t45.5 -21.5q43 -12 98 8v3q4 2 6 2t6 4q35 18 66 64t45 124v2q2 18 -8 25q-6 4 -13 4q-8 -14 -16 -8q-4 2 -8 13t18 21q16 6 28.5 1t18.5 -11l2 -2l5 -4q12 -12 24 -44t0 -77 q-18 -63 -61 -95t-82 -44q-20 -8 -47 -12h-2q-39 -6 -88 2q-43 6 -86 29.5t-71 64.5t-33 99.5t28 133.5q29 68 88 119q49 43 136 74t222 16q2 0 3 -1t3 -1h2q43 -6 86 -22q102 -39 135 -107.5t31 -142.5q-4 -66 -21.5 -121t-37.5 -96q-8 -16 -28.5 -49t-49.5 -68q0 -2 -2 -2 q-4 -8 -10 -14.5t-15 -14.5q-90 -96 -177 -184t-144 -139l-31 -27q-23 -23 -44 -39t-38 -31q25 0 48.5 -1t48.5 -1h2h10h31q37 -2 71.5 -3t69.5 1q55 0 98 7q57 8 91 26.5t32 54.5q-8 16 -10 29q-4 27 18 25q8 -4 17 -13q6 -8 11 -23.5t3 -43.5q-2 -20 -14.5 -47t-42.5 -51 q-20 -16 -58 -33q-55 -27 -141 -35q-18 -2 -36.5 -3t-41.5 -1q-23 -2 -53.5 -3t-65.5 -1h-43q-41 -2 -77.5 -2t-79.5 4q-16 0 -27 10q-16 10 -23.5 27.5t-11.5 31.5z" />
<glyph unicode="3" horiz-adv-x="864" d="M35 178q2 35 7 63.5t9 49.5q6 23 12.5 36t10.5 17q23 37 57 45q14 4 32.5 5t41.5 -7q25 -6 31 -16q4 -6 6 -11q0 -12 -7.5 -15t-17.5 -1t-22 10q-6 2 -13 0h-4q-4 -2 -9 -4t-11 -10q-16 -12 -31 -51q-4 -6 -6 -19q-4 -10 -8 -59q-8 -147 53 -252.5t180 -122.5 q63 -8 117.5 26t95.5 88t68.5 119.5t38.5 125.5q8 51 2 92q-4 37 -16.5 58.5t-26.5 33.5q-10 6 -16.5 10t-12.5 6q-8 2 -12 4q-25 6 -49.5 2t-46 -12t-37 -17.5t-21.5 -15.5q-12 -8 -16 -10q-6 -6 -9.5 -11t-5.5 -9v-7q-2 -4 -2 -10q6 -14 9 -24q2 -10 -0.5 -17.5 t-14.5 -5.5q-4 2 -10 6q-10 8 -16 31q-10 47 2 76q8 27 30.5 43t48 26.5t48 14.5t32.5 4h22.5t41.5 -4q16 14 29.5 29.5t23.5 27.5q18 29 31.5 59.5t21.5 57.5q39 119 34 186.5t-28 102.5q-25 39 -69 49q-47 10 -85 6t-73 -16q-16 -6 -41.5 -21.5t-54.5 -43.5t-56.5 -70 t-48.5 -101q-20 -63 -21 -106.5t10 -72t31.5 -44t45.5 -21.5q43 -14 96 8q2 0 2 3q4 2 6 2t7 4q35 18 65.5 64t44.5 124v2q2 18 -8 25q-6 4 -12 4q-8 -14 -17 -8q-4 2 -8 13t19 21q16 6 28 1t19 -11l2 -2l4 -4q12 -12 24.5 -44t-2.5 -77q-18 -63 -60 -95t-81 -44 q-27 -10 -47 -12h-2q-39 -6 -88 2q-43 6 -86 29.5t-71 64.5t-33 99.5t28 133.5q29 68 88 119q49 43 136 74t222 16q2 0 3.5 -1t3.5 -1h2q23 -4 45.5 -12t40.5 -18q74 -41 99.5 -100.5t20.5 -133.5q-4 -66 -21 -121t-38 -96q-6 -12 -23.5 -41t-39.5 -59v-2q41 -37 60 -79 t23.5 -82t0 -75t-10.5 -57q-4 -6 -5 -11.5t-3 -9.5t-2 -6q-18 -61 -46 -105t-60.5 -75t-69.5 -49.5t-74 -28.5q-84 -23 -180 -14q-102 14 -163.5 54t-94.5 91t-43 108.5t-6 108.5z" />
<glyph unicode="4" horiz-adv-x="995" d="M29 336.5q-2 21.5 4 50.5q2 2 2 6q4 14 11 29.5t17 32.5q31 51 97 106q27 25 61 49q20 14 44 31.5t52 40.5l35 23q35 23 59.5 39t69.5 42q72 41 129.5 67t104.5 38q68 78 122 92t87 -2q18 -6 28 -20q6 -8 15 -25q4 -10 4 -20.5v-20.5q0 -27 -8 -43v-4q-16 -49 -45 -68.5 t-35 -23.5l-9 -4h-4q-2 0 -2 -1t-2 -1q-10 -2 -24.5 0t-26.5 16q-16 20 -5 30.5t15 8.5q12 0 13 -17q4 -2 10 -2q4 0 9 1t9 10q4 6 13.5 23.5t13.5 51.5v23v10q-2 25 -9 33t-16 10q-6 0 -10 -2l-8 -4q-8 -6 -15.5 -14t-15.5 -23q-29 -57 -65 -135q-31 -66 -73 -160t-91 -215 q20 2 37 6q55 10 89 30t29 56q-8 14 -10 27q-4 27 19 27q8 -4 16 -13q6 -8 11 -23.5t5 -43.5q-2 -20 -13 -47t-40 -52q-23 -18 -55 -36q-25 -10 -56.5 -20.5t-72.5 -16.5q-8 -14 -10 -27q-4 -8 -4 -10q-8 -20 -13 -29q-14 -35 -26.5 -67.5t-24.5 -65.5q-8 -25 -15 -48.5 t-12 -45.5q-12 -55 -6 -94t43 -49q16 0 29 -3q10 -2 16 -7t0 -17q-6 -8 -16 -12t-26.5 -2t-43.5 14q-18 10 -38.5 29.5t-32.5 56.5q-8 27 -13 65q-2 29 2 65t15 81q4 16 10 34.5t12 39.5q6 16 12.5 36.5t14.5 42.5q-18 -2 -39 -2t-43 -2l-43 -2q-41 -2 -69.5 -2t-82.5 2 q-10 0 -20 1t-21 1q-10 0 -17 1t-15 1q-16 4 -24.5 11.5t-10.5 13.5q-6 16 -8 37.5zM115 385h104t125 2h2h10h31h36.5t37.5 2q10 29 21.5 56.5t24.5 59.5t30.5 71t40.5 90q10 16 17 32.5t15 32.5q-45 -29 -103 -65.5t-132 -83.5v-2q-4 0 -8 -5l-13.5 -9l-13.5 -9 q-31 -20 -60.5 -39.5t-56.5 -38.5q-23 -16 -42 -30.5t-36 -30.5q-20 -16 -30 -33z" />
<glyph unicode="5" horiz-adv-x="1007" d="M36 148q5 73 30 149q16 51 39.5 87t29.5 44q31 35 60.5 57.5t58.5 34.5q43 18 80 17.5t65 -9.5q33 -8 60 -26q2 0 6 -4q49 -35 76 -84q35 -61 32.5 -126t-12.5 -110q-8 -33 -12 -45q-4 -8 -6 -16q-4 -8 -8.5 -15.5t-8.5 -15.5q-10 -23 -25.5 -46.5t-35 -41.5t-43 -29.5 t-49.5 -7.5q-33 8 -64 35q-20 20 -28 47q-4 16 -5 27q-2 12 -2 27.5t5 31.5l2 2q10 59 41.5 85t56.5 5q10 -10 9 -19t-7 -20q-8 -10 -19 -22q-37 -47 -40 -94v-19.5t6 -26.5q4 -8 13 -18t24 -4q14 6 37.5 32.5t46.5 80.5q6 12 16 44.5t17 72.5t6 84t-21 81q-4 6 -8 11.5 t-8 11.5q-16 18 -37 30q-63 37 -114.5 28t-90.5 -36.5t-62.5 -61.5t-29.5 -46q-53 -94 -60.5 -167t2.5 -122q6 -35 19 -55q8 -16 15 -27.5t11 -17.5q2 -4 4.5 -5.5t4.5 -3.5l16 -16t21 -18q78 -57 159 -50q35 2 75 19.5t81 55.5t82 101.5t82 159.5v2q6 14 20.5 56.5 t20.5 91.5t-2.5 96t-44.5 74q-20 12 -50 26q-25 10 -60.5 24.5t-84.5 25.5q-18 4 -37 14q-18 8 -38.5 28.5t-35.5 57.5q-10 29 -12 65v25.5t2 30.5q0 6 2 10v6q0 2 2 2q4 14 19.5 31.5t56.5 19.5h19.5t19.5 -2h111h10h33q72 -4 141 0q51 0 98 6q55 8 89 28t32 56 q-8 16 -10 29q-4 27 18 25q8 -4 17 -13q6 -8 11 -23t3 -44q-2 -23 -14.5 -48.5t-40.5 -49.5q-12 -10 -26.5 -18.5t-31.5 -16.5q-29 -12 -62.5 -21.5t-78.5 -13.5q-18 -2 -36.5 -3t-41.5 -1q-25 -2 -54.5 -3t-66.5 -3h-41q-18 0 -28.5 -1t-18.5 -1h-18t-29 2q-6 -31 -6 -56 q0 -6 2 -17t8 -24.5t17.5 -24.5t29.5 -14q9 0 29 -4q39 -6 96.5 -26.5t108.5 -62.5t80.5 -111.5t11.5 -175.5q-4 -12 -6 -24.5t-6 -27.5q-10 -33 -25 -65q-43 -111 -111.5 -188.5t-151.5 -111.5t-173 -17.5t-174 96.5l-8 8q-4 4 -9.5 8t-9.5 12q-31 35 -45 86 q-18 61 -13 134z" />
<glyph unicode="6" horiz-adv-x="919" d="M37 233.5q8 120.5 63 245.5q35 78 71 139.5t77 112.5q6 8 14 19q8 10 20.5 24t30.5 33q37 39 72 65.5t66 45.5l2 2l12 6q2 4 25.5 18t64.5 27q4 2 22.5 8t48 11t65.5 5t75 -12q10 -4 20 -10q4 -2 5.5 -3t5.5 -3q12 -4 29.5 -18.5t34 -44.5t25.5 -75t5 -110 q-6 -43 -19 -80q-10 -31 -30.5 -59.5t-50.5 -36.5q-16 -4 -34 -5t-40 7q-23 4 -31 18q-4 6 -6 12q0 20 22 17q10 -2 25 -10q6 -4 10 0h2h4q4 2 9.5 5t11.5 9q16 16 31 57q10 25 15 63t3 76.5t-12 72.5t-31 53q-16 14 -29 16h-2q-2 0 -4 2h-2h-2q-47 6 -128 -31t-157 -117 q-6 -4 -14 -16q-23 -23 -39 -43t-28 -37q-14 -18 -25 -35q-37 -49 -63.5 -93t-43.5 -79q-20 -39 -30 -75q-37 -106 -50.5 -187.5t-9.5 -143t21.5 -103.5t42.5 -70q55 -68 151 -80q14 -2 26.5 -2h23.5q4 0 6 1t4 1q10 2 24.5 4t30.5 10q10 6 23.5 13.5t27.5 17.5 q41 31 85 95.5t73 178.5q2 14 8 57.5t-3 94.5t-41 96t-103 64q-27 6 -49 4q-6 -2 -13.5 -3t-13.5 -3q-41 -14 -71.5 -48t-54.5 -71t-37 -72t-19 -49q-18 -59 -20.5 -96t3.5 -53q8 -16 21.5 -15.5t21.5 4.5q14 4 22.5 15.5t12.5 15.5q31 39 35 104q-2 18 2 33q2 12 8 21.5 t21 9.5q33 -2 38 -47t-28 -98v-3q-8 -16 -18.5 -28t-20.5 -23q-6 -4 -11 -9t-12 -9q-23 -14 -51 -14h-2q-23 0 -40 5t-31 13q-23 16 -32 43t-10 56.5t4 60t11 55.5q2 18 10 33l6 18q6 20 25 47q23 43 65.5 95.5t108.5 76.5q57 18 117 11q2 0 3 -1t3 -1q33 -6 63 -23 q27 -14 54.5 -42t48.5 -75q12 -29 18 -67.5t4 -91.5q-2 -10 -9 -56.5t-30 -99.5q-35 -78 -81 -139.5t-101 -96.5q-43 -31 -94 -37q-10 -2 -18.5 -2h-12.5h-10q-121 -2 -201 56.5t-114.5 155t-26.5 217z" />
<glyph unicode="7" horiz-adv-x="1009" d="M39 663.5q-4 18.5 2 53.5q6 31 34.5 70.5t96.5 68.5t178.5 37t278.5 -25q10 -2 18 -3t17 -3q55 55 100 84t82 38t63.5 3t44.5 -18q16 -12 25 -27q6 -12 6 -24q4 -25 -2 -41q-4 -14 -8 -25.5t-8 -15.5l-2 -5q-27 -45 -57.5 -59t-39.5 -16q-6 0 -8 -2h-4h-4q-10 0 -23.5 5 t-23.5 21q-10 23 1 31t17 4q14 0 6 -18q4 -2 11 -4q10 -4 20 6q6 4 19.5 20.5t21.5 48.5q2 4 3 10.5t3 10.5q2 6 2 12q4 23 -2 33t-14 12q-10 4 -19 0q-10 -4 -18 -11.5t-18 -19.5q-70 -90 -148 -198q-66 -92 -148.5 -213t-168.5 -256q-2 -4 -3 -5t-3 -5q-4 -6 -8.5 -12.5 t-8.5 -14.5q-20 -29 -39.5 -59.5t-36.5 -59.5q-14 -23 -25 -44l-22 -42q-23 -53 -24.5 -92t30.5 -55q18 -2 29 -9q10 -4 15.5 -11t-3.5 -17q-8 -8 -18 -8q-10 -2 -26.5 4t-39.5 22q-16 12 -32.5 36t-20.5 63q-4 14 -3 30.5t3 36.5q4 29 15.5 62.5t31.5 74.5q14 33 37 68 q10 23 25.5 48.5t34.5 55.5l20 37q41 66 107.5 167.5t144.5 209.5q12 16 18 23q-86 12 -172 18t-155.5 2t-113.5 -25.5t-46 -64.5q6 -20 8 -35q2 -12 -3 -21.5t-21 -4.5q-10 4 -19 14q-6 10 -10 28.5z" />
<glyph unicode="8" horiz-adv-x="854" d="M31 184v17q2 20 14 62t39 90t72 93.5t114 69.5q41 12 83 20.5t96 4.5q-25 12 -49.5 32.5t-41 54.5t-16.5 80t25 111q33 82 82 119t95 48t79.5 6t38.5 -5q53 -12 90 -45q33 -29 57 -82t16 -145q-6 -57 -30 -105q-23 -41 -67 -73.5t-122 -30.5q33 -14 68 -44t57 -81 q12 -29 19.5 -67t3.5 -87q0 -12 -8.5 -57t-30.5 -96q-35 -76 -82 -136.5t-105 -95.5q-47 -27 -92 -32q-10 -2 -18 -2.5t-15 -0.5h-12q-96 -2 -164.5 27t-112.5 80t-64.5 120.5t-18.5 149.5zM154 114.5q0 -59.5 10 -103.5t30.5 -74.5t43.5 -51.5q53 -49 135 -59h51q6 0 10 2 q18 0 53 14q12 6 24.5 12.5t27.5 16.5q45 31 88.5 92t70.5 174q2 14 8.5 55t-1 89.5t-37 93.5t-97.5 63h-2h-2q-4 0 -6 2q-12 2 -36.5 7.5t-57.5 6.5t-71 -4.5t-74 -23.5q-45 -23 -86 -57.5t-64 -116.5q-18 -78 -18 -137.5zM458 634q7 -40 21.5 -62.5t30.5 -32t20 -11.5 q4 0 8.5 -1t8.5 -1q86 -16 134 11.5t71 68.5q27 47 34 113q8 86 -11 129t-48 63q-33 23 -76 23q-14 0 -39.5 -8t-53.5 -31t-53.5 -60.5t-39.5 -99.5q-14 -61 -7 -101z" />
<glyph unicode="9" horiz-adv-x="905" d="M33 71.5v45.5q2 10 7 35.5t15.5 53t28.5 51.5t45 32q16 4 34.5 5t41.5 -7q25 -10 31 -19q4 -6 4 -12q0 -14 -6.5 -16t-16.5 0t-24 10q-6 2 -11 0h-6q-4 -2 -9 -4t-11 -13q-6 -6 -14.5 -19t-14.5 -36q-14 -33 -16 -76v-2v-10l-2 -2v-4q-4 -74 16 -119t47 -67 q31 -29 70 -39h12q53 -6 100 12t89 54t78 83t65 98q68 119 119 277q37 106 50 189t9 144.5t-21.5 105.5t-42.5 73q-55 68 -151 82q-29 2 -49 0h-11q-8 -2 -21 -5t-30 -11q-12 -4 -24.5 -12.5t-26.5 -18.5q-43 -31 -86 -95.5t-70 -181.5q-4 -14 -9 -59t3 -97.5t40 -98.5 t102 -64q25 -6 49 -2q12 0 28 6q39 14 70 48t53.5 72t36.5 71.5t19 48.5q20 61 21 100t-5 53q-6 18 -20.5 17.5t-22.5 -5.5q-12 -4 -21.5 -15t-13.5 -15q-14 -23 -22.5 -47.5t-10.5 -59.5q2 -18 -2 -33q-4 -12 -10 -22t-20 -8q-31 2 -36 46t25 99v2l2 2q8 16 17.5 28.5 t19.5 22.5q16 12 23 19q14 6 26.5 9t26.5 7q49 -6 70 -22q23 -16 32 -42t11 -56.5t-3 -61.5t-12 -57q-4 -10 -6 -18.5t-4 -16.5q-4 -10 -8 -19q-4 -10 -9 -20t-12 -25q-23 -47 -66.5 -99t-109.5 -75q-49 -23 -114 -12h-7q-33 6 -63 25q-27 16 -53.5 43.5t-44.5 74.5 q-12 31 -19.5 70t-5.5 90q2 12 9.5 60.5t29.5 101.5q35 78 81 141.5t99 97.5q23 14 46.5 23.5t45.5 13.5q10 0 16.5 1t12.5 1h12q115 0 192 -54t114.5 -144t34.5 -206t-46 -237q-37 -102 -77.5 -181t-80.5 -136t-79 -97t-74 -67q-82 -61 -164 -70h-6q-59 0 -104 10.5t-79 29 t-56.5 43t-36.5 51.5q-6 12 -11.5 25t-9.5 26q-12 47 -12 81.5z" />
<glyph unicode=":" horiz-adv-x="479" d="M133 119q0 29 18.5 44t47.5 13q57 4 57 -59q2 -29 -16 -44.5t-45 -15.5q-27 2 -43.5 16.5t-18.5 45.5zM201 383q0 29 18.5 44t46.5 13q57 4 58 -59q2 -29 -16.5 -44t-45.5 -15q-27 2 -43 16t-18 45z" />
<glyph unicode=";" horiz-adv-x="421" d="M121 12q12 14 15 30.5t1 33t-3 33t3 30.5q10 27 34 33t48 -6q57 -16 31 -76q-4 -14 -27.5 -31.5t-49.5 -31t-43 -19.5t-9 4zM201 383q0 29 18.5 44t46.5 13q57 4 58 -59q2 -29 -16.5 -44t-45.5 -15q-27 2 -43 16t-18 45z" />
<glyph unicode="&#x3c;" horiz-adv-x="618" d="M170 332.5q0 19.5 4 27.5v2q0 2 2 5q2 2 8 -2q8 -8 2 -15q-8 -4 0 -8q23 -4 63 17.5t83 49t82 55.5t57 38q25 12 55.5 9t40.5 -36q14 -33 6 -41t-10 -8q-18 2 -47 -9t-61.5 -30.5t-66.5 -43.5t-60 -44q27 -18 60.5 -43t67 -44t62.5 -32.5t47 -11.5q6 -2 10 -8 q4 -4 4.5 -14.5t-10.5 -26.5q-18 -35 -48 -35t-46 10q-18 10 -57 38t-83 55.5t-84 49t-63 19.5q-4 -4 -3 -5t3 -5q2 -6 0 -15q-6 -6 -8 -2l-4 4v3q-4 6 -4 22t8 37q-10 18 -10 37.5z" />
<glyph unicode="=" horiz-adv-x="772" d="M163 205q1 6 1 14l2 2q10 29 32.5 36t34.5 9q23 0 71 -5t99.5 -8t95.5 0t62 17q2 6 -4 9q-6 2 -6 12q0 4 6 4h4l2 -2q4 -4 15.5 -22.5t11.5 -41.5q2 -4 1 -10t-1 -14l-2 -2q-10 -29 -33 -36t-35 -9q-23 0 -70 4t-98 7t-96 1t-63 -16q-2 -6 4 -9q6 -4 6 -12q-4 -6 -6 -6 t-4 2l-3 2q-6 4 -16 22.5t-10 41.5q-2 4 -1 10zM163 377q1 6 1 14l2 2q10 29 32.5 36t34.5 9q23 0 71 -5t99.5 -8t95.5 0t62 17q2 6 -4 9q-6 2 -6 12q0 4 6 4h4l2 -2q4 -4 15.5 -22.5t11.5 -41.5q2 -4 1 -10t-1 -14l-2 -2q-10 -29 -33 -36t-35 -9q-23 0 -70 4t-98 7t-96 1 t-63 -16q-2 -6 4 -9q6 -4 6 -12q-4 -6 -6 -6t-4 2l-3 2q-6 4 -16 22.5t-10 41.5q-2 4 -1 10z" />
<glyph unicode="&#x3e;" horiz-adv-x="638" d="M27 160q4 6 12 8q18 -2 47 11.5t62.5 32.5t67.5 44t60 43q-29 20 -61.5 44t-65 43.5t-61.5 30.5t-47 9l-4 2t-6 7t-2 14.5t8 25.5q10 33 41 36t55 -9q18 -10 57 -38t82 -55.5t83 -49t63 -17.5q8 4 0 8q-6 6 2 15q4 4 8 2q2 -2 2 -5v-2q4 -8 4 -27.5t-10 -37.5 q8 -20 8 -36.5t-4 -22.5q-2 0 0 -3l-4 -4q-4 -4 -8 2q-2 8 0 15q2 4 3 5t-3 5q-23 2 -63 -19.5t-84 -49t-83 -55.5t-57 -38q-16 -10 -46 -10t-48 35q-16 29 -8 41z" />
<glyph unicode="A" horiz-adv-x="1447" d="M0 137q10 139 74.5 252t153.5 189q90 75 190 110q72 25 134 25q25 0 48 -4q53 -8 94 -41q16 -14 32.5 -34t28 -48.5t16.5 -65.5q3 -21 3 -45q0 -19 -2 -41q8 -2 16.5 -2t16.5 -2q31 -6 65.5 -13t71.5 -14q55 92 105.5 188.5t91.5 199.5q-74 35 -126 65q-47 27 -47 59 q0 4 1 7q8 41 45 55t84 16q4 0 22.5 1t44 -1t56 -6t61.5 -14q4 -2 9 -3t11 -5h3q18 -8 34.5 -22.5t26.5 -35t13 -49.5q1 -6 0 -12q0 -25 -9 -55q-6 -16 -13 -34t-16 -38q74 -47 97.5 -102.5t23.5 -112.5q-4 -39 -12 -66q-14 -39 -35.5 -60.5t-42 -30.5t-37 -11t-18.5 0 q-6 4 2 14t24 33q43 61 53 111q5 25 5.5 47.5t-5.5 41.5q-10 38 -30.5 64.5t-38.5 38.5q-31 -66 -69.5 -144.5t-75.5 -158.5q43 4 70.5 17.5t31.5 41.5q-2 14 -2 25q0 20 18 18q6 -4 13 -12q4 -8 5 -21.5t-7 -35.5q-6 -29 -43 -63t-121 -48q-51 -113 -73 -200q-9 -36 -8 -63 q0 -37 17 -56q19 -19 44 -19q16 -1 34 7q47 20 99.5 69t101.5 117.5t82 134.5q0 2 2 4q4 4 8 4q2 -2 4 -2q2 -2 2 -6q-55 -104 -119 -186q-27 -35 -58.5 -69t-66 -60.5t-72.5 -42t-77 -15.5q-55 0 -78.5 34t-23.5 88t18 121.5t43 137.5q-16 0 -35.5 2t-40.5 6 q-63 -111 -139 -213t-162 -181q-85 -79 -181 -126q-92 -45 -192 -45h-8q-84 8 -145 51q-27 18 -51.5 46t-42 69t-25.5 96q-5 31 -5 69q0 28 3 60zM110 76l-2 -20q0 -48 14 -92q16 -54 60 -92q39 -34 113 -34h16q66 4 138.5 41t147.5 101.5t149.5 151.5t144.5 192q-4 0 -6 2 q-66 16 -125 24q-25 -100 -74 -172t-110.5 -115t-129.5 -55q-24 -4 -46 -4q-42 0 -81 14q-61 24 -77 90q-6 25 -7 50q0 42 18 88q28 72 98.5 132t185.5 71q23 2 53 2q27 0 63.5 -2.5t83.5 -8.5q4 8 4 29v13q0 44 -12 79t-42 68t-89 41q-11 1 -22 1l-138 -32 q-35 -16 -72.5 -45t-75.5 -74t-76 -108.5t-73 -151.5q-2 -6 -9 -29.5t-13 -56.5q-5 -40 -9 -98zM272 129q6 -27 29 -53.5t80 -32.5q9 -1 19 -1q33 0 73 10q51 14 99.5 50.5t89 99t63.5 154.5q-79 12 -147 12h-6q-70 0 -126.5 -17t-98.5 -53t-66 -95q-4 -8 -8.5 -29.5 t-0.5 -44.5zM997 395q14 -4 28.5 -5t31.5 -3q14 33 26.5 62.5t26.5 54.5q31 68 62.5 128t56.5 113q-10 6 -21.5 11.5t-21.5 11.5q-29 -70 -75 -163t-114 -210zM997 395v2v-2zM1004 922q-4 -18 21.5 -39.5t66.5 -44.5q14 -6 27.5 -12.5t25.5 -12.5q16 35 28.5 71t24.5 70 q-10 4 -23.5 4h-29.5q-70 0 -103.5 -10t-37.5 -26zM1196 791q10 -4 21.5 -10.5t21.5 -10.5q29 66 29 115v6q2 4 -2.5 16.5t-20.5 24.5q-4 -16 -16 -52t-33 -89z" />
<glyph unicode="B" horiz-adv-x="1341" d="M46 -60q3 62 31.5 120.5t81 105.5t122.5 70q68 21 141 21q26 -1 54 -3q104 -10 202 -37q25 53 48.5 108.5t41.5 108.5q29 78 68 146q4 6 18 32.5t41 59.5t62.5 67.5t82.5 59.5q4 2 5.5 3t5.5 3q-66 87 -150 115q-54 18 -113 18q-33 0 -67 -6q-78 -12 -129 -36t-86 -58 q68 -10 121 -50t65 -118q4 -29 4 -54q0 -41 -12 -68q-20 -44 -49 -67q-35 -27 -80 -35q-16 -2 -30 -2q-53 0 -81 23q-36 29 -51 65q-13 34 -13 80q0 11 1 23q4 55 18.5 97t36.5 77q-31 0 -58.5 -6t-49.5 -17q-29 -12 -51.5 -31.5t-37 -37t-22.5 -31.5t-10 -18 q-14 -29 -13 -68q0 -13 1 -27q4 -18 4 -30t-5.5 -21.5t-19.5 -11.5q-27 -4 -39 24q-7 17 -7 40q0 15 3 32l2 2q2 8 3 16.5t5 16.5q4 10 7.5 17.5t7.5 15.5q14 25 34 49q25 29 52.5 48.5t50.5 29.5q10 6 47 20.5t84 18.5q10 2 18.5 2h18.5q41 47 91 73.5t95 38.5 q53 14 105 19q19 1 38 1q56 0 111 -9q63 -10 133 -40t123 -91q10 1 20 1q43 -1 76 -15q41 -18 76 -44q27 -25 43 -49q20 -33 23.5 -61.5t-1.5 -50t-15.5 -35t-12.5 -13.5q-8 -4 -11 8.5t-9 40.5q-23 78 -62 116t-78 50l-16 4q25 -41 39 -95q12 -47 12 -108v-18 q-2 -59 -22 -110q-16 -43 -51 -85t-95 -59q2 -2 2 -6q0 -2 2 -4t6 -10q4 -10 6.5 -20.5t6.5 -22.5q37 -10 75 -35q49 -29 64.5 -65.5t-10.5 -53.5q-12 -8 -21.5 -3t-17.5 13t-17 25q-27 41 -61 64q3 -23 2 -47q0 -47 -10 -93l28 -12q12 -4 25.5 -10t24.5 -11q55 -23 107 -40 t93 -19h11q50 0 63 35q0 16 2 24q4 20 23 13q6 -6 8 -15q2 -8 0 -21t-12 -36q-10 -18 -37 -37.5t-76 -25.5q-14 -2 -30 -2q-40 0 -92 12q-73 16 -173 69q-23 -35 -55.5 -56t-71.5 -25h-9q-31 0 -55 12q-28 14 -50 40q-20 25 -30 60q-5 20 -6 42q0 16 3 32v8t4 16v3v2 q-8 4 -15.5 7t-15.5 7q-39 -78 -86 -149.5t-103.5 -127t-122 -90t-141.5 -37.5h-22q-81 0 -133 26q-60 30 -86 80q-24 45 -24 100v13zM117 -35q0 -29 11 -63.5t44 -63.5q31 -29 62.5 -37t61.5 -6t54.5 10.5t38.5 14.5q31 16 54.5 35.5t39.5 35.5q41 49 85 121t85 156 q-79 29 -155 44q-42 8 -81 8q-31 0 -61 -5q-51 -4 -94 -27q-39 -18 -75.5 -54t-59.5 -101q-10 -33 -10 -68zM422 610q-1 -10 -1 -20q-1 -38 13 -60q16 -26 37 -36q23 -12 55 -13q41 4 64 46q24 43 26 95v8q0 48 -20 94q-22 50 -70 69q-10 4 -22 7t-25 7q-33 -45 -44 -96.5 t-13 -100.5zM791 180q8 -4 14 -6t14 -4q16 29 47 54.5t82 35.5q14 4 35 4q39 0 86 -8q-2 6 -3 13t-5 14q-2 2 -2 6q-2 4 -2 6t-2 4q0 6 -2 8q-6 -2 -21 -2q-15 -1 -28 -1q-44 0 -68 10q-30 14 -37.5 32.5t1.5 36.5t28 25q6 2 20.5 3t34.5 -8q18 -6 35.5 -19t34.5 -36 q27 25 48 69t31 96q5 29 5 60q1 23 -3 49q-8 58 -36 111q-6 10 -12.5 21.5t-14.5 21.5q-47 -33 -76 -92q-6 -10 -13 -23.5t-13 -27.5q-14 -31 -31.5 -80t-39 -108.5t-48.5 -127t-59 -137.5zM850 80v-9q0 -38 15 -69q17 -35 50 -39q16 -6 33 -4q14 2 31.5 10t38.5 33l-8 4 t-9 4q-20 10 -40.5 20.5t-42.5 20.5q-16 8 -34 16.5t-34 16.5v-4zM864 152h2q43 -18 79 -34t61 -26q12 -4 25 -10t26 -10q19 49 19 107q0 15 -1 30q-16 8 -47 16q-21 5 -46 5q-13 0 -26 -1q-37 -6 -58 -27.5t-34 -49.5zM915 360q1 -10 17 -24q12 -11 47 -11q10 0 22 1 q18 0 35 12q-4 8 -8 10q-12 16 -23.5 24.5t-13.5 8.5q-16 8 -39.5 11.5t-33.5 -21.5q0 -2 -1.5 -4t-1.5 -7z" />
<glyph unicode="C" horiz-adv-x="1296" d="M27 803q-4 23 0 37t8 20q6 8 14 10q10 2 14.5 -5t2.5 -15q-2 -10 -7 -23q0 -41 49.5 -57t121.5 -17h17q65 0 138 7q82 8 147 14q60 6 108 7h31q29 0 52 -1q76 76 141.5 111t100.5 47q35 10 71 12q8 0 16 1q25 0 53 -5q38 -6 73 -28q70 -46 79 -100q2 -10 2 -21 q0 -48 -32 -113q-27 -53 -66 -105.5t-86 -86.5q0 -2 -16 -13q-4 -4 -10.5 -7t-12.5 -7l-20 -8t-21 -4q-18 -4 -32 8q-16 12 -19.5 28.5t-1.5 34t7 33.5t5 31q2 23 -7 35t-17 16q0 4 -4 4q-57 35 -131 47q-45 -47 -76 -91t-51 -79q-23 -41 -37 -78q-39 -104 -55 -182 q-13 -65 -12 -117v-19q3 -58 18.5 -98t38.5 -65q53 -59 143 -67q17 -2 34 -2q55 0 103 20q74 31 112 75t52 72l2 4q0 2 2 3q13 30 19 70q2 12 2 25q0 31 -9 68q-6 29 -9 40.5t5 13.5q2 0 16.5 -6.5t30 -22.5t26.5 -44q8 -21 8 -47q0 -10 -1 -20q0 -29 -16 -61 q-8 -20 -15 -29q-20 -39 -57 -69q-47 -45 -98 -67.5t-92 -33.5q-49 -10 -97 -10q-121 4 -196.5 61.5t-107.5 147.5q-23 65 -23 141q-1 29 3 61q12 112 72 228q59 111 119 186q-49 -2 -102.5 -7t-110.5 -13q-79 -12 -140 -12q-30 0 -56 3q-78 9 -124 31.5t-66.5 51 t-22.5 51.5zM864 756q39 -12 72 -35q8 -4 14 -10q10 -10 21.5 -29.5t13.5 -46.5v-27q-2 -10 -4 -21.5t-8 -27.5q0 -4 -2 -6q-8 -23 -9 -44.5t13 -33.5q4 -4 12 -6q14 -4 39 10q10 4 23 15q8 4 14 10q35 31 70.5 75t61.5 90t37 90q5 19 5 36q0 21 -8 39q-18 35 -48 46t-59 9 q-34 -3 -69 -15q-55 -25 -101.5 -54t-87.5 -64z" />
<glyph unicode="D" horiz-adv-x="1359" d="M27 -127q6 37 35.5 61.5t76.5 37t105 13.5h10q54 0 113 -10q10 -2 22 -4q10 -2 22.5 -4t24.5 -4q33 47 67 104.5t64 120.5q10 16 17 33q4 8 8 17q53 111 90 217q29 78 68 145q4 6 18 32.5t41 59.5t62.5 68t82.5 59q8 4 11 6q2 0 4 2t5 2t7 5q-47 41 -78 59q-18 10 -33 18 q-76 47 -167 47q-32 0 -66 -6q-78 -12 -130 -35.5t-87 -58.5q68 -10 121 -50t65 -118q4 -29 4 -54q0 -41 -12 -68q-20 -44 -49 -66q-35 -27 -80 -35q-16 -2 -31 -2q-52 1 -80 23q-36 28 -51 65q-13 34 -13 79q0 11 1 23q4 55 18.5 97.5t36.5 76.5q-31 0 -58.5 -6t-49.5 -16 q-29 -12 -51.5 -31.5t-37 -37t-22.5 -32t-10 -18.5q-14 -30 -13 -68q0 -13 1 -26q4 -18 4 -31q0 -12 -5.5 -21.5t-19.5 -11.5q-27 -4 -39 25q-7 17 -7 40q0 15 3 32l2 2l4 16t4 17q4 10 7.5 17l7.5 15q14 25 34 49q25 29 52.5 48.5t50.5 29.5q12 6 48 20.5t83 18.5 q10 2 18.5 2h18.5q41 47 91 74t95 39q53 14 105 18h49q23 0 52.5 -2t63.5 -8q51 -6 121 -34.5t135 -84.5q44 10 80 10q37 0 67 -11q58 -21 101 -60q43 -41 50.5 -82t-21.5 -51q-14 -4 -22.5 3t-12.5 17q-6 10 -10 27q-27 75 -79 99q-42 20 -94 19q-13 0 -26 -1 q43 -41 78 -93.5t55.5 -117t24.5 -142.5q1 -13 1 -26q0 -67 -17 -144q-29 -127 -84.5 -204.5t-117 -119.5t-117.5 -56.5t-85 -16.5q-16 -4 -35 -4q-10 -2 -20 -2q-21 -2 -45 -2q-36 0 -80 4q-72 6 -137 16q-59 -72 -127 -121v2q-18 -12 -47 -26t-65 -24.5t-79 -14.5 q-14 -1 -29 -1q-30 0 -61 5q-35 8 -59 25q-22 13 -38 37q-11 16 -11 41q0 11 2 24zM45 -131q-4 -29 9.5 -45.5t29.5 -24.5q20 -10 47 -12q13 -2 25 -1q36 0 70 12q46 18 84 43.5t66 53.5t40 42q2 2 3 4t5 4q-16 4 -27.5 5t-19.5 3t-17 4q-72 10 -123 10q-32 0 -56 -4 q-62 -10 -93 -33q-37 -25 -43 -61zM336 631q-1 -10 -1 -20q-1 -39 13 -60q16 -27 37 -37q23 -12 55 -12q41 4 64.5 46t25.5 94v9q0 47 -18 93q-20 50 -70 69q-12 4 -24.5 7t-24.5 7q-33 -45 -44 -96t-13 -100zM563 -45q70 6 157 14t171 43t152.5 111t101.5 219q16 66 16 123 q-1 42 -9 79q-20 89 -60 156q-18 33 -40.5 60.5t-45.5 50.5q-8 -6 -21 -14q-47 -33 -76 -92q-6 -10 -13 -23.5t-13 -28.5q-14 -31 -31.5 -80t-39 -108t-48.5 -127t-59 -137q-4 -10 -9 -19q-4 -8 -9 -17t-9 -20q-51 -106 -115 -190z" />
<glyph unicode="E" horiz-adv-x="1089" d="M74 759.5q2 14.5 12 37.5q8 20 36 45.5t79 41.5q43 13 104 12h25q78 -3 188 -38q25 -8 48.5 -15t45.5 -14q4 0 7.5 -1t7.5 -1q8 10 18 18.5t21 18.5q45 39 100 68q29 14 63 24q29 10 69 16q23 3 49 3q19 0 38 -2q59 -4 98 -39q10 -12 19 -27q6 -12 8 -28.5t-4 -34.5 q-10 -25 -39 -51q-25 -23 -60.5 -43.5t-78.5 -30.5h-4q-12 -4 -23.5 -5t-23.5 -3h-3h-28q-20 -2 -49 0q-25 2 -60 5t-78 13q-4 0 -5 1t-5 1q-16 -16 -30.5 -34.5t-26.5 -41.5q-8 -12 -15.5 -24.5t-15.5 -26.5q14 0 21 -2q41 -6 59 -20q14 -12 17.5 -24.5t0.5 -22.5 q-2 -12 -8 -25q-23 -30 -49 -30q-6 0 -10 1q-32 6 -47 25q-12 12 -18.5 26.5t-6.5 20.5q-35 -25 -51 -49q-16 -18 -32.5 -39t-26.5 -41q-14 -25 -22.5 -39t-14.5 -25.5t-10.5 -24.5t-12.5 -34q-35 -101 -35 -167q-1 -12 1 -24q8 -72 34 -112q10 -18 23.5 -29.5t21.5 -17.5 q16 -12 32.5 -18.5t31.5 -10.5q16 -4 30 -2q13 -1 26 -1q76 0 136 30q16 8 43 26.5t56.5 49t59.5 75.5t52 107q23 63 25 106v13q-1 34 -9 57q-10 27 -31.5 40t-45.5 17q-18 4 -45 -1t-51 -19l-17 -8q-35 -23 -66.5 -73t-50.5 -128v-2q-2 -20 9 -25q4 -4 10 -2q10 18 18 11 q4 0 8.5 -12.5t-18.5 -22.5q-16 -8 -28.5 -4t-18.5 8l-2 2l-4 2q-13 12 -25 42q-5 13 -5 30q0 21 9 47q23 66 67 101.5t81 53.5q14 4 25.5 8.5t23.5 8.5q33 10 76 10h14q43 -2 86 -21.5t69.5 -56.5t30.5 -94v-12q0 -53 -32 -123q-31 -72 -93 -129q-53 -49 -141 -90t-223 -41 h-8q-49 4 -86 14q-86 20 -131 67.5t-63 104.5q-14 44 -13 90q0 14 1 26q5 58 17 103q10 37 27.5 70t34.5 59q16 27 33.5 47.5t35.5 36.5q2 2 3 2t3 2q2 0 3 2q39 35 77.5 51.5t69.5 22.5v6q2 14 12.5 54t42.5 94q-4 2 -7 2t-7 2q-61 16 -134 34.5t-139 25.5q-29 3 -53 3 q-33 0 -60 -5q-48 -9 -58 -46q2 -14 0 -25q-2 -10 -7.5 -16t-15.5 -2q-6 4 -10 12t-2 22.5zM555 573q0 -10 1 -24t9 -27q10 -10 21 -18q10 -6 20 -7t25 9q10 8 16 18q11 22 -14 45q-16 11 -38 11q-18 0 -40 -7zM729 805l16 -4q6 0 32 -5t63 -9.5t79 -5.5h12q35 0 66 5h2h5 q10 4 30.5 10.5t36.5 20.5t23 33q8 16 -1.5 29.5t-25.5 21.5q-6 2 -14 6q-16 4 -34 7.5t-34 0.5q-4 0 -11 -1t-11 -1q-35 -6 -99.5 -31.5t-134.5 -76.5z" />
<glyph unicode="F" horiz-adv-x="1017" d="M18 10v10q0 57 21 101q18 41 59 71q36 27 105 28q9 0 18 -1q29 -4 53 -14q23 -10 42.5 -27.5t29.5 -46.5q2 -6 3 -13t3 -14v-29.5t-4 -31.5v-2q-10 -59 -43 -86t-57 -6q-10 8 -9 19.5t7 21.5q8 10 18 22q37 47 41 94v18.5t-5 26t-17.5 23.5t-36.5 12q-6 1 -13 1 q-31 0 -51 -17q-24 -20 -41 -47q-18 -31 -28 -72q-8 -33 -7 -59q0 -28 9 -48q18 -38 47 -57q33 -23 80 -28h6q58 1 114 35q58 36 110 96.5t99 135.5t84 148q-33 0 -58.5 -4t-53.5 -14l-19 -6q-37 -14 -59.5 -30.5t-15.5 -37.5v-2q4 -6 6 -12q4 -12 -4 -14h-2q-6 0 -9 6 q-8 6 -14 26v14.5t4 18.5q10 33 49 57q10 8 22.5 15.5t26.5 11.5q6 2 11.5 3t11.5 3q12 2 33 6q16 4 39.5 6.5t56.5 2.5q23 49 41 92t31 73q55 143 101 223.5t73 114.5q8 14 28.5 39t24.5 31h2q-4 0 -7 -1t-7 -1q-47 -8 -122 -19.5t-162 -29t-177 -44t-166 -66.5t-130 -96 t-69 -132q-3 -22 -3 -42t3 -38q4 -31 19.5 -58.5t54.5 -35.5q14 -4 47 -6h7q30 0 68 15q42 17 86 60t81 132v2q0 4 2 6q17 43 17 72q1 10 -1 18q-8 33 -12 43t-16 14h-11q-4 -18 -16 -14q-4 0 -12.5 11t12.5 28q14 10 28.5 10t24.5 -4l2 -2q2 -2 4 -2h2q0 2 7 -4 q4 -4 17 -17.5t25.5 -38t16.5 -61.5q1 -8 1 -17q0 -31 -11 -71q-31 -96 -89.5 -139t-120.5 -55q-42 -8 -77 -9q-17 0 -33 2q-49 6 -61 10q-18 4 -45 17.5t-52.5 37t-43 56.5t-17.5 78v9q1 61 27 113q28 56 81.5 101t126 79t160.5 54q92 23 171 36t148.5 21.5t134 14.5 t128.5 12q39 39 92 74q50 33 107 33h6q14 0 24 -6q10 -4 16.5 -12.5t4.5 -24.5q-4 -39 -53.5 -57.5t-147.5 -37.5q-10 -20 -23.5 -44.5t-29.5 -59.5q-14 -31 -29.5 -66.5t-29 -69.5t-25.5 -61.5t-19 -44.5q-6 -16 -21 -53t-54 -125q-4 -12 -11 -22l-16 -33q0 -2 -1 -4t-1 -4 q-2 -2 -2 -6q16 0 25 2q2 4 11 15t23.5 23.5t30.5 22.5t35 12h6q6 0 14.5 -4t10.5 -16q2 -6 0 -15q-2 -18 -27 -45.5t-94 -37.5q-8 -20 -8 -43t10 -52q6 -12 8 -20t0 -16.5t-12 -12.5q-22 -9 -38 19q-11 19 -11 47q0 12 2 26q4 25 12 45h-23q-27 -53 -68.5 -121.5t-100 -133 t-131 -113.5t-160.5 -64q-10 -2 -21.5 -3t-21.5 -3h-5h3h-20.5t-20.5 2q-57 6 -105 27q-41 16 -75.5 51t-39.5 96zM866 326q8 0 13 2q47 6 61 26q4 6 6 13q4 12 -4 18q-10 4 -34.5 -14.5t-41.5 -44.5zM1100 954q25 4 49.5 8.5t48.5 8.5q14 2 27 8q10 4 19 11t9 20 q2 18 -38 17t-97 -50q-4 -4 -8 -9t-10 -14z" />
<glyph unicode="G" horiz-adv-x="1163" d="M32 780q-1 14 7 37q6 20 28.5 46t71.5 41q40 13 100 13q13 0 28 -1q79 -3 194 -37q25 -8 48 -14.5t46 -12.5q39 35 75 58.5t64 39.5q2 0 4 2l13 6q6 4 14 7.5t18 7.5q6 2 12.5 4t10.5 4q8 2 18 4t20.5 4t26.5 4q18 2 38 3t42 -3q29 -2 54.5 -11t48.5 -28q10 -10 18 -20 t14.5 -22.5t6.5 -28.5q0 -12 -2 -19q-2 -12 -13 -28q-6 -14 -18 -23q-23 -23 -54.5 -43t-72.5 -31h-6q-16 -4 -45 -8h-2h-29q-20 -2 -49 0q-25 2 -60.5 5t-80.5 14q-2 0 -3.5 1t-3.5 1q-49 -49 -83.5 -97.5t-57.5 -85.5q-25 -45 -41 -84q-41 -98 -56 -173q-15 -69 -15 -124 v-8q1 -57 17.5 -97t39.5 -67q53 -63 147 -79q27 -3 49 -3q11 0 20 1q28 2 58 18q47 23 75 56.5t44 66.5q18 37 27 80q4 26 4 48q0 34 -10 58q-15 41 -41 64q-33 -6 -62 -12.5t-51 -8.5q-23 -2 -34 4t-15 15q-6 8 -6 18q2 18 14 26.5t27 12.5q16 4 36 2q51 -4 107 -33 q36 7 82 7h12q53 -1 88 -33q35 -35 46.5 -79t11.5 -83q0 -47 -11 -92q-18 -68 -43.5 -117t-51.5 -85t-51.5 -59.5t-45.5 -37.5q-31 -23 -58 -31q-23 -6 -22 -6q-23 -6 -45.5 -4t-39.5 6t-29.5 10t-14.5 8t-3 2t-3 2l-4 4q-2 0 -2 2q-8 6 -14.5 19.5t-2.5 32.5 q8 23 21.5 20.5t15.5 -8.5q8 -8 -8 -18q0 -6 4 -11l7 -7t13 -3q4 0 16.5 1t29.5 7q31 8 67.5 36t71.5 68t64.5 91t47.5 106q16 53 18 94v21q0 26 -3 43q-2 6 -2 10t-2 8t-2 7l-2 6q-6 16 -16.5 27.5t-20.5 15.5q-10 6 -23 6h-14q-22 0 -55 -4q29 -23 45 -43q14 -14 22 -35 q8 -16 11 -43t-1 -59q-8 -47 -32 -89q-23 -35 -64 -71.5t-113 -59.5q-8 -4 -14 -4h-2q-20 -6 -37.5 -8t-32.5 -4q-16 -2 -30 0q-121 4 -197 61.5t-107 147.5q-23 65 -23 142q0 29 3 61q12 112 72 227q35 72 73.5 127t79.5 100q-63 16 -134.5 32.5t-134.5 23.5q-23 2 -44 2 q-34 0 -60 -6q-42 -11 -48 -46q2 -14 2 -24t-4.5 -16.5t-14.5 -2.5q-8 4 -12 13q-4 8 -5 22zM635 342q0 -10 9 -13t25.5 -3t36 3t37.5 7q6 0 25 6q-16 10 -33.5 13t-32.5 7q-16 2 -30 5q-10 -2 -19 -5q-6 -4 -12 -7t-6 -13zM680 825l16 -4q6 0 33 -5t63.5 -9t78.5 -5h12 q35 0 67 5h2h4q10 4 29 10t35 21q10 10 16 22q2 4 2 10q4 16 -6 29.5t-28 22.5q-4 2 -8.5 3t-8.5 3q-16 4 -33.5 7t-33.5 1q-4 0 -11.5 -1t-11.5 -1q-35 -6 -95.5 -31.5t-121.5 -77.5z" />
<glyph unicode="H" horiz-adv-x="1466" d="M12 57v10q0 57 21 101q18 42 59 72q36 27 105 27q9 0 18 -1q29 -4 53 -14q23 -10 42.5 -27.5t29.5 -46.5q2 -6 3 -13t3 -13v-30t-4 -32v-2q-10 -59 -43 -86t-57 -6q-10 8 -9.5 19.5t7.5 21.5q8 10 18 22q37 47 41 95v18t-5 25.5t-17.5 23.5t-36.5 12q-6 1 -13 1 q-31 0 -51 -17q-24 -20 -41 -47q-18 -31 -29 -72q-7 -32 -7 -58q-1 -30 9 -50q18 -38 48 -56q33 -23 80 -28h5q71 0 139 51q70 53 129.5 133t109 173t83.5 171q-90 55 -120 134q-12 31 -11 63q0 48 27 96q37 68 92 114t113.5 75.5t115 46t93.5 24.5l4 4q2 0 2 2q37 39 90 74 q50 33 107 33h6q14 0 24 -6q10 -4 16.5 -12.5t4.5 -24.5q-4 -39 -51.5 -57.5t-141.5 -36.5q-2 0 -4 -1t-4 -1q-12 -18 -24.5 -44t-28.5 -59q-14 -31 -29.5 -66.5t-29 -69.5t-26 -61.5t-18.5 -44.5q-6 -16 -21.5 -53t-53.5 -125q0 -2 -3 -6l-6 -12q78 -29 155 -36 q49 -4 94 -4q26 0 50 1q20 53 45 113.5t56 132.5q53 121 103 190.5t95 102t81 35.5t61 -7q20 -10 28 -20q12 -16 15 -25q6 -18 6 -41q0 -14 -2 -25.5t-4 -17.5q-2 -2 -2 -4q-16 -49 -44 -69.5t-34 -24.5q-2 -2 -8 -2l-4 -2q-2 0 -5 -2q-10 -2 -24 0t-27 16q-16 18 -6 28.5 t16 10.5q14 0 11 -16q4 -2 10 -2q4 0 10 1t10 9q4 6 13.5 24.5t11.5 53.5v30q-2 25 -10 33t-17 10q-10 0 -16 -6q-8 -6 -15.5 -14t-15.5 -23q-27 -59 -59 -133q-29 -63 -66 -150t-77 -192q66 10 100 27q25 10 38 20.5t15 12.5q18 16 39 49q6 16 14 26q14 23 37 13 q27 -14 15.5 -49t-54.5 -68q-4 -4 -10 -7t-10 -7q-16 -8 -32.5 -15.5t-35.5 -13.5q-37 -10 -73.5 -16.5t-59.5 -10.5q-10 -25 -13 -32t-7 -14t-11.5 -23.5t-21.5 -57.5q-25 -66 -46.5 -127t-30.5 -112q-5 -29 -5 -52q0 -18 3 -34q7 -35 42 -45q16 2 29 0q10 -2 17 -8.5 t1 -18.5q-6 -8 -16 -12t-26.5 -2t-43.5 14q-20 8 -42 32q-24 23 -36 66q-9 33 -9 78q0 14 1 30q4 66 35 163q6 20 9 29.5t6 20.5t10.5 30.5t23.5 62.5q-24 -1 -47 -1q-63 0 -119 8q-76 11 -137 32q-2 -2 -2 -4t-2 -4q-18 -43 -59 -118t-102.5 -151.5t-142.5 -139t-182 -79.5 q-10 -2 -21 -3t-24 -3h-4h2h-20t-21 2q-57 6 -104 27q-41 16 -76 51t-39 96zM674 556q20 -46 49 -75q6 16 12 30t10 26q57 143 102.5 223t72.5 114q4 8 14 21.5t20 24.5q-84 -39 -161.5 -104.5t-114.5 -153.5q-14 -34 -14 -62q1 -24 10 -44zM1094 1001q25 4 49 8.5t49 8.5 q14 2 27 8q10 4 19 11t9 20q2 18 -38 17t-97 -50q-4 -4 -8 -9t-10 -14z" />
<glyph unicode="I" horiz-adv-x="1032" d="M29 51v10q0 57 20 101q17 42 59 72q37 27 105 27q9 0 18 -1q29 -4 54 -14q23 -10 42 -27.5t29 -46.5q2 -6 3 -13t3 -14v-29.5t-4 -31.5v-2q-10 -59 -42.5 -86t-57.5 -6q-10 8 -9 19t7 22q8 10 18 22q37 47 41 94v18.5t-5 26t-17 23.5t-37 12q-6 1 -12 1q-32 0 -52 -18 q-24 -20 -40 -46q-18 -31 -29 -72q-8 -33 -7 -59q0 -29 9 -49q18 -38 47 -56q33 -23 80 -28h6q58 0 114 36q58 38 111.5 98t100.5 136t84 149q-82 27 -140 70q-56 43 -84 99q-23 47 -24 100q0 10 1 20q5 64 46 131q45 74 126 121t168 76t163.5 40t113.5 15q38 39 90 72 q49 31 103 31h6q14 0 25 -7q10 -4 16 -12t4 -24q-4 -39 -53 -57.5t-148 -37.5q-10 -20 -23.5 -44.5t-29.5 -59.5q-14 -31 -29.5 -66.5t-29 -69.5t-25.5 -61.5t-18 -44.5q-6 -16 -21.5 -53t-54.5 -125q-4 -12 -10 -22l-17 -33q0 -2 -1 -4t-1 -4q-4 -8 -9 -18.5t-9 -20.5 q14 0 20 -2q27 -2 43.5 1t20.5 5q29 6 55 26q12 10 25 17q10 4 21 3t20 -11q16 -23 -10.5 -49.5t-79.5 -34.5h-3q-4 -2 -10 -2t-12 -2h-15.5t-17.5 2h-2q-20 2 -38.5 3t-37.5 5q-29 -53 -70.5 -119t-98 -126t-127 -105t-152.5 -60q-10 -2 -21.5 -3t-21.5 -3h-4h2h-20.5 t-20.5 2q-57 6 -105 27q-41 16 -75.5 51t-38.5 96zM536 534q10 -56 38 -91t64 -54.5t50 -26.5q25 49 43.5 93.5t30.5 74.5q55 143 100 223.5t74 114.5q10 12 27.5 36t25.5 32q-45 -12 -105.5 -32.5t-121 -52.5t-113.5 -78t-84 -107t-32 -109q1 -12 3 -23zM1110 995 q25 4 49.5 8.5t48.5 8.5q14 2 27 8q10 4 19.5 11t9.5 20q2 18 -38.5 17t-97.5 -50q-4 -4 -8 -9t-10 -14z" />
<glyph unicode="J" horiz-adv-x="1267" d="M40 -349q-7 28 -7 56q0 38 14 76l2 2v2q18 47 48 78t40 41q20 18 63.5 43.5t117 50.5t180 46.5t258.5 31.5q27 47 51 94t45 82q8 16 16.5 32.5t16.5 32.5q-82 27 -139.5 70t-85.5 99q-23 46 -23 100q0 10 1 20q5 64 46 131q45 74 126 121t168 76t164 40t113 15 q39 39 91 72q48 31 102 31h6q14 0 25 -7q10 -4 16 -12t4 -24q-4 -39 -52 -57.5t-147 -37.5q-12 -20 -25 -44.5t-30 -59.5q-12 -31 -27.5 -66.5t-29.5 -69.5t-25.5 -61.5t-17.5 -44.5q-8 -16 -23.5 -53t-54.5 -125q-6 -12 -10 -22t-7 -18.5t-8 -14.5q-2 -2 -2 -4t-2 -4 q-4 -8 -8 -18.5t-10 -20.5q14 0 20 -2q29 -2 44.5 1t19.5 5q29 6 57 26q12 10 25 17q10 4 20.5 3t18.5 -11q16 -23 -10.5 -49.5t-79.5 -34.5q-6 -2 -12.5 -2t-12.5 -2q-20 0 -31 2h-4q-20 2 -38.5 3t-35.5 5q-14 -31 -32 -64q-16 -29 -36 -64.5t-42 -76.5q41 2 78 7 t62.5 15.5t39.5 27t10 40.5q-6 12 -10 23q-4 8 -2 15t14 7q8 0 17 -8q14 -14 16 -57q0 -20 -11 -45t-42 -47.5t-84 -40t-135 -23.5q-27 -43 -51.5 -81t-44.5 -60q-2 -6 -11 -15q-6 -8 -16 -22.5t-25 -34.5q-23 -29 -44 -54.5t-48 -49.5q-70 -68 -132 -104t-116 -50 q-48 -12 -88 -12h-11q-44 2 -74.5 10t-48.5 17l-19 10q-57 31 -75 97zM47 -295q-4 -18 2 -43q4 -23 24.5 -48.5t61.5 -39.5q25 -8 53 -14q15 -3 31.5 -3t36.5 3q39 6 87 27.5t110 68.5q35 27 67.5 62.5t69.5 91.5q18 27 33.5 49t33.5 49q10 14 21.5 35.5t28.5 46.5 q-63 -4 -142.5 -15.5t-158.5 -31.5q-86 -20 -164 -50t-129 -73q-12 -12 -22.5 -23.5t-18.5 -25.5q-6 -10 -11.5 -22.5t-9.5 -29.5q-2 -6 -4 -14zM754 534q10 -55 38.5 -90.5t63.5 -55t49 -26.5q25 49 43.5 93.5t30.5 74.5q57 143 102 223.5t72 114.5q10 12 28.5 36t24.5 32 q-45 -12 -105.5 -32.5t-119.5 -52.5t-112.5 -78t-86.5 -107q-29 -60 -29 -108q0 -12 1 -24zM1327 995q25 4 49.5 8.5t50.5 8.5q14 2 27 8q27 10 29 31q0 18 -40 17t-95 -50q-4 -4 -9.5 -9t-11.5 -14z" />
<glyph unicode="K" horiz-adv-x="1163" d="M14 59v10q0 57 21 101q18 42 59 72q36 27 105 27q9 0 18 -1q29 -4 53 -14q23 -10 42.5 -27.5t29.5 -46.5q4 -16 4 -28q4 -29 -2 -60v-2q-12 -59 -44 -86t-56 -6q-10 8 -9 19.5t7 21.5q8 10 18 22q37 47 41 95v18t-5 25.5t-18.5 23.5t-37.5 13q-6 1 -11 1q-31 -1 -51 -19 q-24 -22 -41 -48q-18 -31 -28 -70q-8 -34 -8 -60q0 -28 9 -48q17 -38 46 -55q33 -23 80 -29h7q55 0 107 32q56 34 107 89t96 125.5t83 141.5t65.5 135.5t46.5 107.5q55 143 100 223t72 115q6 8 16 20t20 25q-2 0 -2 -1t-2 -1q-63 -29 -131.5 -75t-140.5 -106 q-29 -23 -54.5 -40t-47.5 -33q-70 -44 -124 -58q-47 -13 -81 -12h-9q-38 2 -63 15.5t-37 27.5q-16 18 -19 31.5t-3 21.5t6 17q16 10 24 -11q5 -8 7 -22q15 -27 50 -27h5q39 2 88 23.5t104.5 55.5t106.5 71q10 8 30.5 23.5t38.5 29.5q2 0 5 2l4 4q20 14 65 42t113 54 q61 20 112 31q2 2 11 2l2 2l2 4q0 2 2 2q39 39 91 74q49 33 106 33h6q14 0 24 -6q10 -4 17.5 -13.5t5.5 -25.5q-4 -37 -51.5 -55.5t-141.5 -36.5q-4 0 -5 -1t-3 -1q-27 -41 -53 -105q-14 -31 -29.5 -66.5t-29 -68.5t-25.5 -60.5t-19 -44.5q-2 -8 -12 -28q43 41 95.5 88 t115.5 100q100 84 176 124t132 50q25 5 46 5q24 -1 42 -7q34 -12 53 -32q14 -16 16 -31q2 -10 2 -29q-2 -20 -12 -39q-16 -27 -27 -37l-2 -2q-37 -37 -70.5 -44t-42.5 -7q-2 0 -3 1t-3 1h-6q-2 0 -4 2q-8 2 -20.5 9.5t-16.5 25.5q-6 25 7.5 30t17.5 1q12 -4 2 -21q2 -4 8 -6 q4 -2 9 -2t13 4t24.5 16.5t33.5 40.5q2 4 4 9.5t4 9.5q2 6 4 10q10 23 6 34t-10 15q-4 4 -9 4h-9q-20 -4 -43 -20q-80 -66 -172 -145q-80 -68 -183.5 -161t-220.5 -204q6 -14 20.5 -43t29 -60.5t28.5 -61.5t20 -44q4 -8 4 -10q4 -6 7.5 -13.5t7.5 -15.5q29 -63 57.5 -121.5 t57.5 -101.5q30 -44 61 -62q17 -10 33 -9q14 0 28 7q10 12 21 21q8 6 17 7t14 -11q2 -10 -5 -21q-4 -10 -16 -21t-39 -22q-20 -8 -53 -7t-72 22.5t-84 71t-90 139.5q-8 16 -25.5 49t-37 71.5t-40 77.5t-34.5 70q-29 -53 -71 -118.5t-98 -124t-126 -103.5t-152 -60 q-10 -4 -21 -4t-22 -2h-4h-19t-20 2q-57 6 -104 27q-41 16 -76 51t-39 96zM1096 1004q25 4 49 8t49 8q14 2 27 8q27 10 28 31q0 8 -10 13t-28.5 3t-43 -13t-53.5 -36l-9 -9t-9 -13z" />
<glyph unicode="L" horiz-adv-x="892" d="M25 -186q0 43 26.5 70.5t62.5 43t72.5 20.5t59.5 5q47 0 93 -7t99 -24q6 6 11 15q43 63 74.5 123.5t56 121t47 118.5t51.5 120q39 100 70.5 166.5t58.5 109.5t46 66.5t34 40.5q-2 0 -4 -2q-63 -29 -132 -76t-141 -104q-106 -84 -180 -114t-127 -30q-43 0 -69.5 13.5 t-40 30t-17.5 31.5t-4 19q0 18 7 20.5t9 2.5q10 0 14.5 -10.5t8.5 -21.5t15.5 -21.5t35.5 -10.5q33 0 79 19.5t97 49.5t101.5 65.5t91.5 68.5q2 0 17.5 10.5t40 25.5t58 33.5t72.5 33.5q20 8 44 14t43.5 12t31.5 9t10 6q39 39 91.5 72.5t111.5 33.5q12 0 23 -6 q10 -4 17 -12.5t7 -24.5q0 -39 -49 -57.5t-145 -36.5q-4 0 -12.5 -11.5t-17.5 -26.5t-17.5 -34.5t-14.5 -34.5q-59 -141 -99 -248.5t-80 -204t-90 -190.5t-126 -209q68 -25 100.5 -38t53 -22t38 -18.5t52.5 -27.5q45 -25 117.5 -57.5t157.5 -63.5t174 -52.5t167 -21.5 q55 0 102 13.5t82 46.5q12 12 23 28q8 14 15 34t7 42q0 29 -16 59.5t-59 63.5q-16 12 -37 23q-16 8 -39 15t-45 7q-29 0 -59.5 -22.5t-30.5 -51.5q0 -41 37.5 -65.5t85.5 -34.5q14 0 26 -4q10 -4 18.5 -10t8.5 -19q0 -16 -13.5 -26.5t-33.5 -10.5q-29 0 -56.5 15.5t-50 38 t-36 48t-13.5 48.5t6 42t17 34q8 16 22 30q35 35 67.5 48.5t63.5 13.5q35 0 63.5 -13.5t51.5 -29.5q25 -20 45 -43q33 -47 33 -96q0 -37 -13.5 -69t-29.5 -56q-18 -29 -41 -54q-6 -6 -17.5 -18t-15.5 -12q-25 -25 -58.5 -41.5t-72.5 -27.5t-78 -15t-74 -4q-68 0 -134 12 t-124.5 29.5t-105.5 37t-76 31.5q0 4 -6 4q-86 39 -137.5 61.5t-80 37t-42 21.5t-26.5 14.5t-31.5 17.5t-57.5 28q-12 -10 -33.5 -28.5t-55.5 -36.5t-79 -31.5t-104 -13.5q-33 0 -66 6t-55 21q-20 12 -36.5 33.5t-16.5 56.5zM45 -188q0 -25 13.5 -38.5t29.5 -21.5 q18 -8 43 -10q8 -2 23 -2q35 0 67.5 11t62 27.5t54 36t43.5 38.5q-43 20 -93 37.5t-98 21.5q-45 0 -73.5 -13.5t-44 -29.5t-20.5 -29.5t-5 -15.5q0 -4 -1 -6t-1 -6zM1026 885q12 2 36.5 4t50.5 7t45.5 15.5t21.5 28.5q0 16 -31 16q-18 0 -45 -10t-60 -39l-9 -9t-9 -13z" />
<glyph unicode="M" horiz-adv-x="1714" d="M37 57q0 139 56.5 252t140.5 189q84 75 182 109q70 24 132 24q26 0 50 -4q61 -8 107 -45q39 -32 65 -96q19 -46 19 -115q0 -29 -3 -62q-10 -111 -52 -191.5t-102 -127.5q-58 -46 -128 -60q-26 -5 -51 -5q-43 0 -84 14q-47 16 -71 58q-25 44 -25 98q1 51 23 103 q24 54 71 95q2 4 15 14t36 19q16 8 55 14q10 1 21 1q41 0 84 -19q25 -12 44 -36t29 -63q2 -14 2 -28q0 -12 -2 -30t-10 -34q-8 -12 -12 -20q-4 -4 -9.5 -10.5t-11.5 -10.5q-10 -8 -22.5 -17.5t-28.5 -15.5h-2q-38 -19 -70 -19q-12 0 -24 2q-39 10 -39 41q0 17 12 23 q10 6 21 7q12 2 28 -2q11 -1 22 -1q46 0 81 21q4 2 14 10t17.5 20.5t8.5 29t-12 36.5q-18 31 -46.5 39t-57.5 7t-52.5 -8t-29.5 -9q-84 -41 -113 -131q-2 -8 -5 -29.5t3 -44.5q10 -27 35 -53.5t80 -32.5q12 -1 24 -1q36 0 80 14q58 18 107 67t83 133t34 211q-2 51 -19 94 q-16 35 -48 68t-91 41q-11 1 -22 1q-69 0 -136 -32q-33 -16 -68.5 -45t-70.5 -74t-67.5 -108.5t-59.5 -151.5q-2 -6 -8 -30.5t-10 -55.5q-3 -26 -3 -60q0 -17 1 -37q2 -58 22.5 -112.5t67.5 -92.5q43 -34 117 -34h16q96 4 200.5 82t204 205t186.5 291t148 342q-8 62 -15 124 q-5 49 -5 91v23q2 52 14 86t41 40q33 6 49.5 -10t22.5 -43.5t5 -60.5t-3 -58q-2 -18 -4 -29.5t-2 -13.5q-8 -41 -37 -125q6 -18 12 -36.5t12 -38.5q4 -25 13 -54q4 -25 10 -57.5t10 -71.5q3 -34 3 -71v-18q-1 -46 -9 -93v-6l-6 -25q53 94 124.5 220.5t155.5 245t181.5 213 t203.5 126.5q13 3 26 3q23 0 44 -9q16 -8 29 -20q8 -12 12 -25q4 -10 5 -19.5t1 -19.5q0 -16 -2 -27.5t-4 -17.5q-2 -2 -2 -4q-16 -49 -43 -69.5t-35 -24.5q-2 0 -3 -1t-3 -1l-2 -2h-4h-4q-10 -4 -23.5 -2t-25.5 16q-16 18 -6 29.5t14 9.5q12 0 12 -16q4 -2 10 -2q4 0 9.5 1 t9.5 9q4 6 13 24.5t11 53.5v20v10q-2 25 -9 33t-15 10q-6 0 -10.5 -2t-8.5 -4q-8 -6 -15 -14t-15 -23q-43 -94 -93 -207q-41 -98 -94 -227t-106 -278v-2q-4 -4 -4 -9l-13 -30q-25 -66 -46 -127q-22 -62 -30 -113q-5 -27 -4 -50q0 -20 4 -36q8 -35 41 -45q16 2 29 0 q10 -2 16.5 -7t0.5 -18q-6 -8 -17 -12q-10 -4 -25.5 -3t-41.5 13q-20 8 -43 32q-24 24 -36 67q-10 34 -9 81q1 13 1 27q4 66 35 162q23 74 66 205t131 334q25 55 49.5 98t46.5 78q-86 -78 -153.5 -169t-127 -188.5t-115.5 -199t-122 -199.5q-12 -35 -26.5 -61.5t-28.5 -49.5 q-23 -41 -31 -27.5t-9 50.5v13q0 32 4 67q5 43 9 65q10 48 16 106q5 45 5 92v30q1 25 1 48v24q-1 34 -5 67v12q-23 -51 -48.5 -110.5t-58.5 -124.5q-6 -14 -14 -27q-6 -10 -11.5 -23.5t-9.5 -21.5q-55 -115 -123.5 -223.5t-149.5 -191.5t-176 -132q-91 -47 -195 -47h-9 q-84 8 -152 51q-57 37 -103 117t-46 225zM1135 983q-1 -10 0 -21q0 -23 2 -53q2 -6 6 -33.5t14 -70.5q4 18 9 36.5t10 35.5q6 25 8 52t-1 49.5t-11.5 34t-22.5 5.5q-12 -6 -14 -35z" />
<glyph unicode="N" horiz-adv-x="1595" d="M29 57q0 139 56 252t140 189q85 75 183 109q70 24 132 24q26 0 50 -4q61 -8 106 -45q39 -32 67 -96q20 -46 20 -117q0 -28 -3 -60q-12 -111 -54 -191.5t-102 -127.5q-58 -46 -128 -60q-26 -5 -51 -5q-43 0 -83 14q-48 16 -72 58q-26 44 -25 98q1 51 23 103q24 54 70 95 q2 4 15.5 14t36.5 19q18 8 57 14q10 1 20 1q40 0 82 -19q27 -12 46.5 -36t27.5 -63q4 -14 4 -28q0 -12 -3 -30t-11 -34q-8 -12 -12 -20q-4 -4 -9.5 -10.5t-11.5 -10.5q-10 -8 -21.5 -17.5t-27.5 -15.5h-2q-40 -19 -72 -19q-13 0 -24 2q-41 10 -37 44q0 14 10 19.5t20 7.5 q12 2 29 -2q11 -1 22 -1q46 0 81 21q4 2 14 10t17 20.5t8 29t-11 36.5q-18 31 -47 39t-57.5 7t-52 -8t-29.5 -9q-94 -47 -121 -162q2 -33 14 -59q10 -23 35 -44.5t72 -25.5q12 -1 24 -1q36 0 80 14q58 18 107 67t83 133t34 211q-2 51 -19 94q-16 35 -48 68t-91 41 q-11 1 -22 1q-69 0 -136 -32q-33 -16 -68.5 -45t-70.5 -74t-67.5 -108.5t-59.5 -151.5q-4 -10 -6 -20t-6 -21q-2 -4 -2 -12q-2 -6 -2 -14.5t-3 -18.5q-3 -26 -3 -60q0 -17 1 -37q2 -58 23.5 -112.5t67.5 -92.5q42 -34 117 -34h16q96 4 200.5 82t204.5 205t187.5 291 t148.5 342q-6 23 -12 46.5t-11 47.5q-13 67 -13 120q0 40 7 70q17 72 64 80q31 6 47 -11t22.5 -45t5.5 -59.5t-3 -56.5q0 -4 -3 -12q-4 -14 -6 -33q-2 -10 -4 -21t-6 -26q-4 -10 -8 -23.5t-8 -29.5q16 -41 37.5 -93t48.5 -108v-2q12 -29 19 -46t18 -42q18 -41 33.5 -85 t27.5 -85q4 6 8 23l15 39q25 72 62.5 166t92.5 215q55 119 106.5 187.5t96.5 101t82 35.5t61 -9q10 -4 16.5 -9t12.5 -12q4 -6 7 -12t5 -12q6 -18 6 -39q-2 -16 -4 -27.5t-4 -17.5q-2 -2 -2 -4q-16 -49 -44 -68.5t-36 -23.5q-2 -2 -6 -2l-2 -2h-4l-2 -2q-10 -2 -24.5 0 t-26.5 18q-16 18 -6 28.5t16 8.5q10 0 10 -17q4 -2 10 -2q4 0 9.5 1t11.5 10q4 6 13 24.5t12 50.5q0 4 1 11.5t1 11.5v10q-2 25 -10.5 33t-16.5 10q-10 0 -16 -6q-16 -10 -31 -37q-45 -92 -96 -205q-43 -96 -98.5 -225t-112.5 -278q0 -2 -4 -11q-2 -8 -11 -28 q-14 -35 -27.5 -68t-23.5 -65q-10 -25 -16 -48.5t-11 -46.5q-8 -37 -8 -66q0 -15 2 -27q6 -38 41 -50q16 0 29 -2q27 -4 18 -25q-6 -8 -16 -12t-26.5 -2t-43.5 14q-18 10 -38.5 29.5t-32.5 56.5q-12 27 -13 66v17q0 31 5 75q-16 80 -39 172t-52 186q-6 18 -18 55.5t-27 71.5 q-2 2 -3 6.5t-3 8.5q-4 10 -9 25.5t-13 35.5l-11 -31q-2 -8 -4 -10q-20 -51 -45.5 -110.5t-60.5 -126.5q-4 -4 -14.5 -26t-18.5 -38q-55 -117 -122.5 -225.5t-149.5 -192.5q-81 -84 -177 -134q-92 -48 -198 -48h-8q-84 8 -152 51q-57 37 -103 117t-46 225zM1126 983 q-1 -11 0 -25q0 -22 2 -49q2 -6 6.5 -33.5t14.5 -70.5q4 18 9 36.5t9 35.5q0 4 1 6t1 4q4 23 6.5 47t0.5 43.5t-8.5 32t-18.5 10.5q-2 0 -4 -1t-4 -1q-13 -6 -15 -35z" />
<glyph unicode="O" horiz-adv-x="1038" d="M50 777.5q1 13.5 11 35.5q8 20 34 47q26 26 77 42q42 13 101 14q13 0 28 -2q78 -4 188 -37q25 -8 48.5 -15.5t46.5 -13.5q41 35 78.5 58.5t68.5 39.5q2 2 4 2l13 6q6 4 15 8.5t19 8.5q16 4 25 8q8 2 18 4t20.5 4t26.5 4q18 1 38 1t42 -1q29 -4 53.5 -12t45.5 -27 q10 -10 18 -20q14 -23 12 -53q0 -10 -4 -17v-2q-2 -12 -14 -26q-4 -6 -9 -12.5t-12 -12.5q-25 -23 -58.5 -42t-76.5 -30q-2 0 -3 -1t-3 -1q-10 -2 -21.5 -3t-23.5 -3h-4q-8 -2 -29 -2q-20 -2 -49 0q-25 2 -59.5 6t-79.5 15h-6q-53 -49 -93 -96.5t-67 -84.5q-31 -43 -51 -84 q-51 -98 -75 -172.5t-28 -130.5q-1 -15 -1 -29q0 -39 8 -68q12 -40 32 -67q47 -63 140 -79q19 -3 38 -3q45 0 85 17q57 24 104 68t84 103.5t59 121.5q44 120 54 198q5 36 4 64q0 34 -6 58q-12 44 -38 57.5t-53 3.5q-18 -8 -41 -25q-18 -14 -40.5 -38.5t-45.5 -63.5l-12 -25 l-6 -12q-41 -81 -48 -133q-4 -28 -4 -46q0 -15 3 -22q6 -16 20.5 -14t20.5 6q16 6 25.5 16.5t13.5 16.5q31 41 37 100q-2 16 2 29q4 10 10 19t20 11q33 0 37 -41v-9q0 -38 -31 -85l-2 -2q-8 -16 -18 -27.5t-21 -21.5q-16 -12 -22 -18q-27 -14 -53 -19q-49 0 -72 15 q-23 14 -31 37.5t-8 51t6 55.5t15 52q4 12 7 22.5t7 18.5l8 16q39 86 82 130.5t82 62.5q36 19 74 19q7 0 14 -1q49 -6 84 -34q29 -26 44 -80q6 -23 6 -54q0 -41 -11 -96q-16 -72 -55 -164t-98.5 -174t-138.5 -135q-73 -49 -162 -49h-13q-121 4 -190.5 61.5t-91.5 147.5 q-10 42 -10 89q0 52 14 112q24 112 96 227q45 72 89 128t89 101q-61 16 -132 32q-70 16 -132 22q-23 2 -43 3q-35 -1 -63 -7q-44 -10 -52 -46q2 -16 0 -24q-4 -20 -21 -17q-6 4 -10 13q-4 8 -3 21.5zM702 823l17 -4h2q4 -2 29.5 -7t62.5 -9t79 -5h12q35 0 67 5l2 2h4 q10 2 30.5 8t36.5 21q4 6 9.5 11t9.5 13q4 4 4 10q6 16 -3 29.5t-28 22.5q-2 2 -5 3t-7 3q-31 8 -70 8q-4 -2 -10 -2t-10 -2q-35 -6 -99.5 -31t-132.5 -76z" />
<glyph unicode="P" horiz-adv-x="1521" d="M16 12v10q0 57 21 101q18 41 59 71q36 27 105 28q9 0 18 -1q29 -4 53 -14q23 -10 42.5 -27.5t29.5 -46.5q4 -16 4 -29q4 -29 -2 -59v-2q-12 -59 -44 -86t-56 -6q-10 8 -9 19.5t7 21.5q8 10 18 22q37 47 41 95v18t-5 25.5t-17.5 23.5t-36.5 12q-6 1 -12 1q-32 0 -52 -18 q-24 -21 -41 -48q-18 -31 -28 -70q-8 -34 -8 -60q0 -27 9 -47q17 -38 46 -57q33 -23 80 -28h7q55 -1 107 31q56 34 107 89.5t96 126t83 141t65.5 135.5t46.5 108q55 143 100 223t72 114q6 8 16 20.5t20 24.5q-2 0 -2 -1t-2 -1q-63 -29 -131.5 -74.5t-140.5 -105.5 q-29 -23 -54.5 -40t-47.5 -34q-70 -43 -124 -57q-47 -12 -81 -12h-9q-38 2 -62.5 15.5t-37.5 27.5q-16 18 -19 31.5t-3 21.5t6 17q16 10 24 -11q4 -8 7 -22q15 -27 50 -27h5q39 2 88 23.5t104.5 55.5t106.5 71q10 8 30.5 23.5t39.5 29.5q2 0 4 2l4 4q20 14 65 42t113 54 q61 20 113 31q4 2 10 2h2h-2l2 2l2 4q0 2 2 2q39 39 91 74q49 33 106 33h6q14 0 24 -6q10 -4 17.5 -13.5t5.5 -25.5q-4 -37 -51.5 -55.5t-141.5 -36.5q-4 0 -5 -1.5t-3 -1.5q-27 -41 -53 -104q-14 -31 -29.5 -66.5t-29 -68.5t-25.5 -60.5t-19 -44.5q-2 -4 -3 -10t-5 -12 q35 55 82 119.5t101.5 119t111.5 90t113 35.5q82 0 127 -46q44 -47 62 -113q13 -48 13 -101q1 -19 -1 -39q-6 -74 -27 -135q-16 -49 -48 -104.5t-78 -102.5t-103.5 -80.5t-124.5 -37.5q-13 -1 -25 -1q-48 0 -88 12q-52 15 -86 44q-32 29 -48 69q-9 23 -10 49q0 18 5 38 q0 6 4 18q4 14 15 35.5t28.5 41t42 33t59.5 15.5q18 2 35 -6q14 -6 27.5 -23.5t17.5 -50.5q2 -4 2 -10t2 -12v-3v-22v-2q-4 -59 -30.5 -91t-55.5 -16q-12 8 -12 19.5t4 21.5q6 12 14 25q20 35 28.5 59.5t6.5 55.5q0 16 -5 24t-9 12q-6 6 -13 7q-23 0 -39 -19.5t-26 -44.5 q-12 -29 -19 -63q-7 -31 -7 -57q0 -54 27 -90q37 -51 98 -50h10q68 4 144.5 77t127.5 232q25 78 36 136.5t12 101.5v11q0 36 -6 60q-7 28 -18 48q-25 43 -75 47q-49 0 -100.5 -33t-101.5 -83t-95 -109.5t-81 -113.5t-60.5 -96t-32.5 -59q-2 -6 -10.5 -24.5t-14.5 -28.5 q0 -4 -1 -5t-1 -3q-18 -43 -59 -118t-102.5 -151.5t-143.5 -139t-182 -79.5q-10 -4 -21.5 -4t-21.5 -2h-5h-19t-19 2q-57 6 -105 27q-41 16 -76 51t-39 96zM1098 956q25 4 49 8.5t49 8.5q14 2 27 8q27 10 28 31q0 8 -10 13t-28.5 3t-43 -13t-53.5 -36q-4 -4 -8 -9t-10 -14z " />
<glyph unicode="Q" horiz-adv-x="1042" d="M55 777.5q0 13.5 11 35.5q6 20 31.5 47t75.5 42q41 13 101 13q13 0 28 -1q79 -3 192 -37q49 -16 92 -29q41 35 77.5 58.5t67.5 39.5q2 2 4 2l13 6q6 4 15 8.5t21 8.5t21 8q8 2 18 4t21.5 4t25.5 4q18 1 38 1t42 -1q29 -4 55.5 -12t47.5 -27l16 -20q6 -10 11 -23.5 t3 -29.5q0 -10 -2 -17v-2q-4 -6 -7 -13t-7 -13t-9 -12.5t-11 -12.5q-47 -49 -134 -72q-2 0 -4 -2h-2l-43 -6h-2q-10 -2 -31 -2q-20 -2 -49 0q-25 2 -59.5 6t-79.5 15h-6q-53 -49 -91 -96.5t-63 -84.5q-29 -43 -47 -84q-49 -98 -70.5 -172.5t-23.5 -130.5v-15q0 -47 12 -83 q13 -41 33 -68q49 -66 143 -82q14 -2 26.5 -2h23.5h10q8 2 21.5 4.5t31.5 8.5q12 4 25.5 10t27.5 16q49 29 101.5 93.5t91.5 181.5q39 119 46 198q2 26 2 49q0 44 -9 73q-13 44 -38.5 57.5t-51.5 3.5q-18 -8 -39 -25q-16 -14 -38 -38.5t-44 -63.5q-4 -6 -7 -12.5t-8 -12.5 q-2 -4 -2 -6t-2 -6q-39 -82 -45 -133q-2 -20 -2 -34q0 -24 6 -34q4 -16 18.5 -14t20.5 6q16 6 24.5 16.5t12.5 16.5q14 18 23.5 42.5t11.5 57.5q-2 16 2 29q4 10 9 19t20 11q33 0 38 -41q1 -5 1 -11q0 -37 -29 -83v-2q-8 -16 -18.5 -27.5t-20.5 -21.5q-6 -4 -11 -9t-11 -9 q-25 -14 -54 -19q-49 0 -69 15q-23 14 -32 37.5t-10 51t4 55.5t11 52q4 12 7 22.5t7 18.5t6 16q35 86 78 130.5t80 62.5q35 19 71 19l15 -1q51 -6 86 -34q29 -27 47 -80q10 -27 10 -68q0 -36 -8 -82q-14 -76 -43.5 -151.5t-71.5 -141t-91.5 -118t-104.5 -80.5 q-29 -14 -59 -25q18 -2 32.5 -4t24.5 -4t21 -4q16 -4 26 -8q31 -12 53 -29q43 -31 54 -66q6 -27 0 -38q-6 -23 -17 -31q-6 -6 -10 -6h-4q-12 2 -4 16q4 6 10 12v2q10 23 -15.5 43.5t-66.5 36.5q-12 4 -20 6q-49 16 -93 20q-20 1 -47 1q-32 0 -73 -2q-24 -2 -47 -2t-43 2 q4 -12 6 -25.5t2 -27.5q1 -9 1 -17q0 -39 -17 -66q-19 -32 -46 -22q-10 4 -12 13.5t2 19.5t10 24q16 31 17.5 57.5t-6.5 49.5q-80 14 -107 45t-27 53q2 6 2 15q4 16 13.5 20t17.5 4h6q23 -2 41.5 -14t32.5 -25.5t23.5 -27t13.5 -19.5h90q-94 20 -149.5 83t-70.5 150 q-6 35 -6 72q0 56 13 117q23 102 84 207q41 72 85 128t85 101q-63 16 -134 32.5t-132 21.5q-23 3 -43 3q-35 0 -62 -7q-43 -9 -51 -46q2 -16 2 -24q-4 -20 -20 -17q-8 4 -13 13q-4 8 -4 21.5zM254 -25.5q6 -13.5 6 -15.5q8 -12 25.5 -19.5t42.5 -11.5q4 0 8 -1t8 -1 q-18 31 -46 52.5t-38 17.5h-2q-10 -8 -4 -21.5zM707 823l16 -4h2q4 -2 30.5 -7t63.5 -9t79 -5h12q35 0 67 5l2 2h4q10 2 29.5 8t36.5 21q4 6 9 11t9 13q2 2 2 4t2 6q4 16 -6 29.5t-27 22.5q-4 2 -7 3t-7 3q-31 8 -70 8q-4 -2 -10 -2t-10 -2q-35 -6 -98.5 -31t-128.5 -76z " />
<glyph unicode="R" horiz-adv-x="1482" d="M27 74v10q0 57 20 100q18 41 59 72q36 27 105 28q9 0 18 -1q29 -4 54 -15q23 -10 42 -27.5t29 -45.5q6 -12 6 -29q2 -12 1 -27.5t-5 -32.5v-2q-10 -59 -42.5 -85.5t-55.5 -6.5q-10 8 -10 19.5t6 21.5t18 23q41 49 43 94v18.5t-6 25.5t-18 23.5t-37 12.5q-6 1 -12 1 q-30 -1 -50 -19q-24 -22 -40 -48q-18 -31 -29 -69q-8 -34 -8 -60q0 -28 9 -48q17 -38 46 -56q33 -23 80 -29h7q55 0 107 32q56 34 107 89t96 126t82 141.5t65.5 135t45.5 107.5q57 143 102 223t72 115q6 8 15 20.5t20 24.5l-2 -2q-66 -29 -133.5 -75t-139.5 -105 q-29 -23 -54.5 -40.5t-49.5 -33.5q-68 -44 -121 -58q-47 -13 -82 -12h-10q-39 2 -63.5 15.5t-37.5 27.5q-25 33 -20 54q0 8 6 16q8 6 14.5 2t10.5 -12t6 -23q16 -29 54 -26.5t87 24t104.5 55t106.5 70.5q10 8 30.5 23.5t39.5 29.5q2 0 8 6q23 14 67 42t113 55q31 10 59.5 18 t51.5 12q4 2 12 2v3l4 4q0 2 2 2q40 40 92 74q50 33 105 32h6q14 0 25 -6q10 -4 16 -13.5t6 -25.5q-4 -37 -52 -55.5t-143 -36.5q-2 0 -3 -1t-3 -1q-25 -37 -55 -105q-12 -31 -27.5 -66.5t-29 -68t-25.5 -60.5t-18 -44q-4 -4 -5 -10.5t-6 -12.5q37 55 84.5 120t100.5 119 t110.5 90t112.5 36q84 0 129 -46q44 -47 62 -113q13 -50 13 -103q0 -19 -1 -38q-6 -75 -27 -134q-16 -49 -48 -104.5t-78 -102.5t-103.5 -81t-124.5 -38h-16q-48 0 -93 10q14 -66 31.5 -121t39 -93t48.5 -56t59 -8q16 10 29 16q10 4 19.5 3t13.5 -17q-2 -12 -10 -21 q-8 -10 -24.5 -18t-47.5 -12q-8 -1 -17 -1q-24 0 -56 8q-44 11 -88 59t-84 143.5t-58 254.5q-3 16 -3 32t3 32l6 18q4 14 15.5 36t28.5 41.5t42 32.5t59 15q18 2 35 -6q14 -6 26.5 -23.5t18.5 -50.5q0 -4 1 -10t1 -12v-2v-23v-2q-4 -59 -30.5 -91t-53.5 -15q-12 8 -13 19.5 t3 21.5q6 12 17 24q20 35 27 59.5t7 55.5q0 16 -5 24.5t-9 12.5q-6 6 -12 6q-23 0 -39.5 -19.5t-26.5 -43.5q-12 -29 -20 -64q-7 -29 -7 -56q0 -28 8 -52q15 -46 48 -68q30 -20 70 -20h9q46 2 95 35.5t95 100t81 173.5q25 78 36 136t12 101v11q0 36 -6 61q-7 29 -17 47 q-25 43 -76 47q-49 -2 -100.5 -33.5t-100.5 -82t-94 -109.5t-81 -113.5t-60.5 -96.5t-32.5 -58q-4 -6 -12.5 -24.5t-12.5 -29.5l-4 -8q-18 -43 -58 -117.5t-101.5 -151.5t-143.5 -139.5t-182 -78.5q-10 -4 -21.5 -4t-21.5 -2h-4h-20.5t-20.5 2q-57 6 -105 26 q-41 16 -75.5 51.5t-38.5 96.5zM1108 1018q25 4 49.5 8t50.5 8q14 2 27 8q27 10 29 31q0 16 -40.5 16t-95.5 -49l-9 -9t-11 -13z" />
<glyph unicode="S" horiz-adv-x="837" d="M37 12q8 45 29 90q10 23 22 45q-10 47 -11 101v8q0 52 13 113q23 111 66 169t84 87q49 33 102 37q7 1 13 1q30 -1 69 -15q47 -18 78 -70q47 41 82 65q8 6 14 11t14 12q18 104 49 182t65 127t68 71q26 17 48 16q6 0 12 -1q29 -10 38 -35t5 -53q-4 -33 -16 -72 q-29 -86 -74 -156.5t-98 -130.5q-2 -20 -2 -40.5v-41.5q1 -63 1 -128v-65q-1 -99 -20 -183q-16 -72 -49 -122t-76 -82t-93 -46q-37 -11 -75 -11q-13 0 -26 1q-68 4 -129.5 39.5t-104.5 103.5q-14 -31 -16 -53q-4 -22 -3 -40q0 -20 4 -35q9 -28 21 -44q14 -18 37 -25 q14 6 25 8q23 4 20 -16q-2 -8 -10 -14q-8 -4 -21.5 -8.5t-35.5 0.5q-14 2 -32 9t-34 23q-41 39 -50 84q-5 27 -5 52q0 16 2 32zM102 172q29 45 68 91t83 91t89 86t86 78v4q-2 47 -13.5 73t-27.5 36q-18 12 -41 14q-74 -6 -120 -51t-72 -98q-31 -61 -45 -136 q-12 -67 -12 -123q0 -35 5 -65zM143 57q29 -49 69 -77.5t75 -42.5q41 -17 84 -21h5q76 0 119 56q44 58 66.5 147.5t27.5 194t9 192.5q-16 -16 -33.5 -30.5t-34.5 -29.5q0 -20 -3 -41.5t-7 -46.5q-16 -90 -41.5 -141t-50.5 -80q-10 -10 -19.5 -18t-19.5 -15q-2 0 -3 -1t-3 -1 h-2q-10 -6 -16 -6q-12 -4 -21 -4h-4h-6h-2q-10 0 -21.5 5t-19.5 22q-10 20 2 27.5t16 3.5q8 -4 6 -19q4 -4 11 -6q10 -4 22 12l2 2q14 18 23.5 37t17.5 37q10 27 17.5 64.5t11.5 78.5q-35 -31 -75 -66.5t-78 -74.5t-70.5 -79t-53.5 -79zM715 745q53 43 88 82t57 86 q6 16 10 38t3 41.5t-7 33.5t-20 16t-26.5 -8t-22.5 -22q-12 -14 -25 -33q-16 -25 -27.5 -65t-21.5 -87q0 -10 -2 -22z" />
<glyph unicode="T" horiz-adv-x="884" d="M18 53v10q0 57 21 101q18 42 59 72q36 27 105 27q9 0 18 -1q29 -4 53 -14q23 -10 42.5 -27.5t29.5 -46.5q4 -16 4 -27q4 -31 -2 -61v-2q-12 -59 -44 -86t-56 -6q-10 8 -9 19.5t7 21.5q8 10 18 22q37 47 41 95v18t-5 25.5t-17.5 23.5t-36.5 12q-6 1 -13 1q-31 0 -51 -17 q-24 -20 -41 -47q-18 -31 -28 -72q-8 -34 -8 -60q0 -28 9 -48q17 -38 46 -56q33 -23 80 -28h7q55 0 107 32q56 34 107 89t96 125.5t83 141t65.5 135t46.5 107.5q55 143 100 223.5t72 114.5q10 14 30.5 39t24.5 31h2q-4 0 -7 -1t-7 -1q-47 -8 -122 -19.5t-162 -29t-177 -44 t-166 -66.5t-130 -96t-69 -132q-5 -25 -5 -47q0 -17 3 -33q4 -31 20.5 -58.5t55.5 -35.5q14 -4 47 -6h7q30 0 68 15q42 17 86 60t81 132v2q0 4 2 6q17 43 17 72q1 10 -1 18q-8 33 -12 43t-16 14h-11q-4 -18 -16 -14q-4 0 -12.5 11t12.5 28q14 10 28.5 10t22.5 -4q2 0 2 -1 t2 -1q2 -2 4 -2l9 -4q4 -4 17 -17.5t24.5 -38t16.5 -61.5q1 -10 1 -20q0 -30 -10 -68q-31 -96 -90 -139q-60 -44 -120 -56q-41 -8 -77 -8q-17 0 -33 2q-49 6 -61 10q-18 4 -45 17.5t-52.5 37t-44 56.5t-18.5 78q0 66 28.5 122t82 101t126 79t160.5 54q92 23 171 36 t148.5 21.5t134 14.5t128.5 12q39 39 91 74q49 33 106 33h6q14 0 24 -6q10 -4 17.5 -12.5t5.5 -24.5q-4 -39 -53.5 -57.5t-147.5 -37.5q-12 -20 -25.5 -44.5t-27.5 -59.5q-14 -31 -29.5 -66.5t-29 -69.5t-25.5 -61.5t-19 -44.5q-6 -16 -21 -53t-54 -125q-4 -12 -11 -22 l-16 -33q0 -2 -1 -4t-1 -4q-18 -43 -59 -118t-102.5 -151.5t-143.5 -139t-182 -79.5l-43 -6h-5h-19t-19 2q-57 6 -105 27q-41 16 -75.5 51t-39.5 96zM1100 997q25 4 49.5 8.5t48.5 8.5q14 2 27 8q27 10 28 31q2 18 -38 17t-97 -50q-4 -4 -8 -9t-10 -14z" />
<glyph unicode="U" horiz-adv-x="1105" d="M27 627q-1 9 -1 19q0 28 9 59q4 10 5 17t5 15v2q4 8 8 16.5t8 16.5q31 55 76 91t101 65q74 33 157.5 45t163.5 16q47 4 90 5t62 3q39 39 90 72q48 31 103 31h7q14 0 25 -4q10 -4 16 -13.5t4 -25.5q-4 -39 -52 -57.5t-146 -36.5q-25 -37 -56 -105q-27 -63 -55.5 -131 t-42.5 -100q-4 -10 -8 -19.5t-12.5 -26t-20.5 -45t-33 -73.5q-6 -12 -10 -23q-4 -10 -7 -19t-7 -15q-2 -4 -15.5 -34t-31 -73t-35.5 -92t-28 -92q-8 -36 -7 -64v-11q2 -32 25 -36q4 -1 8 -1q28 0 76 33q55 38 128.5 120t162 203.5t182.5 285.5q8 18 13 29.5t15 32.5 q53 121 111 192q37 51 72 80t64.5 41t54 11t42.5 -9q20 -10 29 -21q6 -8 14 -24q6 -20 5 -41q0 -14 -2.5 -25.5t-4.5 -17.5l-2 -4q-16 -49 -43.5 -69.5t-35.5 -24.5q-4 0 -7 -2h-2q-2 0 -2 -1t-2 -1h-4q-10 -2 -23.5 0t-25.5 16q-16 20 -6 30.5t14 8.5q12 0 12 -19 q4 -2 11 -2q10 0 18 11q6 6 15.5 24.5t11.5 52.5v21v12q0 25 -8.5 33t-16.5 8q-10 2 -16 -4q-20 -14 -31 -37q-45 -92 -96 -205q-43 -96 -98.5 -225t-112.5 -278q0 -2 -4 -11q-4 -8 -5 -15t-5 -13q-14 -35 -27.5 -68t-24.5 -65q-10 -25 -16 -48.5t-12 -46.5q-8 -35 -7 -63 q0 -17 2 -31q7 -39 42 -49q16 0 28 -2q27 -4 19 -25q-8 -8 -19 -12q-10 -4 -26.5 -2t-40.5 14q-18 10 -39 29.5t-35 56.5q-8 27 -12 66v11q0 54 18 134q4 16 9 35t14 39q8 23 16 51.5t20 63.5l15 39q12 37 28.5 81t36.5 95q-61 -100 -131.5 -200.5t-141.5 -178.5 q-70 -78 -136 -121q-51 -34 -97 -34q-12 0 -24 3q-27 2 -45 21q-16 16 -28 47q-9 23 -10 63q0 13 1 27q2 31 6 58.5t14.5 59.5t25.5 71.5t40 93.5q16 37 30.5 70.5t26.5 58.5q31 68 55.5 118t45 87.5t38 65.5t33.5 52q4 8 12.5 20.5t16.5 25t14.5 21.5t10.5 13v2 q-23 -4 -45.5 -7t-45.5 -7q-61 -10 -104 -17.5t-72 -11.5q-16 -4 -28.5 -6t-14.5 -2q-49 -10 -97 -24.5t-89 -38t-71.5 -55.5t-45.5 -75q-4 -20 -4 -37t4 -32q8 -27 33 -50.5t82 -29.5q18 -3 36 -3t34 3q29 4 53 17.5t31 43.5q6 23 0.5 39.5t-14.5 27.5t-19 16t-15 8 q-15 4 -31 4q-27 0 -55 -11q-12 -6 -22 -8t-18.5 0t-12.5 12q-9 24 21 42q22 13 54 14q11 0 23 -2q0 -2 3 -2q14 0 25 -4.5t22 -8.5q8 -4 20 -12q27 -14 35 -36.5t8 -45.5q0 -27 -10 -55q-23 -59 -60.5 -81t-74.5 -22h-8q-40 0 -82 19q-47 20 -63.5 53t-20.5 66zM786 1006 h23q6 0 8 2q16 4 33.5 5t34.5 5q14 2 26 8q27 10 29 31q0 18 -40 18t-95 -51q-10 -6 -19 -18z" />
<glyph unicode="V" horiz-adv-x="933" d="M25 643q0 82 33.5 139.5t89 95t127 60.5t148.5 34t150.5 16t135.5 9q37 39 88 71t110 32l9 -1q8 -1 16 -4t15 -11.5t7 -22.5q0 -41 -49 -60.5t-151 -37.5q-27 -41 -54 -105q-20 -47 -32.5 -76.5t-22.5 -53t-19.5 -45t-22.5 -49.5t-31.5 -69t-45.5 -102q-4 -12 -8 -23 q-4 -10 -8 -19t-8 -15q-2 -4 -22.5 -49.5t-44 -107t-43 -126t-19.5 -109.5q0 -39 22 -45h5q30 1 58 21q30 22 55.5 54t45 65.5t31.5 54.5q25 45 39 71.5t22 44t15.5 32t19.5 38t32.5 60t55.5 98.5l5 7q5 7 11.5 18.5t11.5 20.5t9 13q16 29 53 84.5t88.5 121t114.5 134 t133 123.5t141.5 91t141.5 36q35 0 65 -8l32 -7q32 -7 70 -28.5t68.5 -59.5t30.5 -100q-6 -55 -27 -96q-18 -35 -53 -64.5t-98 -29.5q-10 0 -21.5 1t-23.5 3l-18 5q-19 5 -40.5 19.5t-40 39t-18.5 63.5q0 70 32 113t60 43q12 0 22.5 -8.5t10.5 -20.5q0 -14 -16 -31l-15 -14 q-51 -51 -51 -113q0 -16 12.5 -39.5t59.5 -23.5q33 0 56.5 19.5t39.5 41.5q18 27 31 64q12 39 12 69q0 41 -19.5 68t-41.5 41q-27 16 -60 24q-61 0 -128.5 -40.5t-134.5 -105t-131.5 -144.5t-120.5 -160t-101 -151.5t-72 -116.5q-86 -137 -151.5 -230.5t-120.5 -149.5 q-54 -56 -101 -78q-43 -21 -88 -20h-8q-8 0 -25 5q-23 2 -41 16q-16 12 -28 39.5t-12 81.5q0 59 24.5 139t77.5 199q68 147 118 249.5t83.5 166t53 91t28.5 27.5h-2h2q-23 -4 -46.5 -7t-46.5 -7q-29 -4 -79 -10.5t-108 -16.5t-118.5 -28.5t-108.5 -46t-79 -68.5t-31 -96 q0 -16 5 -36t21.5 -37.5t45 -29.5t78.5 -12q18 0 39.5 3t40 11t32 24.5t13.5 45.5q0 27 -10.5 41t-24 21.5t-26.5 9.5t-19 2q-25 0 -39.5 -10.5t-48.5 -10.5q-8 0 -15.5 5t-7.5 20q0 18 21.5 31.5t56.5 13.5q37 0 63.5 -11.5t42 -28t22.5 -35.5t7 -36q0 -49 -16.5 -79.5 t-40 -48t-49 -24t-43.5 -6.5q-55 0 -89 16.5t-52.5 40t-23.5 50.5t-5 47zM784 1006h21q4 0 8 2q8 2 27.5 3t40 5t37 13t18.5 28q0 18 -31 18q-18 0 -44.5 -11t-59.5 -40q-4 -4 -8.5 -8t-8.5 -10z" />
<glyph unicode="W" horiz-adv-x="1302" d="M14 631q0 12 1 23.5t3 21.5t7 18q4 20 8 33q27 68 78 114t113.5 73.5t132 41t134 19.5t120 7t87.5 5q39 39 90.5 71t110.5 32l8 -2q8 -1 16.5 -4t15.5 -12t7 -23q0 -41 -51 -59.5t-150 -37.5q-12 -18 -26 -43.5t-29 -60.5q-23 -53 -35 -82t-20 -49.5t-16.5 -40t-23.5 -52 t-39 -87t-62 -142.5q-2 -4 -27 -58t-54.5 -126t-53 -146.5t-23.5 -119.5q0 -39 22 -45q20 0 45 11t50 38q20 20 29.5 31.5t15.5 19.5t10 16.5t14 24.5q16 25 42 70t55.5 99t60.5 112.5t58.5 110.5t49 94t31.5 63q45 90 81 147.5t67.5 89t61.5 44t63 12.5q37 0 58 -9.5 t31.5 -21.5t13.5 -22l3 -11q0 -10 -6 -13t-10 -3q-12 0 -20.5 5t-14.5 11t-12.5 11.5t-16.5 5.5q-37 0 -71.5 -46.5t-66.5 -113t-62.5 -143t-57.5 -138.5q-2 -4 -27.5 -58t-54 -127t-53.5 -147.5t-25 -119.5q0 -37 23 -43q29 -4 58.5 16.5t55 52t47 66.5t34.5 59 q37 70 55 107t35.5 71.5t44 84t80.5 141.5l4 7q4 7 10 18.5t11 20.5t9 13q16 29 52 84t88.5 120.5t116 133.5t132 124t141 92t142.5 36q16 0 32.5 -2t33.5 -6l31 -7q32 -8 70 -29.5t68.5 -59t30.5 -99.5q-6 -55 -26 -96q-18 -35 -53 -64.5t-99 -29.5q-10 0 -21.5 1t-23.5 3 l-18 5q-19 5 -40.5 19.5t-40 39t-18.5 63.5q0 68 32 111.5t61 43.5q12 0 22 -9t10 -19t-5 -17.5l-9 -13.5l-14 -14q-29 -27 -41.5 -55.5t-12.5 -57.5q0 -16 12.5 -39.5t59.5 -23.5q33 0 56.5 19t39.5 42q18 27 31 63q12 39 12 70q0 41 -19.5 67.5t-41.5 41.5q-27 16 -60 24 h-18q-57 0 -123.5 -42t-133.5 -108.5t-130 -149.5t-118.5 -163t-98.5 -148.5t-66 -107.5q-84 -141 -136 -217t-84 -115.5t-52 -58t-43 -45.5q-51 -47 -96 -73.5t-86 -26.5q-8 0 -25 4q-23 2 -41 16q-16 12 -28.5 40t-12.5 81q0 10 1 20.5t1 22.5q-78 -86 -140 -135t-120 -49 q-10 0 -26 4q-23 2 -41 16q-16 12 -28.5 39t-12.5 78q0 29 10 72t27.5 96t41 112.5t52.5 120.5q68 147 117 250t83.5 165.5t55 91t28.5 28.5q-25 -4 -47 -7t-45 -7q-27 -4 -77 -10.5t-108.5 -16.5t-118.5 -28.5t-109.5 -46t-81 -67.5t-31.5 -96q0 -16 5 -36.5t21.5 -38 t46 -29.5t78.5 -12q16 0 38 3t41.5 11t32.5 24.5t13 43.5q0 31 -13 46t-28.5 22t-29.5 7h-13q-23 0 -37 -10t-47 -10q-8 0 -15 5t-7 19q0 18 20.5 32t55.5 14h13t11 -5q33 0 54.5 -11t34 -28.5t17.5 -36t5 -30.5q0 -49 -16.5 -80t-40 -48t-48 -23.5t-43.5 -6.5 q-57 0 -91 16.5t-52 40t-23.5 49t-5.5 46.5zM774 995h23q6 0 8 2q8 2 27.5 3t40 5.5t37 13.5t18.5 28q0 18 -31 18q-18 0 -45 -11.5t-59 -39.5z" />
<glyph unicode="X" horiz-adv-x="1138" d="M12 573q-1 9 -1 19q0 28 9 59q2 10 11 31v4q4 8 8 15.5t8 15.5q31 55 77 91t101 64q74 31 158 42.5t164 15.5q49 4 91 5t60 1l7 2q0 2 1 3t1 3q4 23 12 50.5t21.5 52t33 42t45.5 21.5q35 4 50.5 -18.5t13.5 -53.5q0 -10 -4 -26t-11.5 -30.5t-17.5 -29.5q-29 -31 -66 -43 q-4 0 -5 -1t-5 -1v-4q0 -10 1 -19.5t1 -19.5q2 -35 5 -71.5t6.5 -70.5t6.5 -62.5t6 -47.5v-8q47 49 92.5 95t80.5 81q92 94 163.5 141.5t125.5 62.5q33 9 59 9q15 0 29 -3q36 -9 55 -27q14 -14 20 -31q4 -8 5 -27q0 -10 -2.5 -19t-6.5 -20q-12 -29 -22 -39q-2 -2 -2 -4 q-33 -41 -66 -50t-41 -11q-4 0 -8 2h-4h-4q-10 2 -22.5 8t-20.5 25q-8 23 5 30t17 2q12 -4 7 -20q2 -4 8 -6q8 -4 20 4q8 4 22.5 18.5t28.5 44.5q2 4 4.5 10.5t4.5 10.5q2 6 4 10q6 23 1 33t-12 14q-4 4 -9 3t-9 -1q-20 -6 -41 -24q-72 -66 -149 -142q-68 -66 -152 -149.5 t-174 -175.5q2 -8 2 -27l6 -61q0 -4 3 -42t8 -94.5t13.5 -124t19.5 -130t25.5 -113.5t33.5 -74q14 -18 26 -20q4 -2 7 -1t7 1q2 0 5 2q16 6 23 25.5t11 39.5q4 23 4 54q0 18 -2 24q-2 8 -2 23q0 6 -2 8q-78 23 -103.5 56.5t-23.5 55.5q-2 4 -1 8.5t1 6.5q4 16 14.5 19 t18.5 3q2 -2 4 -2h2q20 -4 39 -18.5t32 -29.5t21.5 -29.5t12.5 -20.5q23 -4 46 -5t46 -5q8 0 27.5 -1t43 -4t48 -7.5t43.5 -8.5q16 -4 28.5 -7t22.5 -7l18 -6q8 -2 25 -10q31 -14 53 -35q23 -20 34 -38t15 -34q4 -12 3 -22.5t-3 -16.5q-8 -20 -18 -31q-4 -4 -10 -4h-4 q-12 2 -5 17q4 6 11 12l2 2q10 23 -14.5 45.5t-65.5 42.5q-12 8 -19 10q-49 20 -92 28.5t-121 14.5q-14 0 -27.5 1t-25.5 3q-10 2 -17 3.5t-16 3.5h-2v-7q2 -10 4 -28.5t-2 -46.5q-2 -12 -9 -39t-30 -49l-2 -2q-18 -18 -37.5 -26.5t-35.5 -10.5q-6 -2 -12.5 -2h-10.5 q-2 2 -4 2q-31 6 -53.5 25.5t-38.5 45t-26.5 53t-16.5 46.5q-10 41 -19.5 94t-17.5 109.5t-14 112.5t-11 103v3v-3v27q-29 -31 -55 -61.5t-53 -59.5q-2 -2 -3 -4t-3 -4q-8 -8 -21 -24q-25 -27 -48 -53.5t-44 -53.5q-16 -23 -31.5 -42t-27.5 -38q-29 -47 -36 -85 q-1 -8 -1 -15q0 -28 22 -45q16 -4 27 -13q10 -6 14 -13t-6 -17q-10 -6 -20 -4q-10 0 -24.5 7t-35.5 27q-16 14 -28 40q-11 22 -11 54v11q0 16 2.5 31.5t8.5 33.5q16 61 65 132q10 16 21.5 30.5t23.5 30.5q16 20 35 42.5t41 51.5l33 37q18 25 57 66t86 90q-4 98 -4 167v43 q2 78 6 119q2 10 3 31t5 37q-10 -2 -18 -3t-14 -3q-8 -2 -15 -2q-23 -4 -46 -7t-46 -8q-61 -8 -103 -15t-73 -11q-16 -4 -27.5 -6t-13.5 -2q-49 -10 -98 -24.5t-90 -37t-72 -54.5t-45 -75q-4 -18 -4 -35t4 -32q6 -27 30.5 -51.5t82.5 -30.5q20 -2 37.5 -2t33.5 2 q29 4 52.5 16t31.5 43q6 23 0 40t-15 27.5t-19.5 16.5t-14.5 8q-13 3 -27 3q-26 0 -57 -9q-12 -6 -22 -8t-18.5 0t-12.5 12q-9 25 21 43q19 12 47 11q14 0 30 -3h2q25 -2 47 -14q6 -2 11.5 -5t9.5 -5q27 -16 35 -39t8 -45q0 -25 -10 -53q-23 -59 -62 -80t-76 -21 q-43 0 -90 19q-47 20 -62.5 53t-19.5 65zM776 944q23 6 39 21.5t27 31.5q6 10 9 18.5t7 18.5q2 8 2 25q0 18 -5 25.5t-13 9.5t-19 -2q-18 -6 -27.5 -32t-13.5 -56q-6 -31 -6 -58v-2zM889 63q2 -8 6 -14q15 -25 66 -39q12 -4 16 -4q-16 33 -43 57.5t-37 20.5h-2 q-10 -4 -6 -21z" />
<glyph unicode="Y" horiz-adv-x="1191" d="M10 -356q-6 28 -6 55q0 39 14 78v2q18 47 49 78.5t42 42.5q20 18 63 43.5t115.5 50t180 46t257.5 32.5q25 37 45 80q25 49 50.5 104t47 104.5t38 87t22.5 54.5q-55 -84 -117.5 -163t-126 -137.5t-124.5 -87.5q-43 -21 -83 -21q-17 0 -33 3q-29 8 -49 29q-16 16 -27 49 q-6 17 -6 39q0 21 5 47q10 59 26.5 111.5t36.5 103.5v-2q16 37 30.5 71t26.5 58q31 61 52.5 102t38 71t28.5 50.5t25 38.5q4 8 12 20.5t16.5 25t15.5 21.5t9 13v2h2q-25 -4 -47.5 -7t-44.5 -7q-61 -10 -104.5 -17.5t-71.5 -11.5q-16 -4 -28.5 -6t-14.5 -2 q-49 -10 -97.5 -24.5t-89.5 -38t-71.5 -55.5t-44.5 -75q-4 -20 -4 -37t4 -32q8 -27 32.5 -50.5t81.5 -29.5q20 -3 38 -3t34 3q29 4 52.5 17.5t31.5 43.5q4 23 -1 39.5t-14.5 27.5t-19.5 16t-14 8q-18 4 -40 4t-44 -11q-12 -6 -23 -8q-10 -2 -18 0t-12 12q-10 25 20 42 q21 14 53 14q11 0 23 -2l2 -2q14 0 26.5 -4.5t22.5 -8.5l19 -12q27 -14 35 -36.5t8 -45.5q0 -27 -9 -55q-23 -59 -60.5 -81t-74.5 -22h-8q-39 0 -82 19q-47 20 -63.5 53t-20.5 66q-1 9 -1 19q0 28 9 59q4 20 8 32l3 2q4 8 7 16.5t7 16.5q31 55 76 91t100 65h2q74 33 158 45 t162 16q49 4 91 5t60 3q39 39 91 72q49 31 103 31h7q14 0 24 -4t16.5 -13.5t6.5 -25.5q-4 -39 -53.5 -57.5t-147.5 -36.5q-25 -37 -55 -105q-27 -63 -51.5 -118.5t-38.5 -84.5q-8 -18 -18.5 -42.5t-37.5 -82.5q-4 -12 -10 -22q-4 -10 -8 -20.5t-8 -16.5q-2 -6 -23.5 -57.5 t-42 -111.5t-26.5 -112q-1 -10 -1 -18q0 -36 23 -41q7 -1 14 -1q26 0 64 16q49 20 115.5 79.5t146.5 160.5t170 255q6 16 13.5 32.5t15.5 33.5q57 121 110 192q37 51 72 80t65.5 41t55.5 11t43 -9q17 -9 29 -21q8 -12 12 -24q6 -18 6 -41q-2 -14 -4 -25.5t-4 -17.5 q0 -2 -2 -4q-16 -49 -44 -69.5t-34 -24.5q-6 0 -8 -2h-2q-2 0 -2 -1t-2 -1h-2q-10 -2 -24.5 0t-27.5 16q-16 20 -5.5 30.5t16.5 8.5q12 0 10 -19q4 -2 10 -2q12 0 21 11q4 6 13 24.5t13 52.5v33q-2 25 -10 33t-16 8q-10 2 -17 -4q-8 -6 -15 -14t-15 -23q-37 -74 -76 -162 q-35 -76 -80 -179t-94 -226q-8 -16 -18.5 -40t-22.5 -52q-8 -16 -16.5 -35t-16.5 -37q-16 -29 -34.5 -63.5t-39.5 -71.5q20 0 31 2q72 4 119 22q40 16 40 53q0 6 -1 13q-8 12 -11 20q-2 8 0 15.5t15 7.5q6 0 14 -8q14 -14 16 -55q0 -18 -9 -41t-33.5 -43.5t-66.5 -39 t-110 -26.5q-12 -2 -25.5 -3t-27.5 -3q-2 -2 -4 -6t-5 -9.5t-7 -9.5q-4 -10 -10.5 -18t-12.5 -19v-2q-29 -43 -68.5 -99t-80.5 -101q-12 -14 -24.5 -27.5t-25.5 -26.5q-70 -68 -133 -103.5t-116 -50.5q-46 -12 -85 -12h-13q-44 3 -75.5 11t-49 17t-19.5 9q-57 31 -74 97z M16 -301q-4 -18 2 -43q4 -23 24.5 -48.5t61.5 -39.5q25 -8 54 -14q15 -4 32 -4t36 4q38 6 86 27.5t110 68.5q35 27 67.5 62.5t69.5 90.5q18 27 34 48.5t34 50.5q10 14 21 35.5t28 46.5q-61 -6 -140 -17.5t-159 -29.5q-88 -20 -166 -50t-127 -75q-25 -23 -41 -48 q-8 -10 -13 -23t-10 -28q-2 -6 -4 -14zM805 1006h22q6 0 9 2q16 4 33.5 5t33.5 5q14 2 27 8q27 10 28 31q0 18 -38.5 18t-96.5 -51z" />
<glyph unicode="Z" horiz-adv-x="950" d="M43 16q8 42 24.5 85.5t36 79.5t31.5 55v2q4 4 7 9t5 9q14 20 31 44t37 52l25 35q23 31 71.5 91.5t103 126t102.5 123.5t71 83q14 16 27.5 30.5t25.5 28.5q-63 16 -134 32t-131 21q-20 2 -38 2q-37 1 -64 -7q-41 -10 -47 -46q2 -16 2 -24q0 -23 -18 -17q-8 4 -12 13 q-4 8 -5 21.5t7 35.5q6 20 29 46q22 25 71 41q40 13 100 14q14 0 28 -2q79 -4 196 -37q23 -6 47 -13.5t47 -13.5q39 35 73.5 58.5t63.5 39.5q2 0 2 1t2 1l12 6q10 4 35 15q8 4 21 8q8 4 18 6q20 4 47 6q20 4 45 3q17 0 35 -1q29 -4 54.5 -12.5t48.5 -28.5q10 -10 18 -20 t14 -22.5t6 -28.5q0 -10 -2 -17v-2q-4 -16 -12 -26q-6 -12 -18 -25q-23 -23 -54.5 -42t-72.5 -30q-2 -2 -6 -2q-23 -6 -43 -6h-2q-10 -2 -31 -2q-20 -2 -49 0q-25 2 -61 6t-81 15h-6q-2 0 -3 1t-3 1q-45 -51 -106.5 -116t-129 -137.5t-137 -151.5t-131.5 -157v-2 q-4 -4 -6 -8q-4 -6 -9 -12t-11 -12q-23 -29 -45.5 -56.5t-42.5 -54.5q-16 -23 -29.5 -43t-26.5 -41q-6 -12 -12 -25.5t-10 -23.5q59 -4 145 -7t160 -3h10h37h68q61 2 108 5t76 5q10 0 16 1t11 1q6 0 10 2q29 2 45 12q8 4 12 15v10q0 16 -29 31q-4 2 -10 4q-4 2 -10 4t-10 4 q-31 10 -51.5 9t-28.5 -3q-14 -2 -19 -14q-2 -6 -2 -11q16 -6 13 -16q-2 -6 -15.5 -11t-23.5 17q-10 16 -5 30.5t9 22.5l2 3l4 4q2 2 2 3t2 3q6 3 36 21q24 14 63 15q9 0 18 -1h6q4 0 16.5 -2t26.5 -9q12 -4 25 -12q4 -2 5 -4t5 -4q12 -12 16 -21q8 -20 8 -34v-17 q-4 -27 -23.5 -54.5t-62.5 -52t-115.5 -42t-183.5 -21.5h-2q-16 -2 -32.5 -2h-34.5h-49q-61 2 -95 3t-63 3q-59 4 -84 23.5t-33 34.5q-7 19 -7 41q0 15 3 32zM842 909l16 -2h2q4 -2 31 -7t63.5 -9t78.5 -5h12q35 0 67 5h2q2 2 4 2q10 2 28.5 8t35.5 21q10 10 16 24q2 2 2 8 q4 18 -6 30.5t-29 23.5q-4 2 -7 3t-7 3q-26 6 -55 6h-15q-14 0 -20 -2q-35 -6 -96.5 -30.5t-122.5 -78.5z" />
<glyph unicode="\" horiz-adv-x="567" d="M17 981q1 31 30 53l2 2q8 4 21.5 7.5t19.5 3.5q25 10 50.5 3.5t33.5 -10.5q0 -2 2 -2q0 -2 2 -4q0 -8 -2 -8q-10 -4 -16 0q-4 4 -5 6t-5 -2q-6 -18 18.5 -104t66 -206t94 -256t98.5 -256t79 -205t39 -101q4 -16 3 -44t-30 -53l-2 -6q-20 -8 -31 -10q-25 -10 -50 -3 t-34 11l-4 2h-2q-2 2 -2 4q0 4 6 9q10 6 17 -2q8 -2 10 -3q6 18 -18.5 104.5t-67.5 205.5t-96.5 255t-100.5 254.5t-81.5 205t-41.5 104.5q-4 14 -3 45z" />
<glyph unicode="_" horiz-adv-x="1402" d="M29 -139l6 4q14 35 40 44t42 13q18 0 109 -3t219 -7t273.5 -7t272.5 -3t216 5t106 17q2 4 -1 4t-7 4q-6 6 -7 17q0 4 7 4h6l2 -2q8 -4 21.5 -26.5t13.5 -49.5q2 -6 3 -19.5t1 -23.5l-2 -2q-12 -35 -41 -45t-43 -12q-18 0 -111.5 4t-221.5 9t-273.5 9t-272.5 5t-216 -4 t-103 -17q-2 -4 -1 -5l5 -5q10 -2 8 -15q-4 -8 -6 -8q-2 -2 -4 0q-2 0 -2 2t-2 4q-6 4 -21.5 26.5t-13.5 49.5q-2 10 -2 33z" />
<glyph unicode="`" horiz-adv-x="327" d="M47 653q4 25 24.5 30t55.5 -15q18 -12 35.5 -27.5t36 -32t40 -30t46.5 -19.5q14 -6 -3.5 -10t-48 -3t-65.5 7t-53 16q-78 41 -68 84z" />
<glyph unicode="a" d="M-77 132q5 42 19.5 80t20.5 54q33 63 74 111q18 20 38.5 38.5t45 32t52.5 19.5t58 2q14 0 27 -8q10 -6 20.5 -17.5t14.5 -29.5q12 16 33.5 29.5t56.5 11.5q25 -2 37 -11.5t17 -20.5t5 -20.5v-13.5t-2 -6q-4 -6 -8 -6q-12 4 -10 18q2 4 -2 7.5t-12 -11.5q-33 -68 -60 -129 q-23 -53 -46 -107.5t-36 -88.5v-3q-2 0 -2 -2q-8 -20 0 -34q2 -4 10 -9q0 -2 2 -2h5q20 2 44.5 19.5t48 40t42 45t26.5 33.5q18 23 40 55.5t40 64.5q0 2 2 5q2 2 11 2q2 -2 4 -2q4 -4 2 -7q-8 -12 -19 -28q-10 -14 -21.5 -31.5t-27.5 -40.5q-59 -86 -110.5 -126t-77.5 -44 q-20 -4 -37 0t-27 8q-8 2 -16 8q-23 14 -29 37t-5 45.5t5 40t6 21.5v2l4 6q-2 -4 -19 -35t-46 -65t-66 -56q-24 -15 -49 -14q-13 0 -26 4q-42 12 -52 49q-7 25 -7 52q0 13 2 27zM21 58.5q-2 -31.5 16 -29.5q23 2 56.5 43t67.5 95t62.5 108.5t38.5 82.5q10 23 7 33t-11 15 q-8 4 -22 0q-12 -2 -27 -11q-12 -8 -29.5 -22.5t-38.5 -42.5q-31 -43 -58.5 -95.5t-43.5 -98.5t-18 -77.5z" />
<glyph unicode="b" horiz-adv-x="438" d="M-30 118q-2 14 -2 30q0 56 20 136q24 104 108 265q41 80 75 137t62.5 96t51 61.5t39.5 33.5q21 14 38 14q14 0 25 -10q8 -8 14 -27q4 -16 3 -40.5t-13 -65.5q-14 -49 -50 -119t-80 -142.5t-90 -140t-83 -115.5q-31 -84 -40 -143q-2 -14 -3 -25q0 -37 23 -47 q20 -8 39.5 -8t39.5 8q35 14 76 61.5t76 158.5q-4 -2 -8 -4.5t-15 1.5q-14 2 -21 27t3 55q2 6 8 13q8 14 23 16q10 0 19 -8t14 -39q2 -12 0 -31q29 8 61.5 29.5t56.5 42.5q18 12 35 29q2 0 2 2h2q12 12 19 16q2 0 4 2q2 0 3 1t5 -1q2 0 4 -2t-2 -6l-4 -4l-10 -10 q-66 -59 -111 -84t-68 -33q-2 -8 -4 -15.5t-4 -17.5q-8 -25 -26.5 -70t-50 -85t-76.5 -62q-23 -12 -51 -12q-26 0 -56 10q-20 6 -47 33t-34 89zM111 295q35 47 84 117.5t96 158.5q43 76 63.5 123t27.5 75t5 39t-4 11q-4 2 -34 -47t-71.5 -126t-87 -170t-79.5 -181z" />
<glyph unicode="c" horiz-adv-x="423" d="M-51 148.5q2 29.5 6 46.5q16 74 48 125t69 82.5t73.5 47t65.5 17.5q29 0 45 -11.5t25 -27.5q8 -18 8 -39q2 -23 -5.5 -36t-17.5 -23v-2q-2 0 -2 -1t-2 -1l-4 -4q-10 -8 -17.5 -11.5t-9.5 -3.5q-18 -8 -28 -4q-6 2 -10 6q-8 8 -3 14.5t13 10.5t22 6q12 4 21 20q4 8 4 19 q2 10 -2 18q-2 4 -2 6q-8 8 -21 7q-29 -4 -57.5 -42t-73.5 -132q-32 -68 -32 -115q0 -49 14 -76v-4l6 -6q8 -12 14 -17q25 -16 54 -14q8 2 16 3t16 5q20 6 25 11h2q18 10 38.5 26.5t37 33.5t27 29.5t12.5 14.5v2q10 6 18 21q4 4 8 12q4 2 4 4t2 2q2 2 2 4q39 55 64 98 q0 2 2 4t10 2q2 -2 4 -2q2 -2 2 -6q-8 -14 -18 -28t-21.5 -30.5t-27.5 -39.5q-2 -4 -6.5 -11t-14.5 -18l-16 -20q-37 -49 -66.5 -75t-52.5 -36q-29 -16 -58.5 -19t-56 0t-44.5 8l-17 5q-41 12 -59.5 37t-26.5 49q-8 29 -6 58.5z" />
<glyph unicode="d" horiz-adv-x="536" d="M-66 134q6 42 19.5 80t19.5 54q33 63 74 111q35 41 85 71q37 22 80 22q15 0 30 -3q12 0 22 -6q10 -4 19.5 -12.5t15.5 -22.5q23 57 61 131q41 80 76 137.5t63.5 95t51 60t39.5 33.5q21 14 38 14q14 0 25 -10q8 -8 15 -25q4 -14 3 -39.5t-14 -66.5q-16 -51 -51 -121 t-80 -142.5t-91 -140t-83 -114.5l-6 -7q-20 -47 -39.5 -92t-30.5 -73v-2v-3q-8 -25 -2 -34q8 -8 11 -9q0 -2 6 -2q20 2 44.5 19.5t46 38t37 38t17.5 19.5q4 6 8.5 11.5t8.5 9.5q8 8 10 12l4 8l2 2q20 27 35.5 52.5t30.5 47.5l2 3q4 4 8 4q2 0 4 -2q4 -4 2 -7q-8 -12 -19 -28 q-10 -14 -21 -31.5t-26 -40.5q-4 -4 -22 -29q-4 -4 -7 -9t-7 -11q-31 -39 -55.5 -62.5t-45 -36t-34 -17.5t-19.5 -5q-20 -4 -36.5 -1t-27.5 7q-6 4 -14 8l-2 2q-20 14 -27.5 37t-6.5 45.5t5 40t7 21.5h2l2 6q-2 -4 -19.5 -35t-46.5 -65t-65 -56q-24 -15 -49 -14q-13 0 -27 4 q-42 14 -52 51q-7 24 -6 51q0 14 2 28zM31 57.5q-2 -30.5 16 -28.5q27 4 61.5 46t67.5 95t59.5 107.5t36.5 82.5h2q0 5 2 7q12 37 -8 41q-8 2 -22 -2q-12 -2 -27 -11q-12 -8 -29.5 -22.5t-37.5 -42.5q-31 -43 -58.5 -96.5t-44 -99.5t-18.5 -76.5zM377 303q2 2 2 3t2 3 q12 16 24.5 34.5t28.5 39.5q4 6 9.5 13t9.5 14q25 37 51 79.5t53 90.5q41 76 61.5 124t27.5 75.5t5 37.5t-4 12q-4 2 -24.5 -30.5t-51 -88t-66.5 -126t-69 -144.5q-16 -35 -31.5 -68.5t-27.5 -68.5z" />
<glyph unicode="e" horiz-adv-x="423" d="M-51 90q-4 29 0 58.5t8 46.5q20 74 55 125t74 82.5t77 47t66 17.5q29 0 45.5 -11.5t22.5 -27.5q8 -18 6 -39q0 -12 -4 -18v-2v-2q0 -2 -1 -3.5t-1 -3.5q-4 -12 -16.5 -32.5t-38 -46t-66.5 -52t-104 -49.5q-18 -47 -19.5 -80.5t6.5 -54.5q2 -2 2 -4q2 -2 2 -6q4 -4 7.5 -8 t7.5 -9q27 -16 51 -14q10 2 18.5 3t16.5 5q23 6 26 11q20 10 42 26.5t40.5 33.5t30.5 29.5t14 14.5v2q8 8 17 21q8 8 10 12q6 6 8 6q0 2 2 4h2q18 27 37 51.5t35 46.5q0 2 2 4t8 2q2 -2 4 -2q2 -2 0 -6q-8 -14 -18 -28t-24.5 -30.5t-30.5 -39.5q-4 -4 -9.5 -11t-15.5 -18 q-4 -4 -7 -9t-9 -11q-41 -49 -74 -75t-53 -36q-29 -16 -60.5 -19t-57.5 0t-43.5 8t-19.5 5q-35 12 -51 37t-20 49zM78 199q35 14 79 38.5t72 65.5l2 2q6 8 16.5 26.5t14.5 41.5q2 2 2 8q0 12 -4 16q2 4 0 6q-4 10 -20 7q-29 -4 -60 -42t-84 -132q-4 -10 -9 -18.5t-9 -18.5z " />
<glyph unicode="f" horiz-adv-x="405" d="M-116 -90q10 72 32.5 152.5t47 149.5t44 115t21.5 50q16 37 34.5 80t42.5 90q41 80 75 136t62.5 95t51 61.5t39.5 32.5q22 14 39 14q13 0 24 -9q8 -8 15 -25q4 -16 3 -42t-14 -67q-16 -49 -51 -118.5t-79 -142t-90 -140.5t-83 -115l-2 -2q-14 -41 -33.5 -96t-37.5 -115 q-16 -49 -28.5 -95t-19 -83t-4.5 -60.5t17 -27.5q6 -2 14 -2q6 0 15.5 2t19.5 10q49 41 81 105.5t52 134.5l6 25q20 76 27.5 130t11.5 70q-2 0 -2 -2q-6 -4 -20 2t-16.5 31t14.5 53q4 6 10 12q10 10 24 11q10 0 19.5 -11.5t5.5 -39.5q-2 -8 -3 -15.5t-5 -17.5 q31 4 67.5 18.5t65.5 28.5q10 4 19.5 9t19.5 11q2 2 4 2q4 4 10 6.5t10 6.5q2 2 4 2q6 0 9 -2l4 -4q4 -4 -2 -7q-2 0 -4 -2q-8 -4 -15 -6q-76 -45 -124 -60.5t-72 -17.5q-10 -41 -16.5 -87t-20.5 -103q-2 -8 -4 -15.5t-4 -15.5q-18 -61 -43 -119.5t-57 -101.5t-69 -63 q-23 -13 -48 -13q-17 0 -35 6q-45 14 -57 67q-6 28 -6 63q0 28 4 61zM121 291q35 47 84 117.5t96 158.5q43 76 63.5 124t27.5 76t5 38t-4 12q-6 2 -35.5 -47t-70.5 -127t-86 -171t-80 -181z" />
<glyph unicode="g" horiz-adv-x="540" d="M-474 -316q13 70 72.5 130.5t170.5 76.5q31 6 69 9q23 1 53 1h32q50 -1 116 -7q16 -2 27.5 -2.5t29.5 -4.5q10 20 24.5 58.5t29 79.5t27.5 77.5t20 55.5q-10 -16 -30 -47t-46.5 -58.5t-58.5 -44.5q-20 -11 -40 -11q-14 0 -28 5q-41 12 -50 49q-7 23 -7 49q0 15 3 30 q5 42 19 80t21 54q33 63 73 111q18 20 39 38.5t45.5 32t51 19.5t57.5 2q16 0 28 -8q10 -6 20.5 -17.5t14.5 -29.5q10 16 33 30.5t57 10.5q25 -2 37.5 -11.5t17.5 -19.5t5 -20.5v-12.5q0 -4 -2 -6q-4 -6 -11 -6q-12 0 -8 16q2 4 -3 7t-11 -11q-29 -55 -51 -108 q-23 -47 -43.5 -97.5t-36.5 -89.5q-4 -10 -7 -19t-7 -20q-6 -18 2 -28q2 -4 4 -6.5t4 -4.5h6q20 2 46 19.5t47.5 38t35.5 37t16 18.5v2q6 4 10.5 10t8.5 11q4 4 8 12l6 6q0 2 2 4q39 55 64 98q0 2 2 4q4 4 10 5q2 0 4 -2t2 -9q-8 -14 -18 -28t-21.5 -30.5t-28.5 -39.5 q-2 -4 -6 -11t-14 -18q-4 -4 -8 -9t-8 -11q-29 -39 -54.5 -62.5t-46 -37t-34 -18.5t-19.5 -5q-10 -2 -20.5 -1t-20.5 3q-20 -57 -53 -131q47 -6 91 -8q13 -1 24 -1q29 0 53 4q33 5 52 18.5t19 41.5q-4 14 -6 25q-4 23 17 20q6 -2 12 -10q4 -8 8 -22.5t0 -36.5 q-2 -20 -17.5 -43t-51 -41.5t-94.5 -26.5q-29 -4 -65.5 -4t-80.5 4q-16 -29 -33.5 -58.5t-40.5 -58.5q-86 -117 -168 -163t-146 -56q-29 -4 -53 -4q-30 0 -53 7q-41 12 -43 12q-61 20 -89 82q-18 43 -18 89q0 21 4 43zM-461 -377v-16q0 -8 1 -18.5t5 -22.5q10 -20 34 -43 t67 -31q25 -4 56 -5h4q29 0 62 11q37 13 81.5 41.5t97.5 83.5q31 33 58.5 82t49.5 98q-102 12 -193 13h-5q-88 0 -155 -20q-69 -19 -112 -60t-51 -113zM36 56.5q-1 -31.5 17 -29.5q27 2 60.5 44t67.5 96t60.5 107.5t37.5 81.5q10 23 6 33t-13 14q-8 4 -22 0q-10 -2 -25 -10 q-12 -8 -29.5 -22.5t-37.5 -42.5q-33 -43 -60.5 -95.5t-44 -98.5t-17.5 -77.5z" />
<glyph unicode="h" horiz-adv-x="538" d="M-84 80.5q0 17.5 3 33t7 25.5q8 27 21.5 62t28 70.5t29.5 70.5t28 64q12 35 28.5 71.5t38.5 77.5q41 80 76 137.5t63.5 96t51 61t39.5 33.5q21 14 38 14q14 0 25 -10q8 -8 15 -27q4 -16 3 -40.5t-14 -65.5q-14 -47 -44.5 -109.5t-70.5 -129t-84 -131.5t-81 -114 q-8 -12 -17 -22q-6 -10 -14 -18.5t-12 -14.5q-6 -14 -11.5 -28.5t-11.5 -26.5q25 37 59.5 85t72.5 93t74 80t65 45q4 2 21 6t40 -8q12 -8 17.5 -21.5t5.5 -27t-2.5 -24.5t-2.5 -13q-4 -23 -20 -63t-33 -81q-20 -47 -43 -100q-10 -20 -16 -36.5t-10 -31.5l-3 -2v-2 q-8 -20 0 -34q2 -4 4.5 -5.5t4.5 -3.5h6q20 2 45.5 18.5t47.5 37t36 38t16 19.5v2q6 4 10.5 10t8.5 11q4 4 8 12l6 6q0 2 2 4q18 27 34.5 51.5t29.5 46.5q0 2 2 4t10 3q2 -2 4 -3q2 -2 2 -6q-8 -12 -18 -28q-10 -14 -21.5 -31.5t-28.5 -40.5q-2 -4 -20 -29q-4 -4 -8 -9 t-8 -9q-29 -39 -54.5 -62.5t-46 -37t-34 -18.5t-19.5 -5q-20 -4 -36.5 0t-27.5 8q-4 2 -7 3t-7 5h-2q-16 12 -23.5 31t-8.5 37t1 35.5t6 27.5q8 33 24.5 75t34 82t31 68.5t17.5 35.5q2 10 0 10h-6q-20 -6 -60.5 -52.5t-82.5 -103.5t-77.5 -109.5t-50.5 -72.5q-2 -6 -6 -14 v-3q-4 -12 -6 -14l-2 -4v-4q-4 -10 0 -12h4q2 0 2 2l2 2q8 12 17 4q2 -2 2 -10q-2 -2 -2 -4l-4 -5q-10 -8 -36 -17t-54 13q0 2 -1.5 2t-1.5 2q-12 12 -15 28.5t-3 34zM104 285q8 12 13 16q35 47 83 117.5t97 159.5q41 76 61.5 124t27.5 75.5t5 37.5t-4 10q-4 2 -19.5 -22.5 t-39 -65.5t-53 -97t-60.5 -118v-2q-33 -63 -60.5 -122.5t-50.5 -112.5z" />
<glyph unicode="i" horiz-adv-x="284" d="M-71 86q-1 18 1 35.5t7 28.5q4 16 8 24q10 25 28 78h2q0 4 2.5 7t2.5 7q10 23 18 40.5t14 33.5q8 25 19 43q4 6 5 12t3 11l2 2q2 6 6 14q2 2 2 4t2 4v10q-4 2 -8 -2q-12 -12 -18 -4q-8 4 -2 10l4 5l4 4q8 6 31.5 14t48.5 0q8 -2 22 -12l2 -2q12 -14 14.5 -32t1.5 -34 t-6.5 -31.5t-7.5 -23.5q-4 -12 -8 -19q-2 -4 -3 -7t-3 -7q-4 -6 -5 -12t-5 -11q-4 -8 -6.5 -14t-4.5 -10q-18 -45 -34 -82q-8 -20 -17 -37q-8 -20 -15 -36.5t-11 -30.5v-3q-2 0 -2 -2q-8 -20 0 -34q2 -4 10 -9h2h4q20 2 45 18.5t46.5 37t36.5 38t17 19.5q12 16 17 23 q4 4 5 6t5 6t4 6q2 2 2 4q18 27 34.5 51.5t29.5 46.5q0 2 2 5q2 2 10 2q2 -2 4 -2q4 -4 2 -7q-8 -12 -18 -28q-10 -14 -21.5 -31.5t-28.5 -40.5q-2 -4 -20 -29q-4 -4 -8 -9t-8 -9q-29 -39 -54.5 -62.5t-45 -37t-33 -18.5t-19.5 -5q-20 -4 -36.5 0t-26.5 8q-9 2 -17 8 q-18 12 -25.5 31t-8.5 37zM118 543q0 5 -1 10q0 31 14 63q16 39 45 58.5t51 9.5q23 -10 26 -44v-11q0 -29 -13 -62q-16 -39 -45 -59t-52 -10t-25 45z" />
<glyph unicode="j" horiz-adv-x="276" d="M-732 -318q13 70 71.5 130.5t168.5 78.5q31 6 72 9q23 1 53 1h32q50 -1 116 -10q16 -2 27.5 -2t29.5 -2q8 16 19.5 46t24 64t23.5 68.5t19 59.5q4 10 9.5 22.5t9.5 24.5q10 31 20 58.5t14 37.5q10 18 17.5 36t13.5 32q8 27 19 43q6 14 8 24q2 0 2 3l6 12q2 4 2 6l2 2 q0 4 1 7t-1 5q-4 2 -8 -2q-10 -12 -19 -6q-4 4 -2 10q2 2 5 6l4 3q8 6 31.5 15t47.5 1q8 -2 23 -12q0 -2 1 -2t1 -2q12 -12 14 -30t1 -35t-6 -32.5t-7 -23.5q-2 -4 -3 -8.5t-5 -8.5q-2 -4 -3 -8t-3 -8q-4 -4 -5 -10t-5 -11q-4 -8 -6.5 -14t-4.5 -12q-8 -16 -10 -27 q-8 -16 -27.5 -67.5t-46.5 -116.5l4 -12q4 -8 11 -9q0 -2 6 -2q20 2 44.5 19.5t46 38t37 38t17.5 19.5q4 6 8.5 11t8.5 10q4 4 5 6t5 6l4 8l2 2q18 27 34.5 52.5t28.5 47.5l3 2q4 4 10 5q2 0 4 -3q4 -4 2 -6q-8 -12 -19 -28q-10 -14 -21 -31.5t-28 -40.5q-2 -4 -20 -29 q-4 -4 -8 -9t-9 -11q-29 -39 -54 -62.5t-44.5 -36t-33 -17.5t-19.5 -5q-20 -2 -39 0q-14 -35 -27.5 -67.5t-25.5 -61.5q47 -6 91 -9q16 -1 31 -1q25 0 45 3q33 5 52.5 19.5t19.5 42.5q-4 12 -6 23q-2 8 1 15t16 5q6 -2 12 -10q4 -8 8 -21.5t0 -35.5q-2 -20 -17.5 -44 t-51 -41.5t-94.5 -26.5q-27 -4 -62 -4q-38 0 -84 5q-16 -29 -34.5 -58.5t-39.5 -58.5q-86 -117 -169 -164t-147 -57q-29 -4 -53 -4q-30 0 -52 7q-40 12 -42 12q-61 20 -89 82q-18 43 -18 89q0 21 4 43zM-719 -379v-16q0 -8 1 -18.5t5 -22.5q8 -20 33 -43t68 -29q25 -4 56 -5 h4q29 0 62 11q37 13 81.5 41.5t97.5 83.5q31 31 58.5 80t49.5 98q-102 12 -193 13h-5q-88 0 -155 -20q-69 -19 -112 -60t-51 -113zM114 540q-1 4 -1 9q0 29 14 63q16 39 45 59.5t51 10.5q23 -10 26 -44v-11q0 -29 -13 -64q-16 -39 -45 -58t-52 -9t-25 44z" />
<glyph unicode="k" horiz-adv-x="532" d="M-87 79.5q1 16.5 4 32t5 25.5q8 27 21.5 61.5t29 70.5t29.5 71t27 66q14 33 30.5 70.5t38.5 78.5q41 80 75 136.5t62.5 95t51 61t39.5 33.5q21 14 38 14q14 0 25 -10q8 -8 14 -25q4 -16 3.5 -41.5t-13.5 -66.5q-14 -47 -45 -109.5t-70.5 -129.5t-82.5 -131.5t-80 -113.5 q-8 -10 -17 -20q-8 -10 -15 -19.5t-11 -13.5q-6 -16 -12.5 -29.5t-10.5 -27.5q25 37 59.5 85t71.5 93t73 80t64 45q4 2 22.5 6t39.5 -8q16 -10 21.5 -23.5t5.5 -29.5q0 -10 -2.5 -19.5t-2.5 -13.5h-2q0 -8 -2 -13l-6 -18q-16 -43 -44 -71.5t-54.5 -47t-46.5 -27.5l-21 -8 l-2 -2v-2q12 -98 29.5 -131t28.5 -37q2 -2 6 -2h2q20 2 44.5 19.5t46 38t37 38t17.5 19.5q8 8 17 21q4 4 5 6t5 6t4 8q2 0 2 2q35 51 65 100l3 2q4 4 8 5q2 0 4 -3q4 -4 2 -8q-8 -14 -19 -28q-10 -14 -21 -30.5t-26 -39.5q-4 -4 -22 -29q-4 -4 -8 -9t-9 -11 q-59 -78 -99 -99.5t-52 -23.5h-17q-16 0 -24 2q-35 6 -58.5 30.5t-37 54.5t-20.5 59.5t-9 48.5q-2 16 9 28t22 21l4 4q45 39 71.5 67.5t38.5 48.5q16 23 19.5 35.5t3.5 14.5v2q0 4 -4 4q-2 0 -2 -2q-14 -4 -37 -27.5t-50.5 -56.5t-56 -72t-54 -74.5t-46 -65.5t-29.5 -42 q-4 -12 -4 -15l-2 -2l-6 -18q0 -2 -1 -2t-1 -2v-10q2 -4 8 2q8 14 19 4q4 -8 2 -10l-4 -5l-4 -4q-8 -6 -34 -16t-55 14q-2 0 -4 2q-12 12 -15 29.5t-2 34zM100 283q12 12 13 16q35 47 84 117.5t96 158.5q43 76 63.5 124.5t27.5 76t5 37.5t-4 12q-4 0 -20.5 -23.5t-40 -65.5 t-52 -98t-59.5 -118l-2 -2q-33 -63 -60.5 -122.5t-50.5 -112.5z" />
<glyph unicode="l" horiz-adv-x="274" d="M-60 102.5q3 32.5 12 71.5t23.5 81t30.5 83l4 8l4 8v2q0 4 2 6q31 78 58.5 137.5t38.5 75.5q78 152 132 219.5t87 88.5q19 12 35 12q14 0 26 -10q8 -8 15 -27q4 -16 3 -40.5t-14 -65.5q-16 -49 -51 -119t-80 -142.5t-91 -140t-83 -114.5q-4 -4 -6 -9q-20 -47 -39.5 -92 t-30.5 -74v-2v-2q-4 -12 -4 -20t2 -12q4 -8 11 -11h6q20 2 44.5 19.5t46 37t37 37t17.5 19.5v2q8 8 17 21q8 8 10 12l2 4q0 2 2 2q2 2 2 4q20 27 35.5 51.5t29.5 46.5q0 2 2 4t9 2q2 -2 4 -2q4 -4 2 -6q-10 -12 -19 -28q-10 -14 -20 -32t-27 -40q-2 0 -22 -29q-2 -2 -15 -18 q-59 -78 -100 -99.5t-53 -23.5q-18 -4 -33.5 -1t-26.5 7q-18 8 -24 21.5t-10 19.5q-4 25 -1 57.5zM117 299q2 2 2 3t2 3q12 16 24.5 33.5t28.5 40.5q4 6 9 12t10 15q25 37 51 79.5t53 89.5q41 76 61.5 124.5t27.5 76t5 37.5t-4 12q-4 0 -24.5 -32.5t-51 -87t-66.5 -125 t-69 -144.5q-35 -74 -59 -137z" />
<glyph unicode="m" horiz-adv-x="673" d="M-93 77.5q1 16.5 5 32t8 25.5q10 25 19.5 47.5t25.5 65.5q2 4 3 7t3 7q33 80 49 117q4 6 5.5 12t5.5 10v2q2 6 6 15q2 2 2 4t2 4q0 4 2 7t-2 5q-2 2 -4 0t-4 -2v-2q-8 -14 -19 -4q-8 4 -2 10l4 4l4 5q10 8 42 17q9 2 17 2q23 0 44 -17l2 -2q16 -18 16 -44t-4 -47 q33 37 64.5 65t56.5 38q4 2 21.5 6t39.5 -8q12 -8 17.5 -21.5t5.5 -27t-2 -24.5t-2 -13q0 -4 -2 -10.5t-4 -12.5q35 41 67.5 71t59.5 40q4 2 22.5 6t38.5 -8q14 -8 19.5 -21.5t5.5 -27t-2 -24.5t-2 -13q-6 -23 -22.5 -63t-33.5 -81q-20 -47 -43 -100q-8 -20 -15 -36.5 t-11 -31.5v-2v-2q-8 -23 -2 -32q4 -8 10 -11h6q20 2 45 19.5t46.5 37t36.5 37t17 19.5v2q8 8 17 21q8 8 10 12l2 4q0 2 2 2q2 2 2 4q20 27 35.5 51.5t30.5 46.5q0 2 2 4q4 5 8 5q2 0 4 -3q4 -4 2 -8q-8 -14 -18 -28t-21.5 -30.5t-25.5 -39.5q-4 -4 -8.5 -11t-14.5 -18 q-4 -4 -7 -9t-7 -11q-59 -78 -100.5 -99.5t-53.5 -23.5q-20 -4 -36.5 0t-26.5 8q-4 2 -7.5 4t-7.5 4h-2q-18 12 -25 30.5t-8.5 37t2 36l5.5 27.5q8 33 25.5 75t33.5 82t30.5 68.5t16.5 35.5q4 10 0 10h-4q-18 -6 -50 -40t-69 -79q-8 -23 -17 -45.5t-18 -42.5q-2 -2 -2 -4 q-18 -41 -32.5 -71t-22.5 -50q-8 -16 -10 -23q-2 0 -2 -2q-4 -12 -6 -14l-1 -4v-4q-4 -8 -3 -10q2 -4 8 2l4 4q6 6 14 0q4 -8 2 -10l-4 -5l-2 -2h-2q-6 -8 -29 -16q-14 -4 -29.5 -3t-31.5 15q-2 0 -2 1t-2 1q-10 12 -13.5 29.5t-2 34t5.5 32t8 25.5q4 12 8 23.5t8 23.5 q12 33 27.5 71t30 69.5t25.5 55t13 28.5q2 10 0 10h-6q-16 -6 -44.5 -37t-63.5 -72q-10 -23 -21.5 -47t-21.5 -49l-4 -8v2q-18 -41 -32.5 -71t-23.5 -50q-4 -6 -5 -12t-5 -11v-2q-4 -4 -4 -8t-2 -6l-2 -4q0 -2 -1 -2t-1 -2q-4 -8 0 -10q2 -4 8 2q8 14 19 4q4 -8 2 -10l-5 -5 q-2 0 -2 -1t-2 -1q-10 -8 -36.5 -17t-55.5 13l-2 2q-10 12 -13 29.5t-2 34z" />
<glyph unicode="n" horiz-adv-x="536" d="M-89 78.5q1 17.5 5 33t8 25.5q10 23 19.5 45.5t25.5 65.5q2 4 3 7t3 7q33 80 50 117q4 6 5 12t5 10v2q2 6 6 15q2 2 2 4t2 4q4 10 0 12t-8 -2v-2q-4 -4 -8 -6t-9 2q-6 6 -4 10q0 2 4 6q2 0 5 3q9 8 41 17q9 3 19 3q22 0 42 -16q2 -2 2 -4q12 -14 14 -32t1 -34t-6 -31.5 t-7 -23.5q-10 -25 -23.5 -54.5t-27.5 -62.5q-2 -2 -2 -3t-2 -3q-2 -12 -10 -23q27 37 60.5 81t69 85t69.5 72t61 41q4 2 21.5 6t39.5 -8q12 -8 17.5 -20.5t6.5 -26t-1 -24.5t-4 -15q-4 -23 -20.5 -63t-33.5 -81q-20 -47 -43 -100q-8 -18 -15 -35.5t-11 -30.5v-4h-2 q-8 -23 0 -34q2 -6 10 -11h6q20 2 45 19.5t46.5 38t36.5 38t17 19.5q8 8 17 21q4 4 5 6t5 6t4 8q2 0 2 2q18 27 34.5 52.5t29.5 47.5l2 2q4 5 10 5q2 0 4 -3q4 -4 2 -6q-8 -12 -18 -28q-10 -14 -21.5 -31.5t-28.5 -40.5q-2 -4 -20 -29q-4 -4 -8 -9t-8 -11 q-29 -39 -54.5 -62.5t-45 -36t-33 -17.5t-19.5 -5q-20 -4 -36.5 -1t-26.5 7q-4 2 -8.5 4t-8.5 4v2q-18 12 -25.5 29.5t-8.5 36t1 36t7 27.5q8 33 25.5 76t33.5 82t30.5 67.5t16.5 35.5q2 10 0 10h-4q-23 -6 -63.5 -53.5t-85 -103.5t-81 -108.5t-49.5 -68.5q-2 -6 -4 -11 l-4 -10v-2q-4 -4 -4 -6t-2 -6t-2 -6l-2 -4q0 -2 -2 -5t2 -5q2 -4 8 2q6 14 19 6q4 -10 2 -12q-2 -4 -4 -5q-2 0 -2 -1t-3 -1q-10 -8 -36.5 -17t-55.5 13q0 2 -1 2t-1 2q-10 12 -13 28.5t-2 34z" />
<glyph unicode="o" horiz-adv-x="432" d="M-72 151.5q4 30.5 9 47.5q20 72 53 123t70.5 83.5t75.5 48t67 15.5h7q38 1 50 -21q14 -24 14 -42q4 -18 -4.5 -31t-25.5 -8q-2 0 -6 4q-6 4 -6.5 10t1.5 10q0 2 1.5 3t1.5 3v2v2q0 2 -3 5q-6 8 -20 6t-32.5 -17.5t-38 -40t-37 -54.5t-29.5 -58q-29 -70 -34 -119 q-2 -16 -2 -30q0 -28 7 -46q0 -2 2 -2q0 -4 4 -8q2 -8 13 -14q8 -8 30 -9q18 2 42 11.5t48.5 34t51 68.5t51.5 112q-4 -4 -21 -2q-16 4 -22 27.5t6 56.5q2 6 8 12q8 12 23 14q10 2 20 -7t12 -38v-15t-2 -18q29 10 63 32t60 40q10 8 18.5 14t18.5 15l2 2q4 4 10.5 9t10.5 9 q0 2 2 2h10q2 0 4 -2q2 -4 -2 -8l-4 -4q-2 -2 -4 -3t-6 -5q-70 -59 -116 -84t-71 -33q-2 -8 -4 -16.5t-6 -18.5q-6 -20 -21.5 -55t-39 -69t-56 -62.5t-76.5 -36.5h-2h-4q-6 -2 -22 -2h-4q-35 0 -59.5 11t-30.5 15h-2q-23 16 -34 35t-18 37q-6 29 -2 59.5z" />
<glyph unicode="p" horiz-adv-x="538" d="M-234.5 -282.5q1.5 16.5 5.5 31.5t8 26q4 12 25.5 63t46 112.5t47 118t30.5 78.5q2 4 4 7.5t2 7.5q8 18 23.5 52t30 67.5t26 61.5t15.5 36t5 14t5 10v3l6 12q2 4 2 6t1 2t1 2t2 5t-2 5t-8 -2q-8 -14 -18 -4q-8 4 -3 10l5 4q2 0 2 1.5t2 1.5q10 8 41 17q10 3 19 3 q21 0 42 -16q0 -2 2 -2q12 -14 14.5 -32t1 -35t-6.5 -32.5t-7 -23.5q-6 -14 -22.5 -50t-32.5 -77q27 37 59.5 79t65.5 78.5t64.5 64.5t56.5 38q4 2 21.5 7t39.5 -9q12 -8 17.5 -20.5t5.5 -26t-2 -24.5t-2 -15q-4 -23 -20.5 -63t-33.5 -81q-20 -47 -43 -100 q-10 -18 -16 -34.5t-10 -31.5l-2 -2v-2q-8 -23 0 -34q4 -8 8 -9q2 -2 8 -2q20 2 45 19.5t46.5 38t35.5 38t16 19.5q14 14 19 21l8 12q2 4 6 8l2 2q18 27 34.5 52.5t29.5 47.5q0 2 2 4q2 3 10 3q2 -2 4 -3q2 -2 2 -6q-8 -12 -18 -28q-10 -14 -21.5 -31.5t-28.5 -40.5 q-2 -4 -20 -29q-4 -6 -16 -18q-29 -41 -54.5 -64.5t-46 -36t-34 -17.5t-19.5 -5q-20 -4 -35.5 0t-25.5 8q-12 4 -17 8h-2h2q-18 12 -25.5 29.5t-8.5 36t1 36t7 29.5q8 33 24.5 75t33.5 81t30.5 68.5t17.5 36.5q4 10 0 10q-2 0 -6 -2q-18 -6 -53 -43t-73 -86t-75 -98.5 t-57 -79.5q0 -2 -1 -3.5t-1 -3.5q-6 -12 -20.5 -43.5t-33 -71.5t-38 -84t-37 -82t-29.5 -64.5t-14 -32.5t-4 -12.5t-4 -10.5l-2 -2q-4 -12 -7 -14l-2 -4v-5q-4 -10 -2 -12q4 -2 5 0t3 2v2q10 10 19 4q4 -8 2 -10l-4 -4l-4 -4q-10 -8 -29.5 -17.5t-48.5 15.5q-2 0 -2 1t-2 1 q-10 12 -13.5 29.5t-2 34z" />
<glyph unicode="q" horiz-adv-x="540" d="M-62 130q5 42 19 80t20 54q33 63 74 111q35 41 84 71q37 22 79 22q15 0 30 -3q16 -2 28 -8q10 -6 20.5 -16.5t14.5 -28.5q10 14 32.5 28.5t57.5 10.5q25 -2 37 -11.5t17.5 -19.5t5.5 -20.5v-12.5q0 -4 -2 -6q-4 -6 -9 -6q-14 0 -10 16q2 4 -3 8t-11 -12q-33 -68 -60 -129 q-23 -53 -46 -106.5t-35 -88.5q0 -2 -2 -2v-2q-8 -23 0 -34q4 -8 8 -9q2 -2 6 -2q20 2 46 19.5t47.5 38t35.5 38t16 19.5q6 6 10.5 11t8.5 10q4 4 8 12q2 4 6 8q0 2 2 2q18 27 34.5 52.5t29.5 47.5l2 2q4 5 10 5q2 0 4 -3q2 -2 2 -6q-8 -12 -18 -28q-10 -14 -21.5 -31.5 t-28.5 -40.5q-2 -4 -20 -29q-4 -6 -16 -18q-29 -41 -54.5 -64.5t-46 -36t-34 -17.5t-19.5 -5q-25 -6 -49 2q-18 -41 -38 -86t-38 -85t-31.5 -68.5t-15.5 -34.5q-4 -6 -5 -12.5t-5 -12.5q-4 -4 -4 -7t-2 -7l-3 -6l-2 -2q0 -4 -2 -7.5t2 -5.5t9 2v2q8 14 18 4q4 -10 2 -12 q-2 -4 -4 -4t-4 -2q-10 -8 -30.5 -17.5t-49.5 13.5q0 2 -1 2t-1 2q-10 12 -13 28.5t-2 34t5 33t8 25.5q4 12 25.5 63.5t46 112.5t47 117.5t30.5 77.5v2q-10 -18 -29.5 -48t-46 -57t-58.5 -42q-18 -9 -38 -9q-13 0 -26 4q-41 14 -50 51q-7 23 -7 49q0 15 3 30zM34 55.5 q-1 -30.5 17 -30.5q27 2 60.5 44t67.5 96t60.5 108.5t36.5 82.5q10 23 6.5 33t-12.5 14q-8 4 -22 0q-10 -4 -25 -12q-12 -8 -29.5 -22.5t-37.5 -42.5q-33 -43 -60.5 -95.5t-44 -98.5t-17.5 -76.5z" />
<glyph unicode="r" horiz-adv-x="428" d="M-43 195q-6 4 0 10l4 4q23 37 49.5 73.5t42.5 77.5q2 4 8.5 18.5t16.5 37.5q-8 4 -15.5 15t-7.5 32q4 35 23.5 71.5t46.5 51.5q25 12 39 7t18 -22q4 -14 0 -36.5t-13 -45t-24.5 -43t-33.5 -30.5q16 8 34 16q16 6 33 13.5t29 13.5l2 2q2 0 3 1t3 1q4 2 27.5 7t44.5 -7 q14 -8 19 -21.5t5 -27t-2 -24.5t-2 -13q-6 -23 -23.5 -64t-35.5 -82q-23 -49 -49 -100q-10 -23 -15.5 -35t-11.5 -28l-2 -5v-4q-8 -20 0 -32q2 -4 4 -6.5t4 -4.5h6q20 2 46 19.5t47.5 38t36 38t16.5 19.5q6 4 10 10t8 11q4 4 8 12q2 2 3 4t3 4q2 0 3 2q18 27 34.5 52.5 t28.5 47.5l2 2q4 5 10 5q2 0 4 -2t2 -9q-8 -14 -18 -28t-21.5 -30.5t-27.5 -39.5q-2 -4 -21 -29q-4 -4 -8 -9t-8 -11q-59 -78 -100 -99.5t-54 -23.5q-20 -4 -36.5 0t-26.5 8q-4 2 -7 4t-7 4l-2 2q-16 12 -23.5 30t-8.5 36t1 35.5t6 27.5q10 29 28.5 70t39.5 78q23 43 51 88 q10 16 12 27q2 10 -3 15t-26 1q-8 -2 -16 -7t-25 -9q-29 -10 -59 -17q-4 -10 -10 -20.5t-10 -20.5q-18 -35 -29.5 -55.5t-28.5 -42.5q-18 -29 -31 -43q-8 -8 -12 -14q-2 -4 -6 -4q-2 0 -2 2z" />
<glyph unicode="s" horiz-adv-x="262" d="M-119 80q0 35 14.5 65.5t32.5 53.5q23 27 49 51q6 8 13.5 14t15.5 12q0 20 -2 47t-3 52.5t1 51.5t12 46l4 11q5 12 17 27t32.5 27.5t51.5 12.5q18 0 31.5 -8t20.5 -19.5t10 -21.5t3 -15q0 -23 -20 -24q-20 0 -21 12q0 2 1 3t1 3q0 12 -6 14.5t-10 2.5h-2q-2 0 -3 1t-3 1 q-6 0 -15.5 -9.5t-9.5 -39.5q0 -16 4.5 -43t16.5 -68q6 -29 11 -65.5t5 -77.5q0 -119 -44 -165t-103 -46q-57 0 -81 27.5t-24 66.5zM-98 90q0 -37 16 -47t25 -10q10 0 22.5 11t26.5 52q10 27 12 69t2 89q-72 -59 -88 -97t-16 -67z" />
<glyph unicode="t" horiz-adv-x="268" d="M-104 621q2 16 26.5 37.5t97.5 21.5h11h123q18 41 33.5 76t19.5 45q4 6 5 12t3 10l2 2q2 6 6 15q2 2 2 4q0 4 2 4q0 4 1 7t-1 5q-4 2 -8 -2v-2q-12 -12 -18 -4q-4 4 -2 10q2 2 4 6l4 2q10 8 42 18q9 3 18 2q22 0 42 -16q0 -2 1 -2t1 -2q12 -14 14.5 -31.5t1.5 -34 t-6.5 -31.5t-7.5 -23q-4 -10 -12 -29t-18 -43q68 0 141.5 6t139 24.5t117.5 52.5t75 91q10 29 12 55q2 23 -6 45.5t-35 34.5q-10 4 -34.5 11.5t-56.5 1t-71 -32t-78 -84.5l-2 -4q-23 -39 -28.5 -49.5t-1.5 -18.5q0 -12 10 -12q4 -2 8 0q4 10 12 8q4 -2 8.5 -11.5 t-12.5 -17.5q-12 -8 -23.5 -5t-17.5 7l-2 2q-2 0 -2 2l-4 4q-4 2 -10 9.5t-9 22t0 37t21 56.5q35 68 84 91.5t95 23.5t81 -11t43 -16q12 -6 28.5 -19t30 -33.5t20.5 -47.5t1 -59q-16 -98 -102 -147.5t-221 -55.5q-55 -4 -115 -4t-117 2q-16 -35 -29.5 -65.5t-19.5 -47.5 q-2 -2 -2 -3t-2 -3q-6 -10 -17.5 -34.5t-25.5 -56.5t-30.5 -68.5t-31.5 -71.5q-10 -29 -22 -56.5t-23 -50.5q-12 -27 -22 -51q-8 -20 -15.5 -36.5t-11.5 -31.5v-2l-2 -2q-6 -23 0 -34q2 -4 10 -9q0 -2 2 -2h5q20 2 44.5 19.5t46 38t37 38t17.5 19.5q12 16 16 23q4 4 5.5 6 t5.5 6t4 6q2 2 2 4q18 27 34.5 51.5t30.5 46.5q0 2 2 4t9 2q2 -2 4 -2q4 -4 2 -6q-8 -12 -19 -28q-10 -14 -21.5 -32t-25.5 -40q-4 -4 -22 -29q-4 -4 -8.5 -9t-8.5 -9q-29 -39 -54.5 -62.5t-45 -37t-32.5 -18.5t-19 -5q-27 -4 -43 2h-2h-2q-2 0 -2 2h-3q-41 12 -47 50 q-3 19 -3 35.5t3 31.5q2 14 6.5 28.5t8.5 22.5q12 29 26.5 65.5t30.5 75.5t31.5 79t29.5 75q16 35 26.5 60.5t14.5 35.5q0 4 2.5 8t4.5 9q4 10 11 26.5t15 36.5q-23 0 -45 1t-41 3q-25 2 -50.5 3t-47 -2t-33.5 -11t-12 -23l4 -8q0 -8 -6 -8q-4 0 -6 4t-3 7t-1 14z" />
<glyph unicode="u" horiz-adv-x="550" d="M-72 96.5q2 22.5 6 42.5q4 16 12.5 36t12.5 30t8 20.5t8 22.5q2 4 3.5 8t3.5 6q18 41 29.5 69.5t19.5 47.5q8 16 10 24h2q2 6 6 15q2 4 2 6v2q4 10 2 12q-4 2 -8 -2l-2 -2q-8 -12 -16 -4q-4 4 -2 10q2 2 4 6l2 3q6 4 17 9t25.5 8t30 1t29.5 -14l4 -4q12 -12 14.5 -30 t1.5 -35t-6.5 -32.5t-7.5 -23.5q-10 -25 -23.5 -54.5t-29.5 -62.5q0 -2 -1 -3t-1 -3q-33 -63 -47 -101q-6 -14 -10 -29.5t4 -27.5q8 -14 22.5 -8t22.5 12q4 4 10 7t12 10q25 23 56.5 60.5t66.5 80.5q6 18 13.5 36.5t15.5 37.5l41 86q8 14 15 28.5t13 24.5h3l6 12 q6 8 12 12.5t8 6.5q16 10 33 12q6 4 20 0q8 0 16.5 -3t14.5 -10.5t8 -18.5t-6 -30l-6 -12v-2q-4 -8 -20.5 -46t-30.5 -71q-6 -16 -12 -24q-18 -45 -35 -82q-8 -20 -17 -37q-16 -41 -24 -68q-2 0 -2 -2v-2q-8 -20 0 -34q2 -4 4 -5.5t4 -3.5q2 0 3 -1t3 -1q20 2 46 19.5 t47.5 38t35.5 38t16 19.5q12 16 19 23q2 4 4 6t4 6l6 6q0 2 2 4q18 27 34.5 51.5t29.5 46.5q0 2 2 4t10 2q2 -2 4 -2q2 -2 0 -6q-10 -12 -18 -28q-10 -14 -20.5 -32t-26.5 -40q-2 -4 -21 -29q-4 -4 -8 -9t-8 -9q-29 -39 -54.5 -62.5t-46 -37t-34 -18.5t-19.5 -5 q-20 -4 -36.5 0t-26.5 8q-4 2 -7.5 3t-7.5 5h-2q-16 12 -23 30.5t-8 37t1 36t6 27.5q0 4 2 9q-43 -53 -85 -95.5t-75 -54.5q-4 -2 -13.5 -5t-21.5 -1h-18q-27 4 -41.5 19.5t-18.5 36t-2 43z" />
<glyph unicode="v" horiz-adv-x="417" d="M-72 98.5q2 22.5 6 42.5q4 16 11.5 36t11.5 30t8 20.5t10 22.5v2l3.5 7l3.5 7q16 39 28.5 69t20.5 46q4 8 5 14t5 11v2l6 12q2 4 2 6l2 4q6 6 0 10q-2 4 -8 -2q-6 -14 -18 -6q-4 4 -2 10q2 2 4 7q2 0 2 1t2 1q9 8 41 17q9 3 19 3q22 0 42 -16q0 -2 2 -2q12 -14 14.5 -32 t1.5 -35t-6.5 -32.5t-7.5 -23.5q-10 -25 -23.5 -54.5t-27.5 -62.5q-2 -2 -2 -3t-2 -3q-29 -61 -47 -101q-6 -14 -9 -29.5t3 -25.5q10 -16 24.5 -10t22.5 12q6 4 22 17q25 23 46.5 56.5t41 70t37 74.5t29.5 71q16 41 25.5 67.5t9.5 28.5v6q-4 2 -8 -2h-3q-8 -14 -16 -2 q-6 4 0 11l4 4l2 2q6 2 17.5 6t27 5t31 -4.5t27.5 -17.5q0 -2 1 -2t1 -2q14 -23 10 -49t-14 -47q-4 -6 -8.5 -13t-8.5 -16q-23 -37 -56.5 -77.5t-69.5 -77.5t-68.5 -66.5t-51.5 -44.5q-37 -33 -63 -45q-2 0 -11.5 -3t-23.5 -3q-12 0 -18 2q-27 4 -40.5 18.5t-17.5 35t-2 43z " />
<glyph unicode="w" horiz-adv-x="645" d="M-79 99.5q3 23.5 7 41.5q4 16 11.5 36t11.5 30q4 14 18 45q0 4 2 7t4 7q16 39 28.5 69t21.5 48q4 6 5 12t5 11v2q2 6 6 14q2 2 2 4t2 4q0 4 1 6t-1 6q-4 2 -5 0t-3 -2v-2q-8 -14 -19 -4q-8 4 -2 10l4 5l5 4q9 8 41 17q9 2 17 2q22 0 44 -17l2 -2q12 -14 14 -32t1 -34 t-6 -31.5t-7 -23.5q-10 -25 -23.5 -54.5t-27.5 -62.5q-2 -2 -2 -3t-2 -3q-14 -33 -25.5 -57.5t-21.5 -42.5q-6 -14 -9.5 -31t3.5 -27q8 -14 23 -8t24 10q4 4 20 17q51 51 92 133q0 2 2 4q4 14 19 45q0 4 2 7t4 7q16 39 27.5 67.5t19.5 47.5q8 16 13 27.5t7 15.5v2q2 4 2.5 6 t2.5 4q0 2 2 4q14 31 36 31q4 0 7 -2q14 0 26 -12q10 -8 15 -17q8 -16 12 -30v-2q0 -4 1 -11.5t-1 -17.5q-2 -4 -2 -7t-2 -7q0 -2 -1 -3.5t-1 -3.5q-4 -12 -9.5 -24t-9.5 -27q0 -2 -1 -2t-1 -2q-10 -20 -19 -42.5t-20 -45.5q-2 -2 -2 -3t-2 -3q-14 -33 -25.5 -57.5 t-21.5 -42.5q-6 -14 -9 -31t3 -27q8 -14 22.5 -8t24.5 10q4 4 21 17q25 23 46 56.5t41.5 70t38 74.5t29.5 71q16 41 24.5 67.5t10.5 30.5v4q-4 4 -5 2t-3 -2t-2 -2q-10 -10 -19 -2q-2 4 0 11q2 2 4 6q2 0 5 2q6 2 17 6t26.5 4t31 -4t27.5 -19l2 -2q14 -23 10 -49t-14 -49 q-8 -14 -16 -27q-23 -39 -58 -78.5t-70.5 -76.5t-67.5 -66.5t-50 -46.5q-16 -16 -32.5 -27.5t-31.5 -15.5q-4 -2 -12 -5t-23 -1q-4 -2 -9 -1t-9 1q-41 6 -52 36q-8 22 -8 46q0 9 1 18q-18 -16 -32.5 -28.5t-25.5 -22.5q-16 -16 -32.5 -27.5t-30.5 -15.5q-4 -2 -12.5 -5 t-22.5 -1q-4 -2 -9 -1t-9 1q-27 4 -40.5 19.5t-18.5 35t-2 43z" />
<glyph unicode="x" horiz-adv-x="452" d="M-158 27v4q-6 23 10.5 44t32.5 38q4 4 7.5 7t7.5 7t8 10q12 12 54 48t89 71q-4 27 -7 55.5t-5 42.5q-2 8 -2 14.5t-2 10.5v2q0 4 -1 8t-1 8v4v5q0 10 -4 10q-6 2 -6 -6q-4 -14 -15 -13q-6 0 -6 9v6q2 0 2 4q2 6 9 16t18.5 19.5t27 14.5t33.5 3h4q16 -6 24.5 -24.5 t13.5 -41t7 -43t4 -28.5v-4q6 6 35 27.5t61.5 45t59.5 40t29 12.5q2 0 4 -1t4 -1l9 -4.5t9 -6.5q14 -8 22.5 -19t-20.5 -36l-2 -2q-2 -2 -4 -3t-4 -3l-2 -2l-22 -19q-23 -18 -53.5 -42.5t-61.5 -49t-49 -39.5q4 -41 5 -69.5t5 -49.5q0 -6 1 -13t1 -11v-2q2 -10 2 -19 q2 -6 2 -14q6 -16 14 -22q10 -8 24.5 -6.5t23.5 6.5q2 2 4 3t4 3q18 10 37.5 26.5t35 31.5t24.5 26.5t11 13.5v2q8 8 17 21q8 8 10 12l6 6v4q20 27 35.5 51.5t30.5 46.5q0 2 2 4q4 4 8 5q2 0 4 -2q4 -4 2 -9q-10 -14 -18 -28q-10 -14 -20.5 -30.5t-27.5 -39.5q-4 -4 -8 -11 t-14 -18q-8 -12 -14 -20q-59 -78 -100.5 -99.5t-53.5 -23.5h-6h-8q-10 -2 -17.5 -1t-15.5 1q-43 8 -61.5 31.5t-22.5 34.5v6q-4 10 -6 18t-4 14q-2 12 -3 22.5t-3 20.5q-33 -23 -49.5 -35t-28 -22t-25.5 -22.5t-45 -32.5q0 -2 -1 -2t-1 -2q-10 -4 -6 -8q0 -8 6 -3h2q2 2 6 3 q8 0 13 -7q0 -12 -9 -12h-2q0 -2 -4 -2t-11 -1t-17 1q-14 4 -29 3t-23 22z" />
<glyph unicode="y" horiz-adv-x="544" d="M-466 -314q13 70 72.5 130.5t170.5 79.5q29 6 69 8q23 1 54 1h32q50 -1 115 -9q16 -2 28.5 -2t28.5 -3q8 18 21.5 52t27 71t25.5 73t21 58q2 2 2 5q0 4 2 6q-43 -51 -85 -93.5t-75 -54.5q-4 -2 -13.5 -5t-21.5 -1h-18q-27 4 -41.5 19.5t-18.5 35t-2 43t6 41.5 q4 16 12.5 37t12.5 29q4 10 8 20.5t8 24.5l3.5 7l3.5 7q18 41 29.5 70t19.5 47q8 16 10 23q0 2 2 2q2 6 6 14q2 2 2 4v4q4 10 2 12q-4 2 -8 -2l-2 -2q-8 -12 -16 -4q-6 2 -2 10q2 4 4 7l4 2q10 8 41 17q8 2 16 2q22 0 43 -17q2 0 4 -2q12 -14 14.5 -32t1.5 -34t-6.5 -31.5 t-7.5 -23.5q-10 -25 -23.5 -54.5t-29.5 -62.5q0 -2 -1 -3t-1 -3q-33 -63 -47 -100q-6 -14 -10 -31t4 -27q8 -14 22.5 -8t22.5 10q12 8 22 19q25 20 56.5 59t66.5 82q6 16 13.5 35.5t15.5 36.5q4 12 12 26q6 12 13.5 27.5t15.5 32.5q8 16 15 30.5t13 24.5h3l6 12q8 8 13 12.5 t7 6.5q16 10 33 12q4 0 9 1t11 -1q8 0 16.5 -3t14.5 -10t8 -18.5t-6 -29.5l-6 -13v-2q-4 -8 -20.5 -46t-30.5 -71q-4 -8 -6 -14l-4 -12q-18 -41 -34 -77t-18 -40q-4 -14 -13 -35.5t-19 -50.5q0 -16 4 -20q2 -4 4 -5.5t4 -3.5q2 0 3 -1t3 -1q20 2 46 19.5t47.5 38t35.5 38 t16 19.5q6 8 19 21q2 6 8 12q2 4 6 8q0 2 2 2q18 27 34.5 52.5t29.5 47.5q0 2 2 5q2 2 10 2q2 -2 4 -2q2 -2 0 -7q-10 -12 -18 -28q-10 -14 -20.5 -31.5t-26.5 -40.5q-2 -4 -21 -29q-4 -4 -8 -9t-8 -9q-29 -39 -54.5 -62.5t-46 -37t-34 -18.5t-19.5 -5q-23 -4 -39 0 q-12 -29 -24.5 -60.5t-28.5 -66.5q47 -6 91 -9q16 -1 31 -1q25 0 46 3q33 5 52.5 19.5t19.5 42.5q-4 12 -7 23q-2 8 1.5 15t15.5 5q6 -2 12 -10q4 -8 8 -21t0 -36q-2 -20 -17 -44t-51 -41.5t-95 -26.5q-27 -4 -62 -4q-38 0 -84 5q-16 -29 -33.5 -58.5t-40.5 -58.5 q-86 -117 -168 -163.5t-146 -56.5q-30 -5 -54 -5q-29 0 -52 7q-40 12 -42 12q-61 20 -89 82q-19 43 -19 89q0 21 4 43zM-453 -375v-16q0 -18 9 -41q8 -20 31.5 -43t66.5 -29q25 -4 56 -5h4q29 0 63 11q37 13 81 41.5t97 83.5q31 31 58.5 80t49.5 98q-102 12 -193 13h-5 q-88 0 -155 -20q-68 -19 -111 -60t-52 -113z" />
<glyph unicode="z" horiz-adv-x="522" d="M-464 -318q13 70 71.5 130.5t169.5 78.5q29 6 69 9q23 1 54 2q16 0 32 -1q50 -1 115 -10q14 -2 23.5 -2t19.5 -2q33 73 42 127q6 37 6 65q0 13 -1 23q-4 34 -14 50t-12 20q-16 16 -28.5 26.5t-19.5 14.5l-2 2q-10 10 -2 27q4 8 11 12q37 31 61 55q37 41 47 63.5t10 28.5 q2 10 -3 14.5t-25 0.5q-6 -4 -17.5 -8.5t-27.5 -10.5q-14 -4 -17.5 -4t-19.5 -2q-6 -20 -19 -41q-4 -8 -5 -13t-5 -9q-8 -12 -12 -20.5t-6 -12.5q-6 -12 -13.5 -22.5t-13.5 -20.5q-10 -14 -17 -24.5t-12 -18.5q-6 -8 -10 -14q-2 -4 -6 -5q-2 0 -4 3q-4 4 2 10q2 2 2 4 q16 23 30.5 48.5t30.5 53.5l3 2l4 8t6 15q6 8 12 24q4 4 25 56q-8 4 -15.5 15t-5.5 32q2 35 21.5 71.5t46.5 51.5q25 12 39 6t18 -23q4 -14 0 -35.5t-13 -44t-24.5 -43t-34.5 -30.5q12 6 27 12q10 4 24.5 10t26.5 13l2 2q4 0 6 2q4 2 28 7t46 -9q12 -8 17.5 -20.5t5.5 -26 t-2 -24.5t-2 -15q0 -2 -1 -3.5t-1 -5.5q-8 -20 -25.5 -41.5t-36.5 -38.5q-23 -20 -45 -38q14 -10 29 -23q16 -14 30 -35q12 -18 19 -39q13 -38 13 -78q0 -10 -1 -20q0 -2 -1 -3t-1 -3q0 -6 4 -14t8 -9q2 -2 9 -2q20 2 44.5 19.5t46 38t36 38t16.5 19.5h2q4 6 8 11t8 9t9 13 q6 6 6 8l2 2q18 27 34.5 52.5t28.5 47.5l2 2q5 4 11 4q2 0 4 -2q4 -4 2 -6q-8 -12 -19 -28q-10 -14 -21.5 -32t-27.5 -40q-2 -4 -20 -29q-4 -6 -17 -18q-29 -41 -54.5 -64.5t-45 -36t-32.5 -17.5t-19 -5q-8 -2 -15.5 -2h-13.5q-4 -25 -11 -47.5t-14 -38.5q-8 -12 -12 -27 q-4 -8 -4 -14q47 -6 90 -8q12 -1 24 0q29 0 52 3q33 5 52.5 19.5t19.5 42.5q-6 12 -7 23q-2 8 2.5 15t14.5 5q8 -2 14 -10q4 -8 8 -21.5t0 -35.5q-4 -20 -19 -44t-50 -42q-34 -17 -92 -26q-27 -4 -62 -4q-38 0 -84 5q-31 -59 -75 -119.5t-107 -113.5q-72 -61 -135.5 -84 t-112.5 -25h-15q-39 1 -63 9q-30 10 -32 10q-61 20 -88 82q-18 42 -18 88q0 21 4 44zM-453 -395q0 -18 9 -41q8 -20 32.5 -43t65.5 -29q24 -5 53 -5q18 0 37 2q51 5 121 54q41 33 87 96.5t97 163.5q-95 10 -180 10q-4 -1 -8 -1q-88 0 -154.5 -19.5t-108.5 -60.5t-49 -111 q-2 -8 -2 -16z" />
<glyph unicode="&#xa1;" d="M-18 -385.5q-1 30.5 3 45.5q6 18 38 93.5t74 179t88 221.5t84 221.5t60.5 179t14.5 94.5q-2 0 -11 -2q-6 -8 -16 -2q-4 2 -4 8v4h4q2 0 2 2q8 4 34 11t50 -3q10 -2 31 -10l2 -6q29 -25 29.5 -53t-3.5 -44q-6 -16 -35.5 -90.5t-70.5 -179t-86 -222.5t-82 -222.5 t-58.5 -180t-15.5 -94.5q4 -4 5 -2t6 6q6 4 16 0q8 -4 4 -8q0 -2 -4 -4l-2 -2q-8 -4 -34 -10t-50 4q-6 0 -19.5 3t-21.5 7l-2 2q-29 23 -30 53.5zM389 747q-2 29 16 44t45 15q27 -2 43.5 -16t18.5 -45q0 -29 -18.5 -44t-47.5 -13q-57 -4 -57 59z" />
<glyph unicode="&#xa8;" horiz-adv-x="299" d="M35 635q0 23 16.5 35t38.5 10q45 4 45 -49q2 -25 -13 -37t-38 -12q-23 2 -35 13t-14 40zM152 596q0 23 16 35t39 10q45 4 45 -49q2 -25 -13 -37t-38 -12q-23 2 -35 13t-14 40z" />
<glyph unicode="&#xad;" horiz-adv-x="739" d="M163 293q1 6 1 14l2 2q10 29 32.5 36t34.5 9q23 0 71 -5t99.5 -8t95.5 0t62 17q2 6 -4 9q-6 2 -6 12q0 4 6 4h4l2 -2q4 -4 15.5 -22.5t11.5 -41.5q2 -4 1 -10t-1 -14l-2 -2q-10 -29 -33 -36t-35 -9q-23 0 -70 4t-98 7t-96 1t-63 -16q-2 -6 4 -9q6 -4 6 -12q-4 -6 -6 -6 t-4 2l-3 2q-6 4 -16 22.5t-10 41.5q-2 4 -1 10z" />
<glyph unicode="&#xb4;" horiz-adv-x="327" d="M43 559q25 6 45.5 19.5t38.5 30t36.5 31.5t37.5 28q35 20 55 15t25 -30q10 -43 -68 -84q-18 -10 -53 -16t-66 -7t-49 3t-2 10z" />
<glyph unicode="&#xb8;" horiz-adv-x="178" d="M-166 -109q0 8 1 15.5t1 11.5q4 8 6 13.5t6 9.5l9 8q8 0 4 -10q-2 -6 -6 -11l-5 -2q-6 -16 7.5 -25.5t36.5 -13.5h8q29 -2 52 3.5t69 21.5q6 4 14 5t14 3q8 2 12.5 3t8.5 1l2 2l-2 4q2 4 1 15.5t3 31.5q0 4 1 10.5t5 16.5l20 -2q-8 -20 -8 -27q-2 -8 0 -12q-4 -10 0 -16 q0 -8 2 -13q0 -4 2 -6q41 4 54.5 -11t11.5 -28v-6v-4q-4 -12 -10.5 -15t-12.5 -7h-2q-25 -4 -39 13t-18 26q-10 -4 -23.5 -9.5t-27.5 -7.5q-6 -4 -39 -15t-53 -14q-10 -2 -17.5 -2h-11.5h-8q-8 0 -15 2q-10 0 -26 9q-12 6 -17.5 14t-9.5 18zM104 -104q8 -16 21.5 -24.5 t19.5 -4.5q6 6 7 14q0 4 -2 8q-8 15 -37 9q-4 2 -9 -2z" />
<glyph unicode="&#xc0;" horiz-adv-x="1447" d="M0 137q10 139 74.5 252t153.5 188.5t189.5 110.5t182.5 21q53 -8 94 -41q16 -14 32.5 -34t28 -48.5t16.5 -65.5t1 -86q8 -2 16.5 -2t16.5 -2q31 -6 65.5 -13t71.5 -14q55 92 105.5 188.5t91.5 199.5q-74 35 -126 65.5t-46 65.5q8 41 45 55t84 16q4 0 22.5 1t44 -1t56 -6 t61.5 -14q4 -2 9 -3t11 -5h3q18 -8 34.5 -22.5t26.5 -35t13 -49.5t-9 -67q-6 -16 -13 -34t-16 -38q74 -47 97.5 -102.5t23.5 -112.5q-4 -39 -12 -66q-14 -39 -35.5 -60.5t-42 -30.5t-37 -11t-18.5 0q-6 4 2 14t24 33q43 61 53.5 111.5t0 88.5t-31 64.5t-38.5 38.5 q-31 -66 -69.5 -144.5t-75.5 -158.5q43 4 70.5 17.5t31.5 41.5q-2 14 -2 25q0 20 18 18q6 -4 13 -12q4 -8 5 -21.5t-7 -35.5q-6 -29 -43 -63t-121 -48q-51 -113 -72.5 -200t8.5 -119q31 -31 78 -11.5t99.5 68.5t101.5 117.5t82 134.5q0 2 2 4q4 4 8 4q2 -2 4 -2q2 -2 2 -6 q-55 -104 -119 -186q-27 -35 -58.5 -69t-66 -60.5t-72.5 -42t-77 -15.5q-55 0 -78.5 34t-23.5 88t18 121.5t43 137.5q-16 0 -35.5 2t-40.5 6q-63 -111 -139 -213t-162 -181t-181.5 -126t-199.5 -45q-84 8 -145 51q-27 18 -51.5 46t-42 69t-25.5 96t-2 129zM109.5 76.5 q-3.5 -58.5 13 -112.5t59.5 -92t129 -34q66 4 138.5 41t147.5 101.5t149.5 151.5t144.5 192q-4 0 -6 2q-66 16 -125 24q-25 -100 -74 -172t-110.5 -115t-129 -55t-127.5 10q-61 23 -77.5 89.5t11.5 139t98.5 132t185.5 70.5q23 2 53 2q27 0 63.5 -2.5t83.5 -8.5q4 8 4 29 q2 51 -12 92q-12 35 -42 68t-89 41q-80 6 -160 -31q-35 -16 -72.5 -45t-75.5 -74t-76 -108.5t-73 -151.5q-2 -6 -9 -29.5t-13 -56.5q-6 -39 -9.5 -97.5zM272 129q6 -27 29 -53.5t80 -32.5q41 -4 92 9.5t99.5 50t89 99t63.5 154.5q-82 12 -152.5 11.5t-127 -17t-98.5 -52.5 t-66 -95q-4 -8 -8.5 -29.5t-0.5 -44.5zM997 395q14 -4 28.5 -5t31.5 -3q14 33 26.5 62.5t26.5 54.5q31 68 62.5 128t56.5 113q-10 6 -21.5 11.5t-21.5 11.5q-29 -70 -75 -163t-114 -210zM997 395v2v-2zM1004 922q-4 -18 21.5 -39.5t66.5 -44.5q14 -6 27.5 -12.5t25.5 -12.5 q16 35 28.5 71t24.5 70q-10 4 -23.5 4h-29.5q-70 0 -103.5 -10t-37.5 -26zM1163 1175q4 25 24.5 30t55.5 -15q18 -12 35.5 -27.5t36 -32t40 -30t46.5 -19.5q14 -6 -3.5 -10t-48 -3t-65.5 7t-53 16q-78 41 -68 84zM1196 791q10 -4 21.5 -10.5t21.5 -10.5q31 70 29 121 q2 4 -2.5 16.5t-20.5 24.5q-4 -16 -16 -52t-33 -89z" />
<glyph unicode="&#xc1;" horiz-adv-x="1447" d="M0 137q10 139 74.5 252t153.5 188.5t189.5 110.5t182.5 21q53 -8 94 -41q16 -14 32.5 -34t28 -48.5t16.5 -65.5t1 -86q8 -2 16.5 -2t16.5 -2q31 -6 65.5 -13t71.5 -14q55 92 105.5 188.5t91.5 199.5q-74 35 -126 65.5t-46 65.5q8 41 45 55t84 16q4 0 22.5 1t44 -1t56 -6 t61.5 -14q4 -2 9 -3t11 -5h3q18 -8 34.5 -22.5t26.5 -35t13 -49.5t-9 -67q-6 -16 -13 -34t-16 -38q74 -47 97.5 -102.5t23.5 -112.5q-4 -39 -12 -66q-14 -39 -35.5 -60.5t-42 -30.5t-37 -11t-18.5 0q-6 4 2 14t24 33q43 61 53.5 111.5t0 88.5t-31 64.5t-38.5 38.5 q-31 -66 -69.5 -144.5t-75.5 -158.5q43 4 70.5 17.5t31.5 41.5q-2 14 -2 25q0 20 18 18q6 -4 13 -12q4 -8 5 -21.5t-7 -35.5q-6 -29 -43 -63t-121 -48q-51 -113 -72.5 -200t8.5 -119q31 -31 78 -11.5t99.5 68.5t101.5 117.5t82 134.5q0 2 2 4q4 4 8 4q2 -2 4 -2q2 -2 2 -6 q-55 -104 -119 -186q-27 -35 -58.5 -69t-66 -60.5t-72.5 -42t-77 -15.5q-55 0 -78.5 34t-23.5 88t18 121.5t43 137.5q-16 0 -35.5 2t-40.5 6q-63 -111 -139 -213t-162 -181t-181.5 -126t-199.5 -45q-84 8 -145 51q-27 18 -51.5 46t-42 69t-25.5 96t-2 129zM109.5 76.5 q-3.5 -58.5 13 -112.5t59.5 -92t129 -34q66 4 138.5 41t147.5 101.5t149.5 151.5t144.5 192q-4 0 -6 2q-66 16 -125 24q-25 -100 -74 -172t-110.5 -115t-129 -55t-127.5 10q-61 23 -77.5 89.5t11.5 139t98.5 132t185.5 70.5q23 2 53 2q27 0 63.5 -2.5t83.5 -8.5q4 8 4 29 q2 51 -12 92q-12 35 -42 68t-89 41q-80 6 -160 -31q-35 -16 -72.5 -45t-75.5 -74t-76 -108.5t-73 -151.5q-2 -6 -9 -29.5t-13 -56.5q-6 -39 -9.5 -97.5zM272 129q6 -27 29 -53.5t80 -32.5q41 -4 92 9.5t99.5 50t89 99t63.5 154.5q-82 12 -152.5 11.5t-127 -17t-98.5 -52.5 t-66 -95q-4 -8 -8.5 -29.5t-0.5 -44.5zM997 395q14 -4 28.5 -5t31.5 -3q14 33 26.5 62.5t26.5 54.5q31 68 62.5 128t56.5 113q-10 6 -21.5 11.5t-21.5 11.5q-29 -70 -75 -163t-114 -210zM997 395v2v-2zM1004 922q-4 -18 21.5 -39.5t66.5 -44.5q14 -6 27.5 -12.5t25.5 -12.5 q16 35 28.5 71t24.5 70q-10 4 -23.5 4h-29.5q-70 0 -103.5 -10t-37.5 -26zM1192 1081q25 6 45.5 19.5t38.5 30t36.5 31.5t37.5 28q35 20 55 15t25 -30q10 -43 -68 -84q-18 -10 -53 -16t-66 -7t-49 3t-2 10zM1196 791q10 -4 21.5 -10.5t21.5 -10.5q31 70 29 121 q2 4 -2.5 16.5t-20.5 24.5q-4 -16 -16 -52t-33 -89z" />
<glyph unicode="&#xc2;" horiz-adv-x="1447" d="M0 137q10 139 74.5 252t153.5 188.5t189.5 110.5t182.5 21q53 -8 94 -41q16 -14 32.5 -34t28 -48.5t16.5 -65.5t1 -86q8 -2 16.5 -2t16.5 -2q31 -6 65.5 -13t71.5 -14q55 92 105.5 188.5t91.5 199.5q-74 35 -126 65.5t-46 65.5q8 41 45 55t84 16q4 0 22.5 1t44 -1t56 -6 t61.5 -14q4 -2 9 -3t11 -5h3q18 -8 34.5 -22.5t26.5 -35t13 -49.5t-9 -67q-6 -16 -13 -34t-16 -38q74 -47 97.5 -102.5t23.5 -112.5q-4 -39 -12 -66q-14 -39 -35.5 -60.5t-42 -30.5t-37 -11t-18.5 0q-6 4 2 14t24 33q43 61 53.5 111.5t0 88.5t-31 64.5t-38.5 38.5 q-31 -66 -69.5 -144.5t-75.5 -158.5q43 4 70.5 17.5t31.5 41.5q-2 14 -2 25q0 20 18 18q6 -4 13 -12q4 -8 5 -21.5t-7 -35.5q-6 -29 -43 -63t-121 -48q-51 -113 -72.5 -200t8.5 -119q31 -31 78 -11.5t99.5 68.5t101.5 117.5t82 134.5q0 2 2 4q4 4 8 4q2 -2 4 -2q2 -2 2 -6 q-55 -104 -119 -186q-27 -35 -58.5 -69t-66 -60.5t-72.5 -42t-77 -15.5q-55 0 -78.5 34t-23.5 88t18 121.5t43 137.5q-16 0 -35.5 2t-40.5 6q-63 -111 -139 -213t-162 -181t-181.5 -126t-199.5 -45q-84 8 -145 51q-27 18 -51.5 46t-42 69t-25.5 96t-2 129zM109.5 76.5 q-3.5 -58.5 13 -112.5t59.5 -92t129 -34q66 4 138.5 41t147.5 101.5t149.5 151.5t144.5 192q-4 0 -6 2q-66 16 -125 24q-25 -100 -74 -172t-110.5 -115t-129 -55t-127.5 10q-61 23 -77.5 89.5t11.5 139t98.5 132t185.5 70.5q23 2 53 2q27 0 63.5 -2.5t83.5 -8.5q4 8 4 29 q2 51 -12 92q-12 35 -42 68t-89 41q-80 6 -160 -31q-35 -16 -72.5 -45t-75.5 -74t-76 -108.5t-73 -151.5q-2 -6 -9 -29.5t-13 -56.5q-6 -39 -9.5 -97.5zM272 129q6 -27 29 -53.5t80 -32.5q41 -4 92 9.5t99.5 50t89 99t63.5 154.5q-82 12 -152.5 11.5t-127 -17t-98.5 -52.5 t-66 -95q-4 -8 -8.5 -29.5t-0.5 -44.5zM997 395q14 -4 28.5 -5t31.5 -3q14 33 26.5 62.5t26.5 54.5q31 68 62.5 128t56.5 113q-10 6 -21.5 11.5t-21.5 11.5q-29 -70 -75 -163t-114 -210zM997 395v2v-2zM1004 922q-4 -18 21.5 -39.5t66.5 -44.5q14 -6 27.5 -12.5t25.5 -12.5 q16 35 28.5 71t24.5 70q-10 4 -23.5 4h-29.5q-70 0 -103.5 -10t-37.5 -26zM1142 1101.5q-13 8.5 1 10.5q23 -2 43 4t38.5 15t37 19.5t37.5 14.5q2 0 4 1t6 1q10 10 26 0q16 -6 23 -14q0 -2 8 -11q25 -33 43.5 -74.5t56.5 -68.5q10 -10 -5 -8t-39.5 12t-51 24.5t-39.5 28.5 l-20 25q-10 -4 -27 -8q-18 -4 -48 1t-55.5 12t-38.5 15.5zM1196 791q10 -4 21.5 -10.5t21.5 -10.5q31 70 29 121q2 4 -2.5 16.5t-20.5 24.5q-4 -16 -16 -52t-33 -89z" />
<glyph unicode="&#xc3;" horiz-adv-x="1447" d="M0 137q10 139 74.5 252t153.5 188.5t189.5 110.5t182.5 21q53 -8 94 -41q16 -14 32.5 -34t28 -48.5t16.5 -65.5t1 -86q8 -2 16.5 -2t16.5 -2q31 -6 65.5 -13t71.5 -14q55 92 105.5 188.5t91.5 199.5q-74 35 -126 65.5t-46 65.5q8 41 45 55t84 16q4 0 22.5 1t44 -1t56 -6 t61.5 -14q4 -2 9 -3t11 -5h3q18 -8 34.5 -22.5t26.5 -35t13 -49.5t-9 -67q-6 -16 -13 -34t-16 -38q74 -47 97.5 -102.5t23.5 -112.5q-4 -39 -12 -66q-14 -39 -35.5 -60.5t-42 -30.5t-37 -11t-18.5 0q-6 4 2 14t24 33q43 61 53.5 111.5t0 88.5t-31 64.5t-38.5 38.5 q-31 -66 -69.5 -144.5t-75.5 -158.5q43 4 70.5 17.5t31.5 41.5q-2 14 -2 25q0 20 18 18q6 -4 13 -12q4 -8 5 -21.5t-7 -35.5q-6 -29 -43 -63t-121 -48q-51 -113 -72.5 -200t8.5 -119q31 -31 78 -11.5t99.5 68.5t101.5 117.5t82 134.5q0 2 2 4q4 4 8 4q2 -2 4 -2q2 -2 2 -6 q-55 -104 -119 -186q-27 -35 -58.5 -69t-66 -60.5t-72.5 -42t-77 -15.5q-55 0 -78.5 34t-23.5 88t18 121.5t43 137.5q-16 0 -35.5 2t-40.5 6q-63 -111 -139 -213t-162 -181t-181.5 -126t-199.5 -45q-84 8 -145 51q-27 18 -51.5 46t-42 69t-25.5 96t-2 129zM109.5 76.5 q-3.5 -58.5 13 -112.5t59.5 -92t129 -34q66 4 138.5 41t147.5 101.5t149.5 151.5t144.5 192q-4 0 -6 2q-66 16 -125 24q-25 -100 -74 -172t-110.5 -115t-129 -55t-127.5 10q-61 23 -77.5 89.5t11.5 139t98.5 132t185.5 70.5q23 2 53 2q27 0 63.5 -2.5t83.5 -8.5q4 8 4 29 q2 51 -12 92q-12 35 -42 68t-89 41q-80 6 -160 -31q-35 -16 -72.5 -45t-75.5 -74t-76 -108.5t-73 -151.5q-2 -6 -9 -29.5t-13 -56.5q-6 -39 -9.5 -97.5zM272 129q6 -27 29 -53.5t80 -32.5q41 -4 92 9.5t99.5 50t89 99t63.5 154.5q-82 12 -152.5 11.5t-127 -17t-98.5 -52.5 t-66 -95q-4 -8 -8.5 -29.5t-0.5 -44.5zM997 395q14 -4 28.5 -5t31.5 -3q14 33 26.5 62.5t26.5 54.5q31 68 62.5 128t56.5 113q-10 6 -21.5 11.5t-21.5 11.5q-29 -70 -75 -163t-114 -210zM997 395v2v-2zM1004 922q-4 -18 21.5 -39.5t66.5 -44.5q14 -6 27.5 -12.5t25.5 -12.5 q16 35 28.5 71t24.5 70q-10 4 -23.5 4h-29.5q-70 0 -103.5 -10t-37.5 -26zM1161 1129q14 10 42 22.5t60.5 19.5t51.5 -3q23 -14 34 -23l13 -6q18 -12 35.5 -24.5t37 -20.5t44 -11t57.5 5q16 4 -3.5 -7.5t-54 -23.5t-72.5 -19.5t-57 3.5q-18 8 -36 22l-11 6 q-18 12 -31.5 26.5t-27.5 25t-31.5 13.5t-48.5 -9q-16 -6 -2 4zM1196 791q10 -4 21.5 -10.5t21.5 -10.5q31 70 29 121q2 4 -2.5 16.5t-20.5 24.5q-4 -16 -16 -52t-33 -89z" />
<glyph unicode="&#xc4;" horiz-adv-x="1447" d="M0 137q10 139 74.5 252t153.5 188.5t189.5 110.5t182.5 21q53 -8 94 -41q16 -14 32.5 -34t28 -48.5t16.5 -65.5t1 -86q8 -2 16.5 -2t16.5 -2q31 -6 65.5 -13t71.5 -14q55 92 105.5 188.5t91.5 199.5q-74 35 -126 65.5t-46 65.5q8 41 45 55t84 16q4 0 22.5 1t44 -1t56 -6 t61.5 -14q4 -2 9 -3t11 -5h3q18 -8 34.5 -22.5t26.5 -35t13 -49.5t-9 -67q-6 -16 -13 -34t-16 -38q74 -47 97.5 -102.5t23.5 -112.5q-4 -39 -12 -66q-14 -39 -35.5 -60.5t-42 -30.5t-37 -11t-18.5 0q-6 4 2 14t24 33q43 61 53.5 111.5t0 88.5t-31 64.5t-38.5 38.5 q-31 -66 -69.5 -144.5t-75.5 -158.5q43 4 70.5 17.5t31.5 41.5q-2 14 -2 25q0 20 18 18q6 -4 13 -12q4 -8 5 -21.5t-7 -35.5q-6 -29 -43 -63t-121 -48q-51 -113 -72.5 -200t8.5 -119q31 -31 78 -11.5t99.5 68.5t101.5 117.5t82 134.5q0 2 2 4q4 4 8 4q2 -2 4 -2q2 -2 2 -6 q-55 -104 -119 -186q-27 -35 -58.5 -69t-66 -60.5t-72.5 -42t-77 -15.5q-55 0 -78.5 34t-23.5 88t18 121.5t43 137.5q-16 0 -35.5 2t-40.5 6q-63 -111 -139 -213t-162 -181t-181.5 -126t-199.5 -45q-84 8 -145 51q-27 18 -51.5 46t-42 69t-25.5 96t-2 129zM109.5 76.5 q-3.5 -58.5 13 -112.5t59.5 -92t129 -34q66 4 138.5 41t147.5 101.5t149.5 151.5t144.5 192q-4 0 -6 2q-66 16 -125 24q-25 -100 -74 -172t-110.5 -115t-129 -55t-127.5 10q-61 23 -77.5 89.5t11.5 139t98.5 132t185.5 70.5q23 2 53 2q27 0 63.5 -2.5t83.5 -8.5q4 8 4 29 q2 51 -12 92q-12 35 -42 68t-89 41q-80 6 -160 -31q-35 -16 -72.5 -45t-75.5 -74t-76 -108.5t-73 -151.5q-2 -6 -9 -29.5t-13 -56.5q-6 -39 -9.5 -97.5zM272 129q6 -27 29 -53.5t80 -32.5q41 -4 92 9.5t99.5 50t89 99t63.5 154.5q-82 12 -152.5 11.5t-127 -17t-98.5 -52.5 t-66 -95q-4 -8 -8.5 -29.5t-0.5 -44.5zM997 395q14 -4 28.5 -5t31.5 -3q14 33 26.5 62.5t26.5 54.5q31 68 62.5 128t56.5 113q-10 6 -21.5 11.5t-21.5 11.5q-29 -70 -75 -163t-114 -210zM997 395v2v-2zM1004 922q-4 -18 21.5 -39.5t66.5 -44.5q14 -6 27.5 -12.5t25.5 -12.5 q16 35 28.5 71t24.5 70q-10 4 -23.5 4h-29.5q-70 0 -103.5 -10t-37.5 -26zM1196 791q10 -4 21.5 -10.5t21.5 -10.5q31 70 29 121q2 4 -2.5 16.5t-20.5 24.5q-4 -16 -16 -52t-33 -89zM1247 1122q0 23 16.5 35t38.5 10q45 4 45 -49q2 -25 -13 -37t-38 -12q-23 2 -35 13t-14 40 zM1364 1083q0 23 16 35t39 10q45 4 45 -49q2 -25 -13 -37t-38 -12q-23 2 -35 13t-14 40z" />
<glyph unicode="&#xc5;" horiz-adv-x="1447" d="M0 137q10 139 74.5 252t153.5 188.5t189.5 110.5t182.5 21q53 -8 94 -41q16 -14 32.5 -34t28 -48.5t16.5 -65.5t1 -86q8 -2 16.5 -2t16.5 -2q31 -6 65.5 -13t71.5 -14q55 92 105.5 188.5t91.5 199.5q-74 35 -126 65.5t-46 65.5q8 41 45 55t84 16q4 0 22.5 1t44 -1t56 -6 t61.5 -14q4 -2 9 -3t11 -5h3q18 -8 34.5 -22.5t26.5 -35t13 -49.5t-9 -67q-6 -16 -13 -34t-16 -38q74 -47 97.5 -102.5t23.5 -112.5q-4 -39 -12 -66q-14 -39 -35.5 -60.5t-42 -30.5t-37 -11t-18.5 0q-6 4 2 14t24 33q43 61 53.5 111.5t0 88.5t-31 64.5t-38.5 38.5 q-31 -66 -69.5 -144.5t-75.5 -158.5q43 4 70.5 17.5t31.5 41.5q-2 14 -2 25q0 20 18 18q6 -4 13 -12q4 -8 5 -21.5t-7 -35.5q-6 -29 -43 -63t-121 -48q-51 -113 -72.5 -200t8.5 -119q31 -31 78 -11.5t99.5 68.5t101.5 117.5t82 134.5q0 2 2 4q4 4 8 4q2 -2 4 -2q2 -2 2 -6 q-55 -104 -119 -186q-27 -35 -58.5 -69t-66 -60.5t-72.5 -42t-77 -15.5q-55 0 -78.5 34t-23.5 88t18 121.5t43 137.5q-16 0 -35.5 2t-40.5 6q-63 -111 -139 -213t-162 -181t-181.5 -126t-199.5 -45q-84 8 -145 51q-27 18 -51.5 46t-42 69t-25.5 96t-2 129zM109.5 76.5 q-3.5 -58.5 13 -112.5t59.5 -92t129 -34q66 4 138.5 41t147.5 101.5t149.5 151.5t144.5 192q-4 0 -6 2q-66 16 -125 24q-25 -100 -74 -172t-110.5 -115t-129 -55t-127.5 10q-61 23 -77.5 89.5t11.5 139t98.5 132t185.5 70.5q23 2 53 2q27 0 63.5 -2.5t83.5 -8.5q4 8 4 29 q2 51 -12 92q-12 35 -42 68t-89 41q-80 6 -160 -31q-35 -16 -72.5 -45t-75.5 -74t-76 -108.5t-73 -151.5q-2 -6 -9 -29.5t-13 -56.5q-6 -39 -9.5 -97.5zM272 129q6 -27 29 -53.5t80 -32.5q41 -4 92 9.5t99.5 50t89 99t63.5 154.5q-82 12 -152.5 11.5t-127 -17t-98.5 -52.5 t-66 -95q-4 -8 -8.5 -29.5t-0.5 -44.5zM997 395q14 -4 28.5 -5t31.5 -3q14 33 26.5 62.5t26.5 54.5q31 68 62.5 128t56.5 113q-10 6 -21.5 11.5t-21.5 11.5q-29 -70 -75 -163t-114 -210zM997 395v2v-2zM1004 922q-4 -18 21.5 -39.5t66.5 -44.5q14 -6 27.5 -12.5t25.5 -12.5 q16 35 28.5 71t24.5 70q-10 4 -23.5 4h-29.5q-70 0 -103.5 -10t-37.5 -26zM1196 791q10 -4 21.5 -10.5t21.5 -10.5q31 70 29 121q2 4 -2.5 16.5t-20.5 24.5q-4 -16 -16 -52t-33 -89zM1310 1105q0 23 16.5 35.5t39.5 10.5q45 4 45 -50q2 -25 -13 -37t-38 -12 q-23 2 -35.5 13.5t-14.5 39.5zM1343 1103q1 -14 17 -18q16 0 16 16t-14 17q-18 0 -19 -15z" />
<glyph unicode="&#xc6;" horiz-adv-x="1843" d="M0 137q10 139 74.5 252t153.5 188.5t189.5 110.5t182.5 21q53 -8 94 -41q16 -14 32.5 -34t28 -48.5t16.5 -65.5t1 -86l33 -4q31 -6 65.5 -13t71.5 -14q55 92 105.5 188.5t91.5 199.5q20 53 33.5 91t25.5 72q-10 4 -23.5 4h-29.5q-70 0 -107 -20t-41 -37q-6 -16 21 -39 l-4 -6q-53 33 -47 66q8 41 45 55t84 16q4 0 22.5 1t44 -1t56 -6t61.5 -14l20 -8h3q18 -8 34.5 -22.5t26.5 -35t13 -49.5t-9 -67l-29 -72q0 -6 -14 -33l-47 -96q10 4 18.5 5t16.5 3v6q2 14 12 54t43 94q41 53 86 98t113 82q29 14 63 24q29 10 69 15.5t87 1.5q59 -4 98 -39 q10 -12 19 -27q6 -12 8 -28.5t-4 -34.5t-27 -39v8q14 31 9 55.5t-21 32.5l-15 6q-16 4 -33.5 7.5t-33.5 0.5q-4 0 -11.5 -1t-11.5 -1q-47 -8 -101 -33.5t-106.5 -61.5t-95.5 -78t-67 -85l-31 -51q14 0 20 -2q41 -6 60 -20q14 -12 17 -24.5t1 -22.5q-2 -12 -8 -25 q-27 -35 -58.5 -29t-47.5 25q-12 12 -18.5 26.5t-6.5 20.5q-35 -25 -51 -49q-16 -18 -32.5 -39t-27.5 -41l-24 -41q41 4 66.5 17.5t29.5 41.5q-2 14 -2 25q0 20 18 18q6 -4 13 -12q4 -8 5 -21.5t-7 -35.5q-6 -29 -42 -61.5t-116 -49.5v-4q-41 -119 -34 -190.5t34 -112.5 q10 -18 23.5 -29.5t21.5 -17.5q16 -12 32.5 -18.5t31.5 -10.5q16 -4 30 -2q92 -6 162 29q16 8 43 26.5t56.5 49t59 75.5t52.5 107q23 63 25 106t-8.5 70t-32 40t-45.5 17q-18 4 -45 -1t-52 -19l-16 -8q-35 -23 -66.5 -73t-50.5 -128v-2q-2 -20 8 -25q4 -4 11 -2q10 18 18 11 q4 0 8 -12.5t-18 -22.5q-16 -8 -28.5 -4t-18.5 8l-2 2l-4 2q-12 12 -24.5 42t3.5 77q23 66 67 101.5t81 53.5q14 4 25 8.5t24 8.5q39 12 90 10q43 -2 86 -21.5t69.5 -56.5t30.5 -94t-33 -135q-31 -72 -92 -129q-53 -49 -141 -90t-223 -41h-9q-49 4 -86 14q-78 20 -127 66 q12 -18 14.5 -36t-36.5 -22q-55 -4 -78.5 29t-23.5 88t18 124.5t43 139.5q-16 0 -35.5 2t-40.5 6q-63 -111 -139 -213t-162 -181t-181 -126t-200 -45q-84 8 -145 51q-27 18 -51.5 46t-42 69t-25.5 96t-2 129zM109.5 76.5q-3.5 -58.5 13 -112.5t59.5 -92t129 -34 q66 4 138.5 41t147.5 101.5t149.5 151.5t144.5 192q-4 0 -6 2q-66 16 -125 24q-25 -100 -74 -172t-110.5 -115t-129 -55t-127.5 10q-61 23 -77.5 89.5t11.5 139t98.5 132t185.5 70.5q23 2 53 2q27 0 63.5 -2.5t83.5 -8.5q4 8 4 29q2 51 -12 92q-12 35 -42 68t-89 41 q-80 6 -160 -31q-35 -16 -72.5 -45t-75.5 -74t-76 -108.5t-73 -151.5q-2 -6 -9 -29.5t-13 -56.5q-6 -39 -9.5 -97.5zM272 129q6 -27 29 -53.5t80 -32.5q41 -4 92 9.5t99.5 50t89 99t63.5 154.5q-82 12 -152.5 11.5t-127 -17t-98.5 -52.5t-66 -95q-4 -8 -8.5 -29.5 t-0.5 -44.5zM997 395q14 -4 28.5 -5t31.5 -3q14 33 26.5 62.5t26.5 54.5q31 68 62.5 128t56.5 113l10 25q31 70 29 121q2 4 -2 16.5t-21 24.5q-4 -16 -17.5 -55t-41.5 -109q-29 -70 -75 -163t-114 -210zM1356 573q0 -10 1 -24t9 -27q10 -10 20 -18q10 -6 20.5 -7t25.5 9 q10 8 16 18q11 22 -14 45q-29 20 -78 4z" />
<glyph unicode="&#xc7;" horiz-adv-x="1296" d="M27 803q-4 23 0 37t8 20q6 8 14 10q10 2 14.5 -5t2.5 -15q-2 -10 -7 -23q0 -41 49.5 -57t122 -17t154.5 7t147 14q61 6 108.5 7t82.5 -1q76 76 141.5 111t100.5 47q35 10 71 12q31 2 69 -4t73 -28q70 -45 79 -99.5t-30 -134.5q-27 -53 -66 -105.5t-86 -86.5q0 -2 -16 -13 l-23 -14l-20 -8t-21 -4q-18 -4 -32 8q-16 12 -19.5 28.5t-1.5 34t7 33.5t5 31q2 23 -7 35t-17 16q0 4 -4 4q-57 35 -131 47q-45 -47 -76 -91t-51 -79q-23 -41 -37 -78q-39 -104 -54.5 -182t-12.5 -136t18.5 -98t38.5 -65q53 -59 143 -67q74 -8 137 18q74 31 112 75t52 72 l2 4q0 2 2 3q14 29 19.5 69.5t-7.5 93.5q-6 29 -9 40.5t5 13.5q2 0 16.5 -6.5t30 -22.5t26.5 -44t7 -67q0 -29 -16 -61q-8 -20 -15 -29q-20 -39 -57 -69q-47 -45 -98 -67.5t-92 -33.5q-49 -10 -97 -10q-14 0 -22 2q-2 -8 -2 -18v-7q-4 -10 0 -16q0 -8 2 -12q0 -4 2 -6 q41 4 54 -11.5t11 -27.5v-6v-4q-4 -12 -10 -15.5t-12 -7.5h-2q-25 -4 -39 13.5t-19 25.5q-10 -4 -23 -9t-28 -7q-6 -4 -38.5 -15.5t-53.5 -13.5q-10 -2 -17 -2h-12h-8q-8 0 -14 2q-10 0 -27 8q-12 6 -17 14.5t-9 18.5q0 8 1 15t1 11q4 8 6 13.5t6 9.5l8 8q8 0 4 -10 q-2 -6 -6 -10l-4 -2q-6 -16 7.5 -25.5t35.5 -13.5h8q29 -2 52.5 3t68.5 21q6 4 14.5 5t14.5 3q8 2 12 3.5t8 1.5l2 2l-2 4q2 4 1 15t3 32v12q-106 14 -173.5 73.5t-93.5 148.5t-11.5 196.5t69.5 216.5q59 111 119 186q-49 -2 -102.5 -7t-110.5 -13q-119 -18 -196.5 -9 t-123.5 31.5t-66.5 51t-22.5 51.5zM768 -217q8 -16 21.5 -24.5t19.5 -4.5q6 6 6 15q0 4 -2 8q-8 14 -37 8q-4 2 -8 -2zM864 756q39 -12 72 -35l14 -10q10 -10 21.5 -29.5t13.5 -46.5v-27q-2 -10 -4 -21.5t-8 -27.5q0 -4 -2 -6q-8 -23 -9 -44.5t13 -33.5q4 -4 12 -6 q14 -4 39 10l23 15l14 10q35 31 70.5 75t61.5 90t37 90t-3 75q-18 35 -48 46t-59 9q-34 -3 -69 -15q-55 -25 -101.5 -54t-87.5 -64z" />
<glyph unicode="&#xc8;" horiz-adv-x="1089" d="M74 759.5q2 14.5 12 37.5q8 20 36 45.5t79 41t129 12.5t188 -38q25 -8 48.5 -15t45.5 -14q4 0 7.5 -1t7.5 -1q8 10 18 18.5t21 18.5q45 39 100 68q29 14 63 24q29 10 69 15.5t87 1.5q59 -4 98 -39q10 -12 19 -27q6 -12 8 -28.5t-4 -34.5q-10 -25 -39 -51 q-25 -23 -60.5 -43.5t-78.5 -30.5h-4q-12 -4 -23.5 -5t-23.5 -3h-3h-28q-20 -2 -49 0q-25 2 -60 5t-78 13q-4 0 -5 1t-5 1q-16 -16 -30.5 -34.5t-26.5 -41.5q-8 -12 -15.5 -24.5t-15.5 -26.5q14 0 21 -2q41 -6 59 -20q14 -12 17.5 -24.5t0.5 -22.5q-2 -12 -8 -25 q-27 -35 -58.5 -29t-47.5 25q-12 12 -18.5 26.5t-6.5 20.5q-35 -25 -51 -49q-16 -18 -32.5 -39t-26.5 -41q-14 -25 -22.5 -39t-14.5 -25.5t-10.5 -24.5t-12.5 -34q-41 -119 -33.5 -190.5t33.5 -112.5q10 -18 23.5 -29.5t21.5 -17.5q16 -12 32.5 -18.5t31.5 -10.5 q16 -4 30 -2q92 -6 162 29q16 8 43 26.5t56.5 49t59.5 75.5t52 107q23 63 25 106t-8.5 70t-32 40t-45.5 17q-18 4 -45 -1t-51 -19l-17 -8q-35 -23 -66.5 -73t-50.5 -128v-2q-2 -20 9 -25q4 -4 10 -2q10 18 18 11q4 0 8.5 -12.5t-18.5 -22.5q-16 -8 -28.5 -4t-18.5 8l-2 2 l-4 2q-12 12 -24.5 42t3.5 77q23 66 67 101.5t81 53.5q14 4 25.5 8.5t23.5 8.5q39 12 90 10q43 -2 86 -21.5t69.5 -56.5t30.5 -94t-32 -135q-31 -72 -93 -129q-53 -49 -141 -90t-223 -41h-8q-49 4 -86 14q-86 20 -131 67.5t-62.5 104.5t-12.5 115.5t17 103.5q10 37 27.5 70 t34.5 59q16 27 33.5 47.5t35.5 36.5q2 2 3 2t3 2q2 0 3 2q39 35 77.5 51.5t69.5 22.5v6q2 14 12.5 54t42.5 94q-4 2 -7 2t-7 2q-61 16 -134 34.5t-138.5 25.5t-113.5 -2t-58 -46q2 -14 0 -25q-2 -10 -7.5 -16t-15.5 -2q-6 4 -10 12t-2 22.5zM555 573q0 -10 1 -24t9 -27 q10 -10 21 -18q10 -6 20 -7t25 9q10 8 16 18q11 22 -14 45q-29 20 -78 4zM729 805l16 -4q6 0 32 -5t63 -9.5t79 -5.5t78 5h2h5q10 4 30.5 10.5t36.5 20.5t23 33q8 16 -1.5 29.5t-25.5 21.5q-6 2 -14 6q-16 4 -34 7.5t-34 0.5q-4 0 -11 -1t-11 -1q-35 -6 -99.5 -31.5 t-134.5 -76.5zM876 1102q4 25 24.5 30t55.5 -15q18 -12 35.5 -27.5t36 -32t40 -30t46.5 -19.5q14 -6 -3.5 -10t-48 -3t-65.5 7t-53 16q-78 41 -68 84z" />
<glyph unicode="&#xc9;" horiz-adv-x="1089" d="M74 759.5q2 14.5 12 37.5q8 20 36 45.5t79 41t129 12.5t188 -38q25 -8 48.5 -15t45.5 -14q4 0 7.5 -1t7.5 -1q8 10 18 18.5t21 18.5q45 39 100 68q29 14 63 24q29 10 69 15.5t87 1.5q59 -4 98 -39q10 -12 19 -27q6 -12 8 -28.5t-4 -34.5q-10 -25 -39 -51 q-25 -23 -60.5 -43.5t-78.5 -30.5h-4q-12 -4 -23.5 -5t-23.5 -3h-3h-28q-20 -2 -49 0q-25 2 -60 5t-78 13q-4 0 -5 1t-5 1q-16 -16 -30.5 -34.5t-26.5 -41.5q-8 -12 -15.5 -24.5t-15.5 -26.5q14 0 21 -2q41 -6 59 -20q14 -12 17.5 -24.5t0.5 -22.5q-2 -12 -8 -25 q-27 -35 -58.5 -29t-47.5 25q-12 12 -18.5 26.5t-6.5 20.5q-35 -25 -51 -49q-16 -18 -32.5 -39t-26.5 -41q-14 -25 -22.5 -39t-14.5 -25.5t-10.5 -24.5t-12.5 -34q-41 -119 -33.5 -190.5t33.5 -112.5q10 -18 23.5 -29.5t21.5 -17.5q16 -12 32.5 -18.5t31.5 -10.5 q16 -4 30 -2q92 -6 162 29q16 8 43 26.5t56.5 49t59.5 75.5t52 107q23 63 25 106t-8.5 70t-32 40t-45.5 17q-18 4 -45 -1t-51 -19l-17 -8q-35 -23 -66.5 -73t-50.5 -128v-2q-2 -20 9 -25q4 -4 10 -2q10 18 18 11q4 0 8.5 -12.5t-18.5 -22.5q-16 -8 -28.5 -4t-18.5 8l-2 2 l-4 2q-12 12 -24.5 42t3.5 77q23 66 67 101.5t81 53.5q14 4 25.5 8.5t23.5 8.5q39 12 90 10q43 -2 86 -21.5t69.5 -56.5t30.5 -94t-32 -135q-31 -72 -93 -129q-53 -49 -141 -90t-223 -41h-8q-49 4 -86 14q-86 20 -131 67.5t-62.5 104.5t-12.5 115.5t17 103.5q10 37 27.5 70 t34.5 59q16 27 33.5 47.5t35.5 36.5q2 2 3 2t3 2q2 0 3 2q39 35 77.5 51.5t69.5 22.5v6q2 14 12.5 54t42.5 94q-4 2 -7 2t-7 2q-61 16 -134 34.5t-138.5 25.5t-113.5 -2t-58 -46q2 -14 0 -25q-2 -10 -7.5 -16t-15.5 -2q-6 4 -10 12t-2 22.5zM555 573q0 -10 1 -24t9 -27 q10 -10 21 -18q10 -6 20 -7t25 9q10 8 16 18q11 22 -14 45q-29 20 -78 4zM729 805l16 -4q6 0 32 -5t63 -9.5t79 -5.5t78 5h2h5q10 4 30.5 10.5t36.5 20.5t23 33q8 16 -1.5 29.5t-25.5 21.5q-6 2 -14 6q-16 4 -34 7.5t-34 0.5q-4 0 -11 -1t-11 -1q-35 -6 -99.5 -31.5 t-134.5 -76.5zM928 1005q25 6 45.5 19.5t38.5 30t36.5 31.5t37.5 28q35 20 55 15t25 -30q10 -43 -68 -84q-18 -10 -53 -16t-66 -7t-49 3t-2 10z" />
<glyph unicode="&#xca;" horiz-adv-x="1089" d="M74 759.5q2 14.5 12 37.5q8 20 36 45.5t79 41t129 12.5t188 -38q25 -8 48.5 -15t45.5 -14q4 0 7.5 -1t7.5 -1q8 10 18 18.5t21 18.5q45 39 100 68q29 14 63 24q29 10 69 15.5t87 1.5q59 -4 98 -39q10 -12 19 -27q6 -12 8 -28.5t-4 -34.5q-10 -25 -39 -51 q-25 -23 -60.5 -43.5t-78.5 -30.5h-4q-12 -4 -23.5 -5t-23.5 -3h-3h-28q-20 -2 -49 0q-25 2 -60 5t-78 13q-4 0 -5 1t-5 1q-16 -16 -30.5 -34.5t-26.5 -41.5q-8 -12 -15.5 -24.5t-15.5 -26.5q14 0 21 -2q41 -6 59 -20q14 -12 17.5 -24.5t0.5 -22.5q-2 -12 -8 -25 q-27 -35 -58.5 -29t-47.5 25q-12 12 -18.5 26.5t-6.5 20.5q-35 -25 -51 -49q-16 -18 -32.5 -39t-26.5 -41q-14 -25 -22.5 -39t-14.5 -25.5t-10.5 -24.5t-12.5 -34q-41 -119 -33.5 -190.5t33.5 -112.5q10 -18 23.5 -29.5t21.5 -17.5q16 -12 32.5 -18.5t31.5 -10.5 q16 -4 30 -2q92 -6 162 29q16 8 43 26.5t56.5 49t59.5 75.5t52 107q23 63 25 106t-8.5 70t-32 40t-45.5 17q-18 4 -45 -1t-51 -19l-17 -8q-35 -23 -66.5 -73t-50.5 -128v-2q-2 -20 9 -25q4 -4 10 -2q10 18 18 11q4 0 8.5 -12.5t-18.5 -22.5q-16 -8 -28.5 -4t-18.5 8l-2 2 l-4 2q-12 12 -24.5 42t3.5 77q23 66 67 101.5t81 53.5q14 4 25.5 8.5t23.5 8.5q39 12 90 10q43 -2 86 -21.5t69.5 -56.5t30.5 -94t-32 -135q-31 -72 -93 -129q-53 -49 -141 -90t-223 -41h-8q-49 4 -86 14q-86 20 -131 67.5t-62.5 104.5t-12.5 115.5t17 103.5q10 37 27.5 70 t34.5 59q16 27 33.5 47.5t35.5 36.5q2 2 3 2t3 2q2 0 3 2q39 35 77.5 51.5t69.5 22.5v6q2 14 12.5 54t42.5 94q-4 2 -7 2t-7 2q-61 16 -134 34.5t-138.5 25.5t-113.5 -2t-58 -46q2 -14 0 -25q-2 -10 -7.5 -16t-15.5 -2q-6 4 -10 12t-2 22.5zM555 573q0 -10 1 -24t9 -27 q10 -10 21 -18q10 -6 20 -7t25 9q10 8 16 18q11 22 -14 45q-29 20 -78 4zM729 805l16 -4q6 0 32 -5t63 -9.5t79 -5.5t78 5h2h5q10 4 30.5 10.5t36.5 20.5t23 33q8 16 -1.5 29.5t-25.5 21.5q-6 2 -14 6q-16 4 -34 7.5t-34 0.5q-4 0 -11 -1t-11 -1q-35 -6 -99.5 -31.5 t-134.5 -76.5zM878 1030.5q-13 8.5 1 10.5q23 -2 43 4t38.5 15t37 19.5t37.5 14.5q2 0 4 1t6 1q10 10 26 0q16 -6 23 -14q0 -2 8 -11q25 -33 43.5 -74.5t56.5 -68.5q10 -10 -5 -8t-39.5 12t-51 24.5t-39.5 28.5l-20 25q-10 -4 -27 -8q-18 -4 -48 1t-55.5 12t-38.5 15.5z" />
<glyph unicode="&#xcb;" horiz-adv-x="1089" d="M74 759.5q2 14.5 12 37.5q8 20 36 45.5t79 41t129 12.5t188 -38q25 -8 48.5 -15t45.5 -14q4 0 7.5 -1t7.5 -1q8 10 18 18.5t21 18.5q45 39 100 68q29 14 63 24q29 10 69 15.5t87 1.5q59 -4 98 -39q10 -12 19 -27q6 -12 8 -28.5t-4 -34.5q-10 -25 -39 -51 q-25 -23 -60.5 -43.5t-78.5 -30.5h-4q-12 -4 -23.5 -5t-23.5 -3h-3h-28q-20 -2 -49 0q-25 2 -60 5t-78 13q-4 0 -5 1t-5 1q-16 -16 -30.5 -34.5t-26.5 -41.5q-8 -12 -15.5 -24.5t-15.5 -26.5q14 0 21 -2q41 -6 59 -20q14 -12 17.5 -24.5t0.5 -22.5q-2 -12 -8 -25 q-27 -35 -58.5 -29t-47.5 25q-12 12 -18.5 26.5t-6.5 20.5q-35 -25 -51 -49q-16 -18 -32.5 -39t-26.5 -41q-14 -25 -22.5 -39t-14.5 -25.5t-10.5 -24.5t-12.5 -34q-41 -119 -33.5 -190.5t33.5 -112.5q10 -18 23.5 -29.5t21.5 -17.5q16 -12 32.5 -18.5t31.5 -10.5 q16 -4 30 -2q92 -6 162 29q16 8 43 26.5t56.5 49t59.5 75.5t52 107q23 63 25 106t-8.5 70t-32 40t-45.5 17q-18 4 -45 -1t-51 -19l-17 -8q-35 -23 -66.5 -73t-50.5 -128v-2q-2 -20 9 -25q4 -4 10 -2q10 18 18 11q4 0 8.5 -12.5t-18.5 -22.5q-16 -8 -28.5 -4t-18.5 8l-2 2 l-4 2q-12 12 -24.5 42t3.5 77q23 66 67 101.5t81 53.5q14 4 25.5 8.5t23.5 8.5q39 12 90 10q43 -2 86 -21.5t69.5 -56.5t30.5 -94t-32 -135q-31 -72 -93 -129q-53 -49 -141 -90t-223 -41h-8q-49 4 -86 14q-86 20 -131 67.5t-62.5 104.5t-12.5 115.5t17 103.5q10 37 27.5 70 t34.5 59q16 27 33.5 47.5t35.5 36.5q2 2 3 2t3 2q2 0 3 2q39 35 77.5 51.5t69.5 22.5v6q2 14 12.5 54t42.5 94q-4 2 -7 2t-7 2q-61 16 -134 34.5t-138.5 25.5t-113.5 -2t-58 -46q2 -14 0 -25q-2 -10 -7.5 -16t-15.5 -2q-6 4 -10 12t-2 22.5zM555 573q0 -10 1 -24t9 -27 q10 -10 21 -18q10 -6 20 -7t25 9q10 8 16 18q11 22 -14 45q-29 20 -78 4zM729 805l16 -4q6 0 32 -5t63 -9.5t79 -5.5t78 5h2h5q10 4 30.5 10.5t36.5 20.5t23 33q8 16 -1.5 29.5t-25.5 21.5q-6 2 -14 6q-16 4 -34 7.5t-34 0.5q-4 0 -11 -1t-11 -1q-35 -6 -99.5 -31.5 t-134.5 -76.5zM957 1055q0 23 16.5 35t38.5 10q45 4 45 -49q2 -25 -13 -37t-38 -12q-23 2 -35 13t-14 40zM1074 1016q0 23 16 35t39 10q45 4 45 -49q2 -25 -13 -37t-38 -12q-23 2 -35 13t-14 40z" />
<glyph unicode="&#xcc;" horiz-adv-x="1032" d="M29 51q-2 63 20 111q18 41 59.5 71.5t122.5 26.5q29 -4 54 -14q23 -10 42 -27.5t29 -46.5q2 -6 3 -13t3 -14v-29.5t-4 -31.5v-2q-10 -59 -42.5 -86t-57.5 -6q-10 8 -9 19t7 22q8 10 18 22q37 47 41 94v18.5t-5 26t-17 23.5t-37 12q-39 4 -63.5 -16.5t-40.5 -46.5 q-18 -31 -29 -72q-16 -70 2 -107.5t47 -56.5q33 -23 80 -28q61 -2 119.5 35.5t112 98t100.5 136.5t84 149q-82 27 -139.5 70t-85 98.5t-22.5 120t46 131.5q45 74 126 121t168 76t163.5 40t113.5 15q39 39 90.5 72t108.5 31q14 0 25 -7q10 -4 16 -12t4 -24q-4 -39 -53 -57.5 t-148 -37.5q-10 -20 -23.5 -44.5t-29.5 -59.5q-14 -31 -29.5 -66.5t-29 -69.5t-25.5 -61.5t-18 -44.5q-6 -16 -21.5 -53t-54.5 -125q-4 -12 -10 -22l-17 -33q0 -2 -1 -4t-1 -4q-4 -8 -9 -18.5t-9 -20.5q14 0 20 -2q27 -2 43.5 1t20.5 5q29 6 55 26q12 10 25 17q10 4 21 3 t20 -11q16 -23 -10.5 -49.5t-79.5 -34.5h-3q-4 -2 -10 -2t-12 -2h-15.5t-17.5 2h-2q-20 2 -38.5 3t-37.5 5q-29 -53 -70.5 -119t-98 -126t-127 -105t-152.5 -60q-10 -2 -21.5 -3t-21.5 -3h-4h2h-20.5t-20.5 2q-57 6 -105 27q-41 16 -75.5 51t-38.5 96zM535.5 534.5 q9.5 -55.5 38 -91t64.5 -55t50 -26.5q25 49 43.5 93.5t30.5 74.5q55 143 100 223.5t74 114.5q10 12 27.5 36t25.5 32q-45 -12 -105.5 -32.5t-121 -52.5t-113.5 -78t-84 -107q-39 -76 -29.5 -131.5zM1083 1220q4 25 24.5 30t55.5 -15q18 -12 35.5 -27.5t36 -32t40 -30 t46.5 -19.5q14 -6 -3.5 -10t-48 -3t-65.5 7t-53 16q-78 41 -68 84zM1110 995q25 4 49.5 8.5t48.5 8.5q14 2 27 8q10 4 19.5 11t9.5 20q2 18 -38.5 17t-97.5 -50q-4 -4 -8 -9t-10 -14z" />
<glyph unicode="&#xcd;" horiz-adv-x="1032" d="M29 51q-2 63 20 111q18 41 59.5 71.5t122.5 26.5q29 -4 54 -14q23 -10 42 -27.5t29 -46.5q2 -6 3 -13t3 -14v-29.5t-4 -31.5v-2q-10 -59 -42.5 -86t-57.5 -6q-10 8 -9 19t7 22q8 10 18 22q37 47 41 94v18.5t-5 26t-17 23.5t-37 12q-39 4 -63.5 -16.5t-40.5 -46.5 q-18 -31 -29 -72q-16 -70 2 -107.5t47 -56.5q33 -23 80 -28q61 -2 119.5 35.5t112 98t100.5 136.5t84 149q-82 27 -139.5 70t-85 98.5t-22.5 120t46 131.5q45 74 126 121t168 76t163.5 40t113.5 15q39 39 90.5 72t108.5 31q14 0 25 -7q10 -4 16 -12t4 -24q-4 -39 -53 -57.5 t-148 -37.5q-10 -20 -23.5 -44.5t-29.5 -59.5q-14 -31 -29.5 -66.5t-29 -69.5t-25.5 -61.5t-18 -44.5q-6 -16 -21.5 -53t-54.5 -125q-4 -12 -10 -22l-17 -33q0 -2 -1 -4t-1 -4q-4 -8 -9 -18.5t-9 -20.5q14 0 20 -2q27 -2 43.5 1t20.5 5q29 6 55 26q12 10 25 17q10 4 21 3 t20 -11q16 -23 -10.5 -49.5t-79.5 -34.5h-3q-4 -2 -10 -2t-12 -2h-15.5t-17.5 2h-2q-20 2 -38.5 3t-37.5 5q-29 -53 -70.5 -119t-98 -126t-127 -105t-152.5 -60q-10 -2 -21.5 -3t-21.5 -3h-4h2h-20.5t-20.5 2q-57 6 -105 27q-41 16 -75.5 51t-38.5 96zM535.5 534.5 q9.5 -55.5 38 -91t64.5 -55t50 -26.5q25 49 43.5 93.5t30.5 74.5q55 143 100 223.5t74 114.5q10 12 27.5 36t25.5 32q-45 -12 -105.5 -32.5t-121 -52.5t-113.5 -78t-84 -107q-39 -76 -29.5 -131.5zM1098 1122q25 6 45.5 19.5t38.5 30t36.5 31.5t37.5 28q35 20 55 15t25 -30 q10 -43 -68 -84q-18 -10 -53 -16t-66 -7t-49 3t-2 10zM1110 995q25 4 49.5 8.5t48.5 8.5q14 2 27 8q10 4 19.5 11t9.5 20q2 18 -38.5 17t-97.5 -50q-4 -4 -8 -9t-10 -14z" />
<glyph unicode="&#xce;" horiz-adv-x="1032" d="M29 51q-2 63 20 111q18 41 59.5 71.5t122.5 26.5q29 -4 54 -14q23 -10 42 -27.5t29 -46.5q2 -6 3 -13t3 -14v-29.5t-4 -31.5v-2q-10 -59 -42.5 -86t-57.5 -6q-10 8 -9 19t7 22q8 10 18 22q37 47 41 94v18.5t-5 26t-17 23.5t-37 12q-39 4 -63.5 -16.5t-40.5 -46.5 q-18 -31 -29 -72q-16 -70 2 -107.5t47 -56.5q33 -23 80 -28q61 -2 119.5 35.5t112 98t100.5 136.5t84 149q-82 27 -139.5 70t-85 98.5t-22.5 120t46 131.5q45 74 126 121t168 76t163.5 40t113.5 15q39 39 90.5 72t108.5 31q14 0 25 -7q10 -4 16 -12t4 -24q-4 -39 -53 -57.5 t-148 -37.5q-10 -20 -23.5 -44.5t-29.5 -59.5q-14 -31 -29.5 -66.5t-29 -69.5t-25.5 -61.5t-18 -44.5q-6 -16 -21.5 -53t-54.5 -125q-4 -12 -10 -22l-17 -33q0 -2 -1 -4t-1 -4q-4 -8 -9 -18.5t-9 -20.5q14 0 20 -2q27 -2 43.5 1t20.5 5q29 6 55 26q12 10 25 17q10 4 21 3 t20 -11q16 -23 -10.5 -49.5t-79.5 -34.5h-3q-4 -2 -10 -2t-12 -2h-15.5t-17.5 2h-2q-20 2 -38.5 3t-37.5 5q-29 -53 -70.5 -119t-98 -126t-127 -105t-152.5 -60q-10 -2 -21.5 -3t-21.5 -3h-4h2h-20.5t-20.5 2q-57 6 -105 27q-41 16 -75.5 51t-38.5 96zM535.5 534.5 q9.5 -55.5 38 -91t64.5 -55t50 -26.5q25 49 43.5 93.5t30.5 74.5q55 143 100 223.5t74 114.5q10 12 27.5 36t25.5 32q-45 -12 -105.5 -32.5t-121 -52.5t-113.5 -78t-84 -107q-39 -76 -29.5 -131.5zM1078 1173.5q-13 8.5 1 10.5q23 -2 43 4t38.5 15t37 19.5t37.5 14.5 q2 0 4 1t6 1q10 10 26 0q16 -6 23 -14q0 -2 8 -11q25 -33 43.5 -74.5t56.5 -68.5q10 -10 -5 -8t-39.5 12t-51 24.5t-39.5 28.5l-20 25q-10 -4 -27 -8q-18 -4 -48 1t-55.5 12t-38.5 15.5zM1110 995q25 4 49.5 8.5t48.5 8.5q14 2 27 8q10 4 19.5 11t9.5 20q2 18 -38.5 17 t-97.5 -50q-4 -4 -8 -9t-10 -14z" />
<glyph unicode="&#xcf;" horiz-adv-x="1032" d="M29 51q-2 63 20 111q18 41 59.5 71.5t122.5 26.5q29 -4 54 -14q23 -10 42 -27.5t29 -46.5q2 -6 3 -13t3 -14v-29.5t-4 -31.5v-2q-10 -59 -42.5 -86t-57.5 -6q-10 8 -9 19t7 22q8 10 18 22q37 47 41 94v18.5t-5 26t-17 23.5t-37 12q-39 4 -63.5 -16.5t-40.5 -46.5 q-18 -31 -29 -72q-16 -70 2 -107.5t47 -56.5q33 -23 80 -28q61 -2 119.5 35.5t112 98t100.5 136.5t84 149q-82 27 -139.5 70t-85 98.5t-22.5 120t46 131.5q45 74 126 121t168 76t163.5 40t113.5 15q39 39 90.5 72t108.5 31q14 0 25 -7q10 -4 16 -12t4 -24q-4 -39 -53 -57.5 t-148 -37.5q-10 -20 -23.5 -44.5t-29.5 -59.5q-14 -31 -29.5 -66.5t-29 -69.5t-25.5 -61.5t-18 -44.5q-6 -16 -21.5 -53t-54.5 -125q-4 -12 -10 -22l-17 -33q0 -2 -1 -4t-1 -4q-4 -8 -9 -18.5t-9 -20.5q14 0 20 -2q27 -2 43.5 1t20.5 5q29 6 55 26q12 10 25 17q10 4 21 3 t20 -11q16 -23 -10.5 -49.5t-79.5 -34.5h-3q-4 -2 -10 -2t-12 -2h-15.5t-17.5 2h-2q-20 2 -38.5 3t-37.5 5q-29 -53 -70.5 -119t-98 -126t-127 -105t-152.5 -60q-10 -2 -21.5 -3t-21.5 -3h-4h2h-20.5t-20.5 2q-57 6 -105 27q-41 16 -75.5 51t-38.5 96zM535.5 534.5 q9.5 -55.5 38 -91t64.5 -55t50 -26.5q25 49 43.5 93.5t30.5 74.5q55 143 100 223.5t74 114.5q10 12 27.5 36t25.5 32q-45 -12 -105.5 -32.5t-121 -52.5t-113.5 -78t-84 -107q-39 -76 -29.5 -131.5zM1110 995q25 4 49.5 8.5t48.5 8.5q14 2 27 8q10 4 19.5 11t9.5 20 q2 18 -38.5 17t-97.5 -50q-4 -4 -8 -9t-10 -14zM1165 1186q0 23 16.5 35t38.5 10q45 4 45 -49q2 -25 -13 -37t-38 -12q-23 2 -35 13t-14 40zM1282 1147q0 23 16 35t39 10q45 4 45 -49q2 -25 -13 -37t-38 -12q-23 2 -35 13t-14 40z" />
<glyph unicode="&#xd0;" horiz-adv-x="1359" d="M27 -127q6 37 35.5 61.5t76.5 37t105.5 13.5t122.5 -10q10 -2 22 -4q10 -2 22.5 -4t24.5 -4q33 47 67 104.5t64 120.5q10 16 17 33q4 8 8 17l10 20q-37 0 -65.5 -3t-40.5 -13q-2 -6 4 -9q6 -4 6 -12q-4 -6 -6 -6t-4 2l-2 2q-6 4 -16.5 22.5t-10.5 41.5q-2 4 -1 10t1 14 l2 2q10 29 32.5 36t35.5 9q16 0 42.5 -2t61.5 -6q10 29 20.5 54.5t20.5 54.5q29 78 68 145q4 6 18 32.5t41 59.5t62.5 68t82.5 59l11 6q2 0 4 2t5 2t7 5q-47 41 -78 59q-18 10 -33 18q-102 63 -233 41q-78 -12 -130 -35.5t-87 -58.5q68 -10 121 -50t65 -118t-8 -122t-49 -66 q-35 -27 -80 -35q-74 -8 -110.5 20.5t-51.5 65.5q-16 43 -12 102q4 55 18.5 97.5t36.5 76.5q-31 0 -58.5 -6t-49.5 -16q-29 -12 -51.5 -31.5t-37 -37t-22.5 -32t-10 -18.5q-18 -39 -12 -94q4 -18 4 -31q0 -12 -5.5 -21.5t-19.5 -11.5q-27 -4 -39 25t-4 72l2 2l8 33 q4 10 7.5 17l7.5 15q14 25 34 49q25 29 52.5 48.5t50.5 29.5q12 6 48 20.5t83 18.5q10 2 18.5 2h18.5q41 47 91 74t95 39q53 14 105 18h49q23 0 52.5 -2t63.5 -8q51 -6 121 -34.5t135 -84.5q90 20 147.5 -1t100.5 -60q43 -41 50.5 -82t-21.5 -51q-14 -4 -22.5 3t-12.5 17 q-6 10 -10 27q-27 74 -79 98.5t-120 18.5q43 -41 78 -93.5t55.5 -117t24.5 -142.5t-16 -170q-29 -127 -84.5 -204.5t-117 -119.5t-117.5 -56.5t-85 -16.5q-16 -4 -35 -4q-10 -2 -20 -2q-53 -4 -125 2t-137 16q-59 -72 -127 -121v2q-18 -12 -47 -26t-65 -24.5t-79 -14.5 t-90 4q-35 8 -59 25q-23 14 -38.5 37.5t-8.5 64.5zM45 -131q-4 -29 9.5 -45.5t29.5 -24.5q20 -10 47 -12q49 -6 95 11.5t84 43t66 53.5t40 42q2 2 3 4t5 4q-16 4 -27.5 5t-19.5 3t-17 4q-117 16 -179 6t-93 -33q-37 -25 -43 -61zM336 631q-4 -53 12.5 -80t36.5 -37 q23 -12 55 -12q41 4 64.5 46t25.5 94t-18 102.5t-70 68.5q-12 4 -24.5 7t-24.5 7q-33 -45 -44 -96t-13 -100zM563 -45q70 6 157 14t171 43t152.5 111t101.5 219q27 113 7.5 202t-60.5 156q-18 33 -41 60.5t-45 50.5l-21 -14q-47 -33 -76 -92q-6 -10 -13 -23.5t-13 -28.5 q-23 -47 -50.5 -130t-68.5 -183q35 0 61.5 4t38.5 14q2 6 -4 9q-6 2 -6 12q0 4 6 4h4l2 -2q4 -4 15.5 -22.5t11.5 -41.5q2 -4 1 -10t-1 -14l-2 -2q-10 -29 -33 -36t-35 -9q-14 0 -39.5 2t-56.5 4l-22 -51q-4 -10 -9 -19q-4 -8 -9 -17t-9 -20q-51 -106 -115 -190z" />
<glyph unicode="&#xd1;" horiz-adv-x="1595" d="M29 57q0 139 56 252t140 188.5t182.5 109.5t182.5 20q61 -8 106 -45q39 -31 67 -95.5t17 -177.5q-12 -111 -54 -191.5t-101.5 -127.5t-129 -60.5t-133.5 9.5q-47 16 -71.5 58t-25.5 94t22.5 106.5t70.5 95.5q2 4 15.5 14t36.5 19q18 8 57 14q49 6 102 -18 q27 -12 46.5 -36t27.5 -63q4 -14 4 -28q0 -12 -3 -30t-11 -34q-8 -12 -12 -20q-4 -4 -9.5 -10.5t-11.5 -10.5q-10 -8 -21.5 -17.5t-27.5 -15.5h-2q-55 -27 -96 -16.5t-37 43.5q0 14 10 19.5t20 7.5q12 2 29 -2q59 -6 103 20q4 2 14 10t17 20.5t8 29t-11 36.5q-18 31 -47 39 t-57.5 7t-52 -8t-29.5 -9q-94 -47 -121 -162q2 -33 14 -59q10 -23 35 -44.5t72 -25.5q47 -6 104.5 12.5t106.5 67.5t83 133t34 211q-2 51 -19 94q-16 35 -48 68t-91 41q-80 6 -158 -31q-33 -16 -68.5 -45t-70.5 -74t-67.5 -108.5t-59.5 -151.5q-4 -10 -6 -20t-6 -21 q-2 -4 -2 -12q-2 -6 -2 -14.5t-3 -18.5q-4 -39 -2 -97t23.5 -112.5t68 -92.5t132.5 -34q96 4 200.5 82t204.5 205t187.5 291t148.5 342q-6 23 -12 46.5t-11 47.5q-23 117 -6 189.5t64 80.5q31 6 47 -11t22.5 -45t5.5 -59.5t-3 -56.5q0 -4 -3 -12q-4 -14 -6 -33 q-2 -10 -4 -21t-6 -26q-4 -10 -8 -23.5t-8 -29.5q16 -41 37.5 -93t48.5 -108v-2q12 -29 19 -46t18 -42q18 -41 33.5 -85t27.5 -85q4 6 8 23l15 39q25 72 62.5 166t92.5 215q55 119 106.5 187.5t96.5 101t82 35.5t61 -9q10 -4 16.5 -9t12.5 -12q4 -6 7 -12t5 -12q6 -18 6 -39 q-2 -16 -4 -27.5t-4 -17.5q-2 -2 -2 -4q-16 -49 -44 -68.5t-36 -23.5q-2 -2 -6 -2l-2 -2h-4l-2 -2q-10 -2 -24.5 0t-26.5 18q-16 18 -6 28.5t16 8.5q10 0 10 -17q4 -2 10 -2q4 0 9.5 1t11.5 10q4 6 13 24.5t12 50.5q0 4 1 11.5t1 11.5v10q-2 25 -10.5 33t-16.5 10 q-10 0 -16 -6q-16 -10 -31 -37q-45 -92 -96 -205q-43 -96 -98.5 -225t-112.5 -278q0 -2 -4 -11q-2 -8 -11 -28q-14 -35 -27.5 -68t-23.5 -65q-10 -25 -16 -48.5t-11 -46.5q-12 -55 -6 -93t41 -50q16 0 29 -2q27 -4 18 -25q-6 -8 -16 -12t-26.5 -2t-43.5 14 q-18 10 -38.5 29.5t-32.5 56.5q-12 27 -13 66q-2 35 5 92q-16 80 -39 172t-52 186q-6 18 -18 55.5t-27 71.5q-2 2 -3 6.5t-3 8.5q-4 10 -9 25.5t-13 35.5l-11 -31q-2 -8 -4 -10q-20 -51 -45.5 -110.5t-60.5 -126.5q-4 -4 -14.5 -26t-18.5 -38q-55 -117 -122.5 -225.5 t-149.5 -192.5t-177.5 -134t-205.5 -48q-84 8 -152 51q-57 37 -103 117t-46 225zM1126.5 983q-2.5 -29 1.5 -74q2 -6 6.5 -33.5t14.5 -70.5q4 18 9 36.5t9 35.5q0 4 1 6t1 4q4 23 6.5 47t0.5 43.5t-8.5 32t-18.5 10.5q-2 0 -4 -1t-4 -1q-12 -6 -14.5 -35zM1317 1116 q14 10 42 22.5t60.5 19.5t51.5 -3q23 -14 34 -23l13 -6q18 -12 35.5 -24.5t37 -20.5t44 -11t57.5 5q16 4 -3.5 -7.5t-54 -23.5t-72.5 -19.5t-57 3.5q-18 8 -36 22l-11 6q-18 12 -31.5 26.5t-27.5 25t-31.5 13.5t-48.5 -9q-16 -6 -2 4z" />
<glyph unicode="&#xd2;" horiz-adv-x="1038" d="M50 777.5q1 13.5 11 35.5q8 20 34 47t77 42.5t129 12t188 -37.5q25 -8 48.5 -15.5t46.5 -13.5q41 35 78.5 58.5t68.5 39.5q2 2 4 2l13 6q6 4 15 8.5t19 8.5q16 4 25 8q8 2 18 4t20.5 4t26.5 4q37 2 80 0q29 -4 53.5 -12t45.5 -27q10 -10 18 -20q14 -23 12 -53 q0 -10 -4 -17v-2q-2 -12 -14 -26q-4 -6 -9 -12.5t-12 -12.5q-25 -23 -58.5 -42t-76.5 -30q-2 0 -3 -1t-3 -1q-10 -2 -21.5 -3t-23.5 -3h-4q-8 -2 -29 -2q-20 -2 -49 0q-25 2 -59.5 6t-79.5 15h-6q-53 -49 -93 -96.5t-67 -84.5q-31 -43 -51 -84q-51 -98 -75 -172.5t-28 -131 t7.5 -96.5t31.5 -67q47 -63 140 -79q66 -10 123 14t104 68t84 103.5t59 121.5q43 119 53.5 197.5t-2 122.5t-38 57.5t-52.5 3.5q-18 -8 -41 -25q-18 -14 -40.5 -38.5t-45.5 -63.5l-12 -25l-6 -12q-41 -82 -48 -133.5t-1 -67.5t20.5 -14t20.5 6q16 6 25.5 16.5t13.5 16.5 q31 41 37 100q-2 16 2 29q4 10 10 19t20 11q33 0 37 -41t-31 -94l-2 -2q-8 -16 -18 -27.5t-21 -21.5q-16 -12 -22 -18q-27 -14 -53 -19q-49 0 -72 15q-23 14 -31 37.5t-8 51t6 55.5t15 52q4 12 7 22.5t7 18.5l8 16q39 86 82 130.5t82 62.5q43 22 88 18q49 -6 84 -34 q29 -27 44 -80.5t-5 -149.5q-16 -72 -55 -164t-98.5 -174t-138.5 -135t-175 -49q-121 4 -190.5 61.5t-91 147.5t3 201.5t96.5 226.5q45 72 89 128t89 101q-61 16 -132 32.5t-132.5 22t-105.5 -4t-52 -46.5q2 -16 0 -24q-4 -20 -21 -17q-6 4 -10 13q-4 8 -3 21.5zM702 823 l17 -4h2q4 -2 29.5 -7t62.5 -9t79 -5t79 5l2 2h4q10 2 30.5 8t36.5 21q4 6 9.5 11t9.5 13q4 4 4 10q6 16 -3 29.5t-28 22.5q-2 2 -5 3t-7 3q-31 8 -70 8q-4 -2 -10 -2t-10 -2q-35 -6 -99.5 -31t-132.5 -76zM915 1169q4 25 24.5 30t55.5 -15q18 -12 35.5 -27.5t36 -32t40 -30 t46.5 -19.5q14 -6 -3.5 -10t-48 -3t-65.5 7t-53 16q-78 41 -68 84z" />
<glyph unicode="&#xd3;" horiz-adv-x="1038" d="M50 777.5q1 13.5 11 35.5q8 20 34 47t77 42.5t129 12t188 -37.5q25 -8 48.5 -15.5t46.5 -13.5q41 35 78.5 58.5t68.5 39.5q2 2 4 2l13 6q6 4 15 8.5t19 8.5q16 4 25 8q8 2 18 4t20.5 4t26.5 4q37 2 80 0q29 -4 53.5 -12t45.5 -27q10 -10 18 -20q14 -23 12 -53 q0 -10 -4 -17v-2q-2 -12 -14 -26q-4 -6 -9 -12.5t-12 -12.5q-25 -23 -58.5 -42t-76.5 -30q-2 0 -3 -1t-3 -1q-10 -2 -21.5 -3t-23.5 -3h-4q-8 -2 -29 -2q-20 -2 -49 0q-25 2 -59.5 6t-79.5 15h-6q-53 -49 -93 -96.5t-67 -84.5q-31 -43 -51 -84q-51 -98 -75 -172.5t-28 -131 t7.5 -96.5t31.5 -67q47 -63 140 -79q66 -10 123 14t104 68t84 103.5t59 121.5q43 119 53.5 197.5t-2 122.5t-38 57.5t-52.5 3.5q-18 -8 -41 -25q-18 -14 -40.5 -38.5t-45.5 -63.5l-12 -25l-6 -12q-41 -82 -48 -133.5t-1 -67.5t20.5 -14t20.5 6q16 6 25.5 16.5t13.5 16.5 q31 41 37 100q-2 16 2 29q4 10 10 19t20 11q33 0 37 -41t-31 -94l-2 -2q-8 -16 -18 -27.5t-21 -21.5q-16 -12 -22 -18q-27 -14 -53 -19q-49 0 -72 15q-23 14 -31 37.5t-8 51t6 55.5t15 52q4 12 7 22.5t7 18.5l8 16q39 86 82 130.5t82 62.5q43 22 88 18q49 -6 84 -34 q29 -27 44 -80.5t-5 -149.5q-16 -72 -55 -164t-98.5 -174t-138.5 -135t-175 -49q-121 4 -190.5 61.5t-91 147.5t3 201.5t96.5 226.5q45 72 89 128t89 101q-61 16 -132 32.5t-132.5 22t-105.5 -4t-52 -46.5q2 -16 0 -24q-4 -20 -21 -17q-6 4 -10 13q-4 8 -3 21.5zM702 823 l17 -4h2q4 -2 29.5 -7t62.5 -9t79 -5t79 5l2 2h4q10 2 30.5 8t36.5 21q4 6 9.5 11t9.5 13q4 4 4 10q6 16 -3 29.5t-28 22.5q-2 2 -5 3t-7 3q-31 8 -70 8q-4 -2 -10 -2t-10 -2q-35 -6 -99.5 -31t-132.5 -76zM909 1075q25 6 45.5 19.5t38.5 30t36.5 31.5t37.5 28q35 20 55 15 t25 -30q10 -43 -68 -84q-18 -10 -53 -16t-66 -7t-49 3t-2 10z" />
<glyph unicode="&#xd4;" horiz-adv-x="1038" d="M50 777.5q1 13.5 11 35.5q8 20 34 47t77 42.5t129 12t188 -37.5q25 -8 48.5 -15.5t46.5 -13.5q41 35 78.5 58.5t68.5 39.5q2 2 4 2l13 6q6 4 15 8.5t19 8.5q16 4 25 8q8 2 18 4t20.5 4t26.5 4q37 2 80 0q29 -4 53.5 -12t45.5 -27q10 -10 18 -20q14 -23 12 -53 q0 -10 -4 -17v-2q-2 -12 -14 -26q-4 -6 -9 -12.5t-12 -12.5q-25 -23 -58.5 -42t-76.5 -30q-2 0 -3 -1t-3 -1q-10 -2 -21.5 -3t-23.5 -3h-4q-8 -2 -29 -2q-20 -2 -49 0q-25 2 -59.5 6t-79.5 15h-6q-53 -49 -93 -96.5t-67 -84.5q-31 -43 -51 -84q-51 -98 -75 -172.5t-28 -131 t7.5 -96.5t31.5 -67q47 -63 140 -79q66 -10 123 14t104 68t84 103.5t59 121.5q43 119 53.5 197.5t-2 122.5t-38 57.5t-52.5 3.5q-18 -8 -41 -25q-18 -14 -40.5 -38.5t-45.5 -63.5l-12 -25l-6 -12q-41 -82 -48 -133.5t-1 -67.5t20.5 -14t20.5 6q16 6 25.5 16.5t13.5 16.5 q31 41 37 100q-2 16 2 29q4 10 10 19t20 11q33 0 37 -41t-31 -94l-2 -2q-8 -16 -18 -27.5t-21 -21.5q-16 -12 -22 -18q-27 -14 -53 -19q-49 0 -72 15q-23 14 -31 37.5t-8 51t6 55.5t15 52q4 12 7 22.5t7 18.5l8 16q39 86 82 130.5t82 62.5q43 22 88 18q49 -6 84 -34 q29 -27 44 -80.5t-5 -149.5q-16 -72 -55 -164t-98.5 -174t-138.5 -135t-175 -49q-121 4 -190.5 61.5t-91 147.5t3 201.5t96.5 226.5q45 72 89 128t89 101q-61 16 -132 32.5t-132.5 22t-105.5 -4t-52 -46.5q2 -16 0 -24q-4 -20 -21 -17q-6 4 -10 13q-4 8 -3 21.5zM702 823 l17 -4h2q4 -2 29.5 -7t62.5 -9t79 -5t79 5l2 2h4q10 2 30.5 8t36.5 21q4 6 9.5 11t9.5 13q4 4 4 10q6 16 -3 29.5t-28 22.5q-2 2 -5 3t-7 3q-31 8 -70 8q-4 -2 -10 -2t-10 -2q-35 -6 -99.5 -31t-132.5 -76zM837 1089.5q-13 8.5 1 10.5q23 -2 43 4t38.5 15t37 19.5t37.5 14.5 q2 0 4 1t6 1q10 10 26 0q16 -6 23 -14q0 -2 8 -11q25 -33 43.5 -74.5t56.5 -68.5q10 -10 -5 -8t-39.5 12t-51 24.5t-39.5 28.5l-20 25q-10 -4 -27 -8q-18 -4 -48 1t-55.5 12t-38.5 15.5z" />
<glyph unicode="&#xd5;" horiz-adv-x="1038" d="M50 777.5q1 13.5 11 35.5q8 20 34 47t77 42.5t129 12t188 -37.5q25 -8 48.5 -15.5t46.5 -13.5q41 35 78.5 58.5t68.5 39.5q2 2 4 2l13 6q6 4 15 8.5t19 8.5q16 4 25 8q8 2 18 4t20.5 4t26.5 4q37 2 80 0q29 -4 53.5 -12t45.5 -27q10 -10 18 -20q14 -23 12 -53 q0 -10 -4 -17v-2q-2 -12 -14 -26q-4 -6 -9 -12.5t-12 -12.5q-25 -23 -58.5 -42t-76.5 -30q-2 0 -3 -1t-3 -1q-10 -2 -21.5 -3t-23.5 -3h-4q-8 -2 -29 -2q-20 -2 -49 0q-25 2 -59.5 6t-79.5 15h-6q-53 -49 -93 -96.5t-67 -84.5q-31 -43 -51 -84q-51 -98 -75 -172.5t-28 -131 t7.5 -96.5t31.5 -67q47 -63 140 -79q66 -10 123 14t104 68t84 103.5t59 121.5q43 119 53.5 197.5t-2 122.5t-38 57.5t-52.5 3.5q-18 -8 -41 -25q-18 -14 -40.5 -38.5t-45.5 -63.5l-12 -25l-6 -12q-41 -82 -48 -133.5t-1 -67.5t20.5 -14t20.5 6q16 6 25.5 16.5t13.5 16.5 q31 41 37 100q-2 16 2 29q4 10 10 19t20 11q33 0 37 -41t-31 -94l-2 -2q-8 -16 -18 -27.5t-21 -21.5q-16 -12 -22 -18q-27 -14 -53 -19q-49 0 -72 15q-23 14 -31 37.5t-8 51t6 55.5t15 52q4 12 7 22.5t7 18.5l8 16q39 86 82 130.5t82 62.5q43 22 88 18q49 -6 84 -34 q29 -27 44 -80.5t-5 -149.5q-16 -72 -55 -164t-98.5 -174t-138.5 -135t-175 -49q-121 4 -190.5 61.5t-91 147.5t3 201.5t96.5 226.5q45 72 89 128t89 101q-61 16 -132 32.5t-132.5 22t-105.5 -4t-52 -46.5q2 -16 0 -24q-4 -20 -21 -17q-6 4 -10 13q-4 8 -3 21.5zM702 823 l17 -4h2q4 -2 29.5 -7t62.5 -9t79 -5t79 5l2 2h4q10 2 30.5 8t36.5 21q4 6 9.5 11t9.5 13q4 4 4 10q6 16 -3 29.5t-28 22.5q-2 2 -5 3t-7 3q-31 8 -70 8q-4 -2 -10 -2t-10 -2q-35 -6 -99.5 -31t-132.5 -76zM862 1141q14 10 42 22.5t60.5 19.5t51.5 -3q23 -14 34 -23l13 -6 q18 -12 35.5 -24.5t37 -20.5t44 -11t57.5 5q16 4 -3.5 -7.5t-54 -23.5t-72.5 -19.5t-57 3.5q-18 8 -36 22l-11 6q-18 12 -31.5 26.5t-27.5 25t-31.5 13.5t-48.5 -9q-16 -6 -2 4z" />
<glyph unicode="&#xd6;" horiz-adv-x="1038" d="M50 777.5q1 13.5 11 35.5q8 20 34 47t77 42.5t129 12t188 -37.5q25 -8 48.5 -15.5t46.5 -13.5q41 35 78.5 58.5t68.5 39.5q2 2 4 2l13 6q6 4 15 8.5t19 8.5q16 4 25 8q8 2 18 4t20.5 4t26.5 4q37 2 80 0q29 -4 53.5 -12t45.5 -27q10 -10 18 -20q14 -23 12 -53 q0 -10 -4 -17v-2q-2 -12 -14 -26q-4 -6 -9 -12.5t-12 -12.5q-25 -23 -58.5 -42t-76.5 -30q-2 0 -3 -1t-3 -1q-10 -2 -21.5 -3t-23.5 -3h-4q-8 -2 -29 -2q-20 -2 -49 0q-25 2 -59.5 6t-79.5 15h-6q-53 -49 -93 -96.5t-67 -84.5q-31 -43 -51 -84q-51 -98 -75 -172.5t-28 -131 t7.5 -96.5t31.5 -67q47 -63 140 -79q66 -10 123 14t104 68t84 103.5t59 121.5q43 119 53.5 197.5t-2 122.5t-38 57.5t-52.5 3.5q-18 -8 -41 -25q-18 -14 -40.5 -38.5t-45.5 -63.5l-12 -25l-6 -12q-41 -82 -48 -133.5t-1 -67.5t20.5 -14t20.5 6q16 6 25.5 16.5t13.5 16.5 q31 41 37 100q-2 16 2 29q4 10 10 19t20 11q33 0 37 -41t-31 -94l-2 -2q-8 -16 -18 -27.5t-21 -21.5q-16 -12 -22 -18q-27 -14 -53 -19q-49 0 -72 15q-23 14 -31 37.5t-8 51t6 55.5t15 52q4 12 7 22.5t7 18.5l8 16q39 86 82 130.5t82 62.5q43 22 88 18q49 -6 84 -34 q29 -27 44 -80.5t-5 -149.5q-16 -72 -55 -164t-98.5 -174t-138.5 -135t-175 -49q-121 4 -190.5 61.5t-91 147.5t3 201.5t96.5 226.5q45 72 89 128t89 101q-61 16 -132 32.5t-132.5 22t-105.5 -4t-52 -46.5q2 -16 0 -24q-4 -20 -21 -17q-6 4 -10 13q-4 8 -3 21.5zM702 823 l17 -4h2q4 -2 29.5 -7t62.5 -9t79 -5t79 5l2 2h4q10 2 30.5 8t36.5 21q4 6 9.5 11t9.5 13q4 4 4 10q6 16 -3 29.5t-28 22.5q-2 2 -5 3t-7 3q-31 8 -70 8q-4 -2 -10 -2t-10 -2q-35 -6 -99.5 -31t-132.5 -76zM942 1110q0 23 16.5 35t38.5 10q45 4 45 -49q2 -25 -13 -37 t-38 -12q-23 2 -35 13t-14 40zM1059 1071q0 23 16 35t39 10q45 4 45 -49q2 -25 -13 -37t-38 -12q-23 2 -35 13t-14 40z" />
<glyph unicode="&#xd7;" horiz-adv-x="464" d="M45 371v2q-2 8 4 28.5t23 36.5q4 6 16 17l4 2q29 12 48.5 2t29.5 -21q16 -16 46 -53t64.5 -75t68.5 -67.5t57 -31.5q6 2 4 8q-4 4 -2 7t4 7q6 2 8 0l4 -4v-4q0 -6 -5 -26.5t-22 -36.5q-2 -4 -7 -8t-11 -11l-2 2q-29 -14 -49.5 -3.5t-28.5 18.5q-16 14 -46 51t-64.5 76 t-68.5 68.5t-57 33.5q-6 -4 -4 -10q0 -8 -4 -10q-6 -6 -8 -2q-2 2 -2 4zM76 205q10 20 18 28q14 14 51 45t76 66t68.5 68.5t34.5 56.5q-4 6 -11 4q-8 0 -10 4q-6 4 -2 8q2 2 4 2h2q8 2 28.5 -4t37.5 -22q6 -4 16 -17l2 -4q12 -29 2 -48t-20 -30q-16 -16 -53 -45.5t-75 -64.5 t-68 -68.5t-32 -56.5q2 -6 9 -4q4 4 7 2t7 -4q4 -6 0 -10q-2 -2 -4 -2h-4q-6 0 -26.5 5t-37.5 21q-4 2 -8 7t-10 12l2 2q-14 29 -4 49z" />
<glyph unicode="&#xd8;" horiz-adv-x="1038" d="M50 777.5q1 13.5 11 35.5q8 20 34 47t77 42.5t129 12t188 -37.5q25 -8 48.5 -15.5t46.5 -13.5q41 35 78.5 58.5t68.5 39.5q2 2 4 2l13 6q6 4 15 8.5t19 8.5q16 4 25 8q8 2 18 4t20.5 4t26.5 4q10 0 22.5 1t25.5 1q35 72 32 88q-2 2 -10 -4q-6 -4 -16 0q-6 4 -2 8l4 5l4 2 q8 4 34.5 10t49.5 -4q6 0 19.5 -3t19.5 -8l2 -2q25 -23 18.5 -53.5t-12.5 -44.5l-19 -31q2 0 7 -4q10 -10 18 -20q14 -23 12 -53q0 -10 -4 -17v-2q-2 -12 -14 -26q-4 -6 -9 -12.5t-12 -12.5q-25 -23 -57.5 -42t-73.5 -30q-6 -10 -12 -21t-14 -22q18 -6 40.5 -19t40 -43 t22.5 -77t-11 -119t-55 -164t-98.5 -174t-138.5 -135t-175 -49l-64 6q-20 -51 -18 -61q2 0 10 2q8 8 17 2q4 -2 4 -8q0 -2 -2 -5h-4q-2 0 -2 -2q-10 -4 -37 -11t-49 3q-14 2 -29 10v7q-25 25 -19.5 52.5t11.5 43.5q0 2 2 5t4 7q-59 39 -88 102.5t-29 141.5t27.5 166 t83.5 176q45 72 89 128t89 101q-61 16 -132 32.5t-132.5 22t-105.5 -4t-52 -46.5q2 -16 0 -24q-4 -20 -21 -17q-6 4 -10 13q-4 8 -3 21.5zM314 170q-3 -57 9.5 -97t34.5 -67l201 338q2 23 8 45.5t13 42.5q4 12 7 22.5t7 18.5l8 16q35 78 74 120t74 63l30 55q-25 2 -60.5 6 t-84.5 15h-6q-53 -49 -93 -96.5t-67 -84.5q-31 -43 -51 -84q-53 -102 -77 -179t-27 -134zM457 -55q8 -4 15 -4t11 -2q6 -2 11 -2q66 -10 123 14t104 68t84 103.5t59 121.5q39 106 50.5 181t4 120t-28 64.5t-44.5 19.5q-53 -90 -108.5 -183.5t-108.5 -185.5h2q6 -16 20.5 -14 t20.5 6q16 6 25.5 16.5t13.5 16.5q31 41 37 100q-2 16 2 29q4 10 10 19t20 11q33 0 37 -41t-31 -94l-2 -2q-8 -16 -18 -27.5t-21 -21.5l-22 -18q-27 -14 -53 -19q-35 0 -60 6q-49 -86 -89 -158.5t-64 -123.5zM702 823l17 -4h2q4 -2 31.5 -7t68.5 -9l62 115q-39 -12 -86 -36 t-95 -59zM950 799l21 4l2 2h4q10 2 30.5 8t36.5 21q4 6 9.5 11t9.5 13q4 4 4 10q6 16 -3 29.5t-28 22.5q-2 2 -4 2t-6 2q-16 -25 -34.5 -55.5t-41.5 -69.5z" />
<glyph unicode="&#xd9;" horiz-adv-x="1105" d="M27 627q-4 37 8 78q4 10 5 17t5 15v2q4 8 8 16.5t8 16.5q31 55 76 91t101 65q74 33 157.5 45t163.5 16q47 4 90 5t62 3q39 39 90 72t110 31q14 0 25 -4q10 -4 16 -13.5t4 -25.5q-4 -39 -52 -57.5t-146 -36.5q-25 -37 -56 -105q-27 -63 -55.5 -131t-42.5 -100 q-4 -10 -8 -19.5t-12.5 -26t-20.5 -45t-33 -73.5q-6 -12 -10 -23q-4 -10 -7 -19t-7 -15q-2 -4 -15.5 -34t-31 -73t-35.5 -92t-27.5 -92t-7.5 -75t25 -36q29 -6 84 32t128.5 120t162 203.5t182.5 285.5q8 18 13 29.5t15 32.5q53 121 111 192q37 51 72 80t64.5 41t54 11 t42.5 -9q20 -10 29 -21q6 -8 14 -24q6 -20 5 -41q0 -14 -2.5 -25.5t-4.5 -17.5l-2 -4q-16 -49 -43.5 -69.5t-35.5 -24.5q-4 0 -7 -2h-2q-2 0 -2 -1t-2 -1h-4q-10 -2 -23.5 0t-25.5 16q-16 20 -6 30.5t14 8.5q12 0 12 -19q4 -2 11 -2q10 0 18 11q6 6 15.5 24.5t11.5 52.5v21 v12q0 25 -8.5 33t-16.5 8q-10 2 -16 -4q-20 -14 -31 -37q-45 -92 -96 -205q-43 -96 -98.5 -225t-112.5 -278q0 -2 -4 -11q-4 -8 -5 -15t-5 -13q-14 -35 -27.5 -68t-24.5 -65q-10 -25 -16 -48.5t-12 -46.5q-12 -55 -5 -94t42 -49q16 0 28 -2q27 -4 19 -25q-8 -8 -19 -12 q-10 -4 -26.5 -2t-40.5 14q-18 10 -39 29.5t-35 56.5q-8 27 -12 66q-2 57 18 145q4 16 9 35t14 39q8 23 16 51.5t20 63.5l15 39q12 37 28.5 81t36.5 95q-61 -100 -131.5 -200.5t-141.5 -178.5t-136.5 -121t-120.5 -31q-27 2 -45 21q-16 16 -28.5 47t-8.5 90q2 31 6 58.5 t14.5 59.5t25.5 71.5t40 93.5q16 37 30.5 70.5t26.5 58.5q31 68 55.5 118t45 87.5t38 65.5t33.5 52q4 8 12.5 20.5t16.5 25t14.5 21.5t10.5 13v2q-23 -4 -45.5 -7t-45.5 -7q-61 -10 -104 -17.5t-72 -11.5q-16 -4 -28.5 -6t-14.5 -2q-49 -10 -97 -24.5t-89 -38t-71.5 -55.5 t-45.5 -75q-8 -39 0 -69q8 -27 33 -50.5t82 -29.5q37 -6 70 0q29 4 53 17.5t31 43.5q6 23 0.5 39.5t-14.5 27.5t-19 16t-15 8q-41 10 -86 -7q-12 -6 -22 -8t-18.5 0t-12.5 12q-8 25 21.5 42.5t76.5 11.5q0 -2 3 -2q14 0 25 -4.5t22 -8.5q8 -4 20 -12q27 -14 35 -36.5 t8 -45.5q0 -27 -10 -55q-23 -59 -60.5 -81t-74.5 -22q-43 -2 -90 19q-47 20 -63.5 53t-20.5 66zM786 1006h23q6 0 8 2q16 4 33.5 5t34.5 5q14 2 26 8q27 10 29 31q0 18 -40 18t-95 -51q-10 -6 -19 -18zM985 1179q4 25 24.5 30t55.5 -15q18 -12 35.5 -27.5t36 -32t40 -30 t46.5 -19.5q14 -6 -3.5 -10t-48 -3t-65.5 7t-53 16q-78 41 -68 84z" />
<glyph unicode="&#xda;" horiz-adv-x="1105" d="M27 627q-4 37 8 78q4 10 5 17t5 15v2q4 8 8 16.5t8 16.5q31 55 76 91t101 65q74 33 157.5 45t163.5 16q47 4 90 5t62 3q39 39 90 72t110 31q14 0 25 -4q10 -4 16 -13.5t4 -25.5q-4 -39 -52 -57.5t-146 -36.5q-25 -37 -56 -105q-27 -63 -55.5 -131t-42.5 -100 q-4 -10 -8 -19.5t-12.5 -26t-20.5 -45t-33 -73.5q-6 -12 -10 -23q-4 -10 -7 -19t-7 -15q-2 -4 -15.5 -34t-31 -73t-35.5 -92t-27.5 -92t-7.5 -75t25 -36q29 -6 84 32t128.5 120t162 203.5t182.5 285.5q8 18 13 29.5t15 32.5q53 121 111 192q37 51 72 80t64.5 41t54 11 t42.5 -9q20 -10 29 -21q6 -8 14 -24q6 -20 5 -41q0 -14 -2.5 -25.5t-4.5 -17.5l-2 -4q-16 -49 -43.5 -69.5t-35.5 -24.5q-4 0 -7 -2h-2q-2 0 -2 -1t-2 -1h-4q-10 -2 -23.5 0t-25.5 16q-16 20 -6 30.5t14 8.5q12 0 12 -19q4 -2 11 -2q10 0 18 11q6 6 15.5 24.5t11.5 52.5v21 v12q0 25 -8.5 33t-16.5 8q-10 2 -16 -4q-20 -14 -31 -37q-45 -92 -96 -205q-43 -96 -98.5 -225t-112.5 -278q0 -2 -4 -11q-4 -8 -5 -15t-5 -13q-14 -35 -27.5 -68t-24.5 -65q-10 -25 -16 -48.5t-12 -46.5q-12 -55 -5 -94t42 -49q16 0 28 -2q27 -4 19 -25q-8 -8 -19 -12 q-10 -4 -26.5 -2t-40.5 14q-18 10 -39 29.5t-35 56.5q-8 27 -12 66q-2 57 18 145q4 16 9 35t14 39q8 23 16 51.5t20 63.5l15 39q12 37 28.5 81t36.5 95q-61 -100 -131.5 -200.5t-141.5 -178.5t-136.5 -121t-120.5 -31q-27 2 -45 21q-16 16 -28.5 47t-8.5 90q2 31 6 58.5 t14.5 59.5t25.5 71.5t40 93.5q16 37 30.5 70.5t26.5 58.5q31 68 55.5 118t45 87.5t38 65.5t33.5 52q4 8 12.5 20.5t16.5 25t14.5 21.5t10.5 13v2q-23 -4 -45.5 -7t-45.5 -7q-61 -10 -104 -17.5t-72 -11.5q-16 -4 -28.5 -6t-14.5 -2q-49 -10 -97 -24.5t-89 -38t-71.5 -55.5 t-45.5 -75q-8 -39 0 -69q8 -27 33 -50.5t82 -29.5q37 -6 70 0q29 4 53 17.5t31 43.5q6 23 0.5 39.5t-14.5 27.5t-19 16t-15 8q-41 10 -86 -7q-12 -6 -22 -8t-18.5 0t-12.5 12q-8 25 21.5 42.5t76.5 11.5q0 -2 3 -2q14 0 25 -4.5t22 -8.5q8 -4 20 -12q27 -14 35 -36.5 t8 -45.5q0 -27 -10 -55q-23 -59 -60.5 -81t-74.5 -22q-43 -2 -90 19q-47 20 -63.5 53t-20.5 66zM786 1006h23q6 0 8 2q16 4 33.5 5t34.5 5q14 2 26 8q27 10 29 31q0 18 -40 18t-95 -51q-10 -6 -19 -18zM1016 1089q25 6 45.5 19.5t38.5 30t36.5 31.5t37.5 28q35 20 55 15 t25 -30q10 -43 -68 -84q-18 -10 -53 -16t-66 -7t-49 3t-2 10z" />
<glyph unicode="&#xdb;" horiz-adv-x="1105" d="M27 627q-4 37 8 78q4 10 5 17t5 15v2q4 8 8 16.5t8 16.5q31 55 76 91t101 65q74 33 157.5 45t163.5 16q47 4 90 5t62 3q39 39 90 72t110 31q14 0 25 -4q10 -4 16 -13.5t4 -25.5q-4 -39 -52 -57.5t-146 -36.5q-25 -37 -56 -105q-27 -63 -55.5 -131t-42.5 -100 q-4 -10 -8 -19.5t-12.5 -26t-20.5 -45t-33 -73.5q-6 -12 -10 -23q-4 -10 -7 -19t-7 -15q-2 -4 -15.5 -34t-31 -73t-35.5 -92t-27.5 -92t-7.5 -75t25 -36q29 -6 84 32t128.5 120t162 203.5t182.5 285.5q8 18 13 29.5t15 32.5q53 121 111 192q37 51 72 80t64.5 41t54 11 t42.5 -9q20 -10 29 -21q6 -8 14 -24q6 -20 5 -41q0 -14 -2.5 -25.5t-4.5 -17.5l-2 -4q-16 -49 -43.5 -69.5t-35.5 -24.5q-4 0 -7 -2h-2q-2 0 -2 -1t-2 -1h-4q-10 -2 -23.5 0t-25.5 16q-16 20 -6 30.5t14 8.5q12 0 12 -19q4 -2 11 -2q10 0 18 11q6 6 15.5 24.5t11.5 52.5v21 v12q0 25 -8.5 33t-16.5 8q-10 2 -16 -4q-20 -14 -31 -37q-45 -92 -96 -205q-43 -96 -98.5 -225t-112.5 -278q0 -2 -4 -11q-4 -8 -5 -15t-5 -13q-14 -35 -27.5 -68t-24.5 -65q-10 -25 -16 -48.5t-12 -46.5q-12 -55 -5 -94t42 -49q16 0 28 -2q27 -4 19 -25q-8 -8 -19 -12 q-10 -4 -26.5 -2t-40.5 14q-18 10 -39 29.5t-35 56.5q-8 27 -12 66q-2 57 18 145q4 16 9 35t14 39q8 23 16 51.5t20 63.5l15 39q12 37 28.5 81t36.5 95q-61 -100 -131.5 -200.5t-141.5 -178.5t-136.5 -121t-120.5 -31q-27 2 -45 21q-16 16 -28.5 47t-8.5 90q2 31 6 58.5 t14.5 59.5t25.5 71.5t40 93.5q16 37 30.5 70.5t26.5 58.5q31 68 55.5 118t45 87.5t38 65.5t33.5 52q4 8 12.5 20.5t16.5 25t14.5 21.5t10.5 13v2q-23 -4 -45.5 -7t-45.5 -7q-61 -10 -104 -17.5t-72 -11.5q-16 -4 -28.5 -6t-14.5 -2q-49 -10 -97 -24.5t-89 -38t-71.5 -55.5 t-45.5 -75q-8 -39 0 -69q8 -27 33 -50.5t82 -29.5q37 -6 70 0q29 4 53 17.5t31 43.5q6 23 0.5 39.5t-14.5 27.5t-19 16t-15 8q-41 10 -86 -7q-12 -6 -22 -8t-18.5 0t-12.5 12q-8 25 21.5 42.5t76.5 11.5q0 -2 3 -2q14 0 25 -4.5t22 -8.5q8 -4 20 -12q27 -14 35 -36.5 t8 -45.5q0 -27 -10 -55q-23 -59 -60.5 -81t-74.5 -22q-43 -2 -90 19q-47 20 -63.5 53t-20.5 66zM786 1006h23q6 0 8 2q16 4 33.5 5t34.5 5q14 2 26 8q27 10 29 31q0 18 -40 18t-95 -51q-10 -6 -19 -18zM935 1187.5q-13 8.5 1 10.5q23 -2 43 4t38.5 15t37 19.5t37.5 14.5 q2 0 4 1t6 1q10 10 26 0q16 -6 23 -14q0 -2 8 -11q25 -33 43.5 -74.5t56.5 -68.5q10 -10 -5 -8t-39.5 12t-51 24.5t-39.5 28.5l-20 25q-10 -4 -27 -8q-18 -4 -48 1t-55.5 12t-38.5 15.5z" />
<glyph unicode="&#xdc;" horiz-adv-x="1105" d="M27 627q-4 37 8 78q4 10 5 17t5 15v2q4 8 8 16.5t8 16.5q31 55 76 91t101 65q74 33 157.5 45t163.5 16q47 4 90 5t62 3q39 39 90 72t110 31q14 0 25 -4q10 -4 16 -13.5t4 -25.5q-4 -39 -52 -57.5t-146 -36.5q-25 -37 -56 -105q-27 -63 -55.5 -131t-42.5 -100 q-4 -10 -8 -19.5t-12.5 -26t-20.5 -45t-33 -73.5q-6 -12 -10 -23q-4 -10 -7 -19t-7 -15q-2 -4 -15.5 -34t-31 -73t-35.5 -92t-27.5 -92t-7.5 -75t25 -36q29 -6 84 32t128.5 120t162 203.5t182.5 285.5q8 18 13 29.5t15 32.5q53 121 111 192q37 51 72 80t64.5 41t54 11 t42.5 -9q20 -10 29 -21q6 -8 14 -24q6 -20 5 -41q0 -14 -2.5 -25.5t-4.5 -17.5l-2 -4q-16 -49 -43.5 -69.5t-35.5 -24.5q-4 0 -7 -2h-2q-2 0 -2 -1t-2 -1h-4q-10 -2 -23.5 0t-25.5 16q-16 20 -6 30.5t14 8.5q12 0 12 -19q4 -2 11 -2q10 0 18 11q6 6 15.5 24.5t11.5 52.5v21 v12q0 25 -8.5 33t-16.5 8q-10 2 -16 -4q-20 -14 -31 -37q-45 -92 -96 -205q-43 -96 -98.5 -225t-112.5 -278q0 -2 -4 -11q-4 -8 -5 -15t-5 -13q-14 -35 -27.5 -68t-24.5 -65q-10 -25 -16 -48.5t-12 -46.5q-12 -55 -5 -94t42 -49q16 0 28 -2q27 -4 19 -25q-8 -8 -19 -12 q-10 -4 -26.5 -2t-40.5 14q-18 10 -39 29.5t-35 56.5q-8 27 -12 66q-2 57 18 145q4 16 9 35t14 39q8 23 16 51.5t20 63.5l15 39q12 37 28.5 81t36.5 95q-61 -100 -131.5 -200.5t-141.5 -178.5t-136.5 -121t-120.5 -31q-27 2 -45 21q-16 16 -28.5 47t-8.5 90q2 31 6 58.5 t14.5 59.5t25.5 71.5t40 93.5q16 37 30.5 70.5t26.5 58.5q31 68 55.5 118t45 87.5t38 65.5t33.5 52q4 8 12.5 20.5t16.5 25t14.5 21.5t10.5 13v2q-23 -4 -45.5 -7t-45.5 -7q-61 -10 -104 -17.5t-72 -11.5q-16 -4 -28.5 -6t-14.5 -2q-49 -10 -97 -24.5t-89 -38t-71.5 -55.5 t-45.5 -75q-8 -39 0 -69q8 -27 33 -50.5t82 -29.5q37 -6 70 0q29 4 53 17.5t31 43.5q6 23 0.5 39.5t-14.5 27.5t-19 16t-15 8q-41 10 -86 -7q-12 -6 -22 -8t-18.5 0t-12.5 12q-8 25 21.5 42.5t76.5 11.5q0 -2 3 -2q14 0 25 -4.5t22 -8.5q8 -4 20 -12q27 -14 35 -36.5 t8 -45.5q0 -27 -10 -55q-23 -59 -60.5 -81t-74.5 -22q-43 -2 -90 19q-47 20 -63.5 53t-20.5 66zM786 1006h23q6 0 8 2q16 4 33.5 5t34.5 5q14 2 26 8q27 10 29 31q0 18 -40 18t-95 -51q-10 -6 -19 -18zM1039 1155q0 23 16.5 35t38.5 10q45 4 45 -49q2 -25 -13 -37t-38 -12 q-23 2 -35 13t-14 40zM1156 1116q0 23 16 35t39 10q45 4 45 -49q2 -25 -13 -37t-38 -12q-23 2 -35 13t-14 40z" />
<glyph unicode="&#xdd;" horiz-adv-x="1191" d="M10.5 -355.5q-16.5 66.5 7.5 132.5v2q18 47 49 78.5t42 42.5q20 18 63 43.5t115.5 50t180 46t257.5 32.5q25 37 45 80q25 49 50.5 104t47 104.5t38 87t22.5 54.5q-55 -84 -117.5 -163t-126 -137.5t-124 -88t-116.5 -17.5q-29 8 -49 29q-16 16 -27.5 49t-0.5 86 q10 59 26.5 111.5t36.5 103.5v-2q16 37 30.5 71t26.5 58q31 61 52.5 102t38 71t28.5 50.5t25 38.5q4 8 12 20.5t16.5 25t15.5 21.5t9 13v2h2q-25 -4 -47.5 -7t-44.5 -7q-61 -10 -104.5 -17.5t-71.5 -11.5q-16 -4 -28.5 -6t-14.5 -2q-49 -10 -97.5 -24.5t-89.5 -38 t-71.5 -55.5t-44.5 -75q-8 -39 0 -69q8 -27 32.5 -50.5t81.5 -29.5q39 -6 72 0q29 4 52.5 17.5t31.5 43.5q4 23 -1 39.5t-14.5 27.5t-19.5 16t-14 8q-18 4 -40 4t-44 -11q-12 -6 -23 -8q-10 -2 -18 0t-12 12q-10 25 19.5 42.5t76.5 11.5l2 -2q14 0 26.5 -4.5t22.5 -8.5 l19 -12q27 -14 35 -36.5t8 -45.5q0 -27 -9 -55q-23 -59 -60.5 -81t-74.5 -22q-43 -2 -90 19q-47 20 -63.5 53t-20.5 66q-4 37 8 78q4 20 8 32l3 2q4 8 7 16.5t7 16.5q31 55 76 91t100 65h2q74 33 158 45t162 16q49 4 91 5t60 3q39 39 91 72t110 31q14 0 24 -4t16.5 -13.5 t6.5 -25.5q-4 -39 -53.5 -57.5t-147.5 -36.5q-25 -37 -55 -105q-27 -63 -51.5 -118.5t-38.5 -84.5q-8 -18 -18.5 -42.5t-37.5 -82.5q-4 -12 -10 -22q-4 -10 -8 -20.5t-8 -16.5q-2 -6 -23.5 -57.5t-42 -111.5t-26.5 -112.5t22 -58.5q29 -6 78 14.5t115.5 80t146.5 160.5 t170 255q6 16 13.5 32.5t15.5 33.5q57 121 110 192q37 51 72 80t65.5 41t55.5 11t43 -9q17 -9 29 -21q8 -12 12 -24q6 -18 6 -41q-2 -14 -4 -25.5t-4 -17.5q0 -2 -2 -4q-16 -49 -44 -69.5t-34 -24.5q-6 0 -8 -2h-2q-2 0 -2 -1t-2 -1h-2q-10 -2 -24.5 0t-27.5 16 q-16 20 -5.5 30.5t16.5 8.5q12 0 10 -19q4 -2 10 -2q12 0 21 11q4 6 13 24.5t13 52.5v33q-2 25 -10 33t-16 8q-10 2 -17 -4q-8 -6 -15 -14t-15 -23q-37 -74 -76 -162q-35 -76 -80 -179t-94 -226q-8 -16 -18.5 -40t-22.5 -52q-8 -16 -16.5 -35t-16.5 -37q-16 -29 -34.5 -63.5 t-39.5 -71.5q20 0 31 2q72 4 119 22.5t39 65.5q-8 12 -11 20q-2 8 0 15.5t15 7.5q6 0 14 -8q14 -14 16 -55q0 -18 -9 -41t-33.5 -43.5t-66.5 -39t-110 -26.5q-12 -2 -25.5 -3t-27.5 -3q-2 -2 -4 -6t-5 -9.5t-7 -9.5q-4 -10 -10.5 -18t-12.5 -19v-2q-29 -43 -68.5 -99 t-80.5 -101q-12 -14 -24.5 -27.5t-25.5 -26.5q-70 -68 -133 -103.5t-116.5 -50t-97.5 -12t-75.5 10.5t-49 17t-19.5 9q-57 31 -73.5 97.5zM16 -301q-4 -18 2 -43q4 -23 24.5 -48.5t61.5 -39.5q25 -8 54.5 -14.5t67.5 0t86 28t110 68.5q35 27 67.5 62.5t69.5 90.5 q18 27 34 48.5t34 50.5q10 14 21 35.5t28 46.5q-61 -6 -140 -17.5t-159 -29.5q-88 -20 -166 -50t-127 -75q-25 -23 -41 -48q-8 -10 -13 -23t-10 -28q-2 -6 -4 -14zM805 1006h22q6 0 9 2q16 4 33.5 5t33.5 5q14 2 27 8q27 10 28 31q0 18 -38.5 18t-96.5 -51zM1044 1089 q25 6 45.5 19.5t38.5 30t36.5 31.5t37.5 28q35 20 55 15t25 -30q10 -43 -68 -84q-18 -10 -53 -16t-66 -7t-49 3t-2 10z" />
<glyph unicode="&#xe0;" d="M-77 132q5 42 19.5 80t20.5 54q33 63 74 111q18 20 38.5 38.5t45 32t52.5 19.5t58 2q14 0 27 -8q10 -6 20.5 -17.5t14.5 -29.5q12 16 33.5 29.5t56.5 11.5q25 -2 37 -11.5t17 -20.5t5 -20.5v-13.5t-2 -6q-4 -6 -8 -6q-12 4 -10 18q2 4 -2 7.5t-12 -11.5q-33 -68 -60 -129 q-23 -53 -46 -107.5t-36 -88.5v-3q-2 0 -2 -2q-8 -20 0 -34q2 -4 10 -9q0 -2 2 -2h5q20 2 44.5 19.5t48 40t42 45t26.5 33.5q18 23 40 55.5t40 64.5q0 2 2 5q2 2 11 2q2 -2 4 -2q4 -4 2 -7q-8 -12 -19 -28q-10 -14 -21.5 -31.5t-27.5 -40.5q-59 -86 -110.5 -126t-77.5 -44 q-20 -4 -37 0t-27 8q-8 2 -16 8q-23 14 -29 37t-5 45.5t5 40t6 21.5v2l4 6q-2 -4 -19 -35t-46 -64.5t-66 -56t-75 -10.5q-41 12 -51.5 49t-5.5 79zM21 58.5q-2 -31.5 16 -29.5q23 2 56.5 43t67.5 95t62.5 108.5t38.5 82.5q10 23 7 33t-11 15q-8 4 -22 0q-12 -2 -27 -11 q-12 -8 -29.5 -22.5t-38.5 -42.5q-31 -43 -58.5 -95.5t-43.5 -98.5t-18 -77.5zM197 604q4 25 24.5 30t55.5 -15q18 -12 35.5 -27.5t36 -32t40 -30t46.5 -19.5q14 -6 -3.5 -10t-48 -3t-65.5 7t-53 16q-78 41 -68 84z" />
<glyph unicode="&#xe1;" d="M-77 132q5 42 19.5 80t20.5 54q33 63 74 111q18 20 38.5 38.5t45 32t52.5 19.5t58 2q14 0 27 -8q10 -6 20.5 -17.5t14.5 -29.5q12 16 33.5 29.5t56.5 11.5q25 -2 37 -11.5t17 -20.5t5 -20.5v-13.5t-2 -6q-4 -6 -8 -6q-12 4 -10 18q2 4 -2 7.5t-12 -11.5q-33 -68 -60 -129 q-23 -53 -46 -107.5t-36 -88.5v-3q-2 0 -2 -2q-8 -20 0 -34q2 -4 10 -9q0 -2 2 -2h5q20 2 44.5 19.5t48 40t42 45t26.5 33.5q18 23 40 55.5t40 64.5q0 2 2 5q2 2 11 2q2 -2 4 -2q4 -4 2 -7q-8 -12 -19 -28q-10 -14 -21.5 -31.5t-27.5 -40.5q-59 -86 -110.5 -126t-77.5 -44 q-20 -4 -37 0t-27 8q-8 2 -16 8q-23 14 -29 37t-5 45.5t5 40t6 21.5v2l4 6q-2 -4 -19 -35t-46 -64.5t-66 -56t-75 -10.5q-41 12 -51.5 49t-5.5 79zM21 58.5q-2 -31.5 16 -29.5q23 2 56.5 43t67.5 95t62.5 108.5t38.5 82.5q10 23 7 33t-11 15q-8 4 -22 0q-12 -2 -27 -11 q-12 -8 -29.5 -22.5t-38.5 -42.5q-31 -43 -58.5 -95.5t-43.5 -98.5t-18 -77.5zM217 510q25 6 45.5 19.5t38.5 30t36.5 31.5t37.5 28q35 20 55 15t25 -30q10 -43 -68 -84q-18 -10 -53 -16t-66 -7t-49 3t-2 10z" />
<glyph unicode="&#xe2;" d="M-77 132q5 42 19.5 80t20.5 54q33 63 74 111q18 20 38.5 38.5t45 32t52.5 19.5t58 2q14 0 27 -8q10 -6 20.5 -17.5t14.5 -29.5q12 16 33.5 29.5t56.5 11.5q25 -2 37 -11.5t17 -20.5t5 -20.5v-13.5t-2 -6q-4 -6 -8 -6q-12 4 -10 18q2 4 -2 7.5t-12 -11.5q-33 -68 -60 -129 q-23 -53 -46 -107.5t-36 -88.5v-3q-2 0 -2 -2q-8 -20 0 -34q2 -4 10 -9q0 -2 2 -2h5q20 2 44.5 19.5t48 40t42 45t26.5 33.5q18 23 40 55.5t40 64.5q0 2 2 5q2 2 11 2q2 -2 4 -2q4 -4 2 -7q-8 -12 -19 -28q-10 -14 -21.5 -31.5t-27.5 -40.5q-59 -86 -110.5 -126t-77.5 -44 q-20 -4 -37 0t-27 8q-8 2 -16 8q-23 14 -29 37t-5 45.5t5 40t6 21.5v2l4 6q-2 -4 -19 -35t-46 -64.5t-66 -56t-75 -10.5q-41 12 -51.5 49t-5.5 79zM21 58.5q-2 -31.5 16 -29.5q23 2 56.5 43t67.5 95t62.5 108.5t38.5 82.5q10 23 7 33t-11 15q-8 4 -22 0q-12 -2 -27 -11 q-12 -8 -29.5 -22.5t-38.5 -42.5q-31 -43 -58.5 -95.5t-43.5 -98.5t-18 -77.5zM192 571.5q-13 8.5 1 10.5q23 -2 43 4t38.5 15t37 19.5t37.5 14.5q2 0 4 1t6 1q10 10 26 0q16 -6 23 -14q0 -2 8 -11q25 -33 43.5 -74.5t56.5 -68.5q10 -10 -5 -8t-39.5 12t-51 24.5t-39.5 28.5 l-20 25q-10 -4 -27 -8q-18 -4 -48 1t-55.5 12t-38.5 15.5z" />
<glyph unicode="&#xe3;" d="M-77 132q5 42 19.5 80t20.5 54q33 63 74 111q18 20 38.5 38.5t45 32t52.5 19.5t58 2q14 0 27 -8q10 -6 20.5 -17.5t14.5 -29.5q12 16 33.5 29.5t56.5 11.5q25 -2 37 -11.5t17 -20.5t5 -20.5v-13.5t-2 -6q-4 -6 -8 -6q-12 4 -10 18q2 4 -2 7.5t-12 -11.5q-33 -68 -60 -129 q-23 -53 -46 -107.5t-36 -88.5v-3q-2 0 -2 -2q-8 -20 0 -34q2 -4 10 -9q0 -2 2 -2h5q20 2 44.5 19.5t48 40t42 45t26.5 33.5q18 23 40 55.5t40 64.5q0 2 2 5q2 2 11 2q2 -2 4 -2q4 -4 2 -7q-8 -12 -19 -28q-10 -14 -21.5 -31.5t-27.5 -40.5q-59 -86 -110.5 -126t-77.5 -44 q-20 -4 -37 0t-27 8q-8 2 -16 8q-23 14 -29 37t-5 45.5t5 40t6 21.5v2l4 6q-2 -4 -19 -35t-46 -64.5t-66 -56t-75 -10.5q-41 12 -51.5 49t-5.5 79zM21 58.5q-2 -31.5 16 -29.5q23 2 56.5 43t67.5 95t62.5 108.5t38.5 82.5q10 23 7 33t-11 15q-8 4 -22 0q-12 -2 -27 -11 q-12 -8 -29.5 -22.5t-38.5 -42.5q-31 -43 -58.5 -95.5t-43.5 -98.5t-18 -77.5zM199 588q14 10 42 22.5t60.5 19.5t51.5 -3q23 -14 34 -23l13 -6q18 -12 35.5 -24.5t37 -20.5t44 -11t57.5 5q16 4 -3.5 -7.5t-54 -23.5t-72.5 -19.5t-57 3.5q-18 8 -36 22l-11 6 q-18 12 -31.5 26.5t-27.5 25t-31.5 13.5t-48.5 -9q-16 -6 -2 4z" />
<glyph unicode="&#xe4;" d="M-77 132q5 42 19.5 80t20.5 54q33 63 74 111q18 20 38.5 38.5t45 32t52.5 19.5t58 2q14 0 27 -8q10 -6 20.5 -17.5t14.5 -29.5q12 16 33.5 29.5t56.5 11.5q25 -2 37 -11.5t17 -20.5t5 -20.5v-13.5t-2 -6q-4 -6 -8 -6q-12 4 -10 18q2 4 -2 7.5t-12 -11.5q-33 -68 -60 -129 q-23 -53 -46 -107.5t-36 -88.5v-3q-2 0 -2 -2q-8 -20 0 -34q2 -4 10 -9q0 -2 2 -2h5q20 2 44.5 19.5t48 40t42 45t26.5 33.5q18 23 40 55.5t40 64.5q0 2 2 5q2 2 11 2q2 -2 4 -2q4 -4 2 -7q-8 -12 -19 -28q-10 -14 -21.5 -31.5t-27.5 -40.5q-59 -86 -110.5 -126t-77.5 -44 q-20 -4 -37 0t-27 8q-8 2 -16 8q-23 14 -29 37t-5 45.5t5 40t6 21.5v2l4 6q-2 -4 -19 -35t-46 -64.5t-66 -56t-75 -10.5q-41 12 -51.5 49t-5.5 79zM21 58.5q-2 -31.5 16 -29.5q23 2 56.5 43t67.5 95t62.5 108.5t38.5 82.5q10 23 7 33t-11 15q-8 4 -22 0q-12 -2 -27 -11 q-12 -8 -29.5 -22.5t-38.5 -42.5q-31 -43 -58.5 -95.5t-43.5 -98.5t-18 -77.5zM248 578q0 23 16.5 35t38.5 10q45 4 45 -49q2 -25 -13 -37t-38 -12q-23 2 -35 13t-14 40zM365 539q0 23 16 35t39 10q45 4 45 -49q2 -25 -13 -37t-38 -12q-23 2 -35 13t-14 40z" />
<glyph unicode="&#xe5;" d="M-77 132q5 42 19.5 80t20.5 54q33 63 74 111q18 20 38.5 38.5t45 32t52.5 19.5t58 2q14 0 27 -8q10 -6 20.5 -17.5t14.5 -29.5q12 16 33.5 29.5t56.5 11.5q25 -2 37 -11.5t17 -20.5t5 -20.5v-13.5t-2 -6q-4 -6 -8 -6q-12 4 -10 18q2 4 -2 7.5t-12 -11.5q-33 -68 -60 -129 q-23 -53 -46 -107.5t-36 -88.5v-3q-2 0 -2 -2q-8 -20 0 -34q2 -4 10 -9q0 -2 2 -2h5q20 2 44.5 19.5t48 40t42 45t26.5 33.5q18 23 40 55.5t40 64.5q0 2 2 5q2 2 11 2q2 -2 4 -2q4 -4 2 -7q-8 -12 -19 -28q-10 -14 -21.5 -31.5t-27.5 -40.5q-59 -86 -110.5 -126t-77.5 -44 q-20 -4 -37 0t-27 8q-8 2 -16 8q-23 14 -29 37t-5 45.5t5 40t6 21.5v2l4 6q-2 -4 -19 -35t-46 -64.5t-66 -56t-75 -10.5q-41 12 -51.5 49t-5.5 79zM21 58.5q-2 -31.5 16 -29.5q23 2 56.5 43t67.5 95t62.5 108.5t38.5 82.5q10 23 7 33t-11 15q-8 4 -22 0q-12 -2 -27 -11 q-12 -8 -29.5 -22.5t-38.5 -42.5q-31 -43 -58.5 -95.5t-43.5 -98.5t-18 -77.5zM299 546q0 23 16.5 35.5t39.5 10.5q45 4 45 -50q2 -25 -13 -37t-38 -12q-23 2 -35.5 13.5t-14.5 39.5zM332 544q1 -14 17 -18q16 0 16 16t-14 17q-18 0 -19 -15z" />
<glyph unicode="&#xe6;" horiz-adv-x="665" d="M-77 132q5 42 19.5 80t20.5 54q33 63 74 111q18 20 38.5 38.5t45 32t52.5 19.5t58 2q14 0 27 -8q10 -6 20.5 -17.5t14.5 -29.5q12 16 33.5 29.5t56.5 11.5l23 -4q16 8 33.5 11t31.5 5q29 0 45 -11.5t23 -27.5q8 -18 6 -39q0 -12 -4 -18v-4q0 -2 -1 -3.5t-1 -3.5 q-4 -12 -16.5 -32.5t-38 -46t-66.5 -52t-105 -49.5q-18 -47 -19 -80.5t7 -54.5q2 -2 2 -4q2 -2 2 -6l14 -17q27 -16 52 -14q10 2 18 3t17 5q23 6 26 11q20 10 42 26.5t40 33.5t30.5 29.5l14.5 14.5v2l16 21q8 8 11 12q6 6 8 6q0 2 2 4h2q18 27 36.5 51.5t35.5 46.5q0 2 2 4 t8 2q2 -2 4 -2q2 -2 0 -6q-8 -14 -18 -28t-24.5 -30.5t-31.5 -39.5q-4 -4 -9 -11t-15 -18q-4 -4 -7.5 -9t-9.5 -11q-41 -49 -73.5 -75t-53.5 -36q-29 -16 -60.5 -19t-57 0t-43 8t-19.5 5h-4q-20 -6 -29.5 0t-7.5 6l-16 8q-20 14 -27.5 35t-7.5 42.5t4 39t6 23.5 q-8 -14 -27.5 -45t-46 -58.5t-59.5 -45t-67 -5.5q-41 12 -51.5 49t-5.5 79zM21 58.5q-2 -31.5 16 -29.5q23 2 56.5 43t67.5 95t62.5 108.5t38.5 82.5q10 23 7 33t-11 15q-8 4 -22 0q-12 -2 -27 -11q-12 -8 -29.5 -22.5t-38.5 -42.5q-31 -43 -58.5 -95.5t-43.5 -98.5 t-18 -77.5zM319 199q35 14 79 38.5t73 65.5l2 2q6 8 16.5 26.5t14.5 41.5q2 2 2 8q0 12 -4 16q2 4 0 6q-4 10 -21 7q-23 -4 -39 -21q0 -4 -2 -6q-4 -6 -8 -6h-2q-33 -37 -92 -141z" />
<glyph unicode="&#xe7;" horiz-adv-x="423" d="M-154 -109q0 8 1 15.5t1 11.5q4 8 6.5 13.5t6.5 9.5l8 8q8 0 4 -10q-2 -6 -6 -11l-4 -2q-6 -16 7 -25.5t36 -13.5h8q29 -2 52.5 3.5t68.5 21.5q6 4 14 5t14 3q8 2 12.5 3t8.5 1l2 2l-2 4q2 4 1 15.5t3 31.5v15q-20 4 -33.5 7t-13.5 5q-41 12 -59.5 37t-26.5 49 q-8 29 -6 58.5t6 46.5q16 74 48 125t69 82.5t73.5 47t65.5 17.5q29 0 45 -11.5t25 -27.5q8 -18 8 -39q2 -23 -5.5 -36t-17.5 -23v-2q-2 0 -2 -1t-2 -1l-4 -4q-10 -8 -17.5 -11.5t-9.5 -3.5q-18 -8 -28 -4q-6 2 -10 6q-8 8 -3 14.5t13 10.5t22 6q12 4 21 20q4 8 4 19 q2 10 -2 18q-2 4 -2 6q-8 8 -21 7q-29 -4 -57.5 -42t-73.5 -132q-33 -70 -32 -118t14 -73v-4l6 -6q8 -12 14 -17q25 -16 54 -14q8 2 16 3t16 5q20 6 25 11h2q18 10 38.5 26.5t37 33.5t27 29.5t12.5 14.5v2q10 6 18 21q4 4 8 12q4 2 4 4t2 2q2 2 2 4q39 55 64 98q0 2 2 4 t10 2q2 -2 4 -2q2 -2 2 -6q-8 -14 -18 -28t-21.5 -30.5t-27.5 -39.5q-2 -4 -6.5 -11t-14.5 -18l-16 -20q-37 -49 -66.5 -75t-52.5 -36q-27 -14 -54.5 -18t-51.5 -2q-4 -16 -5 -19v-8q-4 -10 0 -16q0 -8 3 -13q0 -4 2 -6q41 4 54 -11t11 -28v-6v-4q-4 -12 -10 -15t-12 -7h-2 q-25 -4 -39.5 13t-18.5 26q-10 -4 -23.5 -9.5t-27.5 -7.5q-6 -4 -39 -15t-53 -14q-10 -2 -17.5 -2h-11.5h-8q-8 0 -14 2q-10 0 -27 9q-12 6 -17.5 14t-9.5 18zM117 -104q8 -16 21.5 -24.5t19.5 -4.5q6 6 6 14q0 4 -2 8q-8 15 -37 9q-4 2 -8 -2z" />
<glyph unicode="&#xe8;" horiz-adv-x="423" d="M-51 90q-4 29 0 58.5t8 46.5q20 74 55 125t74 82.5t77 47t66 17.5q29 0 45.5 -11.5t22.5 -27.5q8 -18 6 -39q0 -12 -4 -18v-2v-2q0 -2 -1 -3.5t-1 -3.5q-4 -12 -16.5 -32.5t-38 -46t-66.5 -52t-104 -49.5q-18 -47 -19.5 -80.5t6.5 -54.5q2 -2 2 -4q2 -2 2 -6q4 -4 7.5 -8 t7.5 -9q27 -16 51 -14q10 2 18.5 3t16.5 5q23 6 26 11q20 10 42 26.5t40.5 33.5t30.5 29.5t14 14.5v2q8 8 17 21q8 8 10 12q6 6 8 6q0 2 2 4h2q18 27 37 51.5t35 46.5q0 2 2 4t8 2q2 -2 4 -2q2 -2 0 -6q-8 -14 -18 -28t-24.5 -30.5t-30.5 -39.5q-4 -4 -9.5 -11t-15.5 -18 q-4 -4 -7 -9t-9 -11q-41 -49 -74 -75t-53 -36q-29 -16 -60.5 -19t-57.5 0t-43.5 8t-19.5 5q-35 12 -51 37t-20 49zM78 199q35 14 79 38.5t72 65.5l2 2q6 8 16.5 26.5t14.5 41.5q2 2 2 8q0 12 -4 16q2 4 0 6q-4 10 -20 7q-29 -4 -60 -42t-84 -132q-4 -10 -9 -18.5t-9 -18.5z M166 602q4 25 24.5 30t55.5 -15q18 -12 35.5 -27.5t36 -32t40 -30t46.5 -19.5q14 -6 -3.5 -10t-48 -3t-65.5 7t-53 16q-78 41 -68 84z" />
<glyph unicode="&#xe9;" horiz-adv-x="423" d="M-51 90q-4 29 0 58.5t8 46.5q20 74 55 125t74 82.5t77 47t66 17.5q29 0 45.5 -11.5t22.5 -27.5q8 -18 6 -39q0 -12 -4 -18v-2v-2q0 -2 -1 -3.5t-1 -3.5q-4 -12 -16.5 -32.5t-38 -46t-66.5 -52t-104 -49.5q-18 -47 -19.5 -80.5t6.5 -54.5q2 -2 2 -4q2 -2 2 -6q4 -4 7.5 -8 t7.5 -9q27 -16 51 -14q10 2 18.5 3t16.5 5q23 6 26 11q20 10 42 26.5t40.5 33.5t30.5 29.5t14 14.5v2q8 8 17 21q8 8 10 12q6 6 8 6q0 2 2 4h2q18 27 37 51.5t35 46.5q0 2 2 4t8 2q2 -2 4 -2q2 -2 0 -6q-8 -14 -18 -28t-24.5 -30.5t-30.5 -39.5q-4 -4 -9.5 -11t-15.5 -18 q-4 -4 -7 -9t-9 -11q-41 -49 -74 -75t-53 -36q-29 -16 -60.5 -19t-57.5 0t-43.5 8t-19.5 5q-35 12 -51 37t-20 49zM78 199q35 14 79 38.5t72 65.5l2 2q6 8 16.5 26.5t14.5 41.5q2 2 2 8q0 12 -4 16q2 4 0 6q-4 10 -20 7q-29 -4 -60 -42t-84 -132q-4 -10 -9 -18.5t-9 -18.5z M156 506q25 6 45.5 19.5t38.5 30t36.5 31.5t37.5 28q35 20 55 15t25 -30q10 -43 -68 -84q-18 -10 -53 -16t-66 -7t-49 3t-2 10z" />
<glyph unicode="&#xea;" horiz-adv-x="423" d="M-51 90q-4 29 0 58.5t8 46.5q20 74 55 125t74 82.5t77 47t66 17.5q29 0 45.5 -11.5t22.5 -27.5q8 -18 6 -39q0 -12 -4 -18v-2v-2q0 -2 -1 -3.5t-1 -3.5q-4 -12 -16.5 -32.5t-38 -46t-66.5 -52t-104 -49.5q-18 -47 -19.5 -80.5t6.5 -54.5q2 -2 2 -4q2 -2 2 -6q4 -4 7.5 -8 t7.5 -9q27 -16 51 -14q10 2 18.5 3t16.5 5q23 6 26 11q20 10 42 26.5t40.5 33.5t30.5 29.5t14 14.5v2q8 8 17 21q8 8 10 12q6 6 8 6q0 2 2 4h2q18 27 37 51.5t35 46.5q0 2 2 4t8 2q2 -2 4 -2q2 -2 0 -6q-8 -14 -18 -28t-24.5 -30.5t-30.5 -39.5q-4 -4 -9.5 -11t-15.5 -18 q-4 -4 -7 -9t-9 -11q-41 -49 -74 -75t-53 -36q-29 -16 -60.5 -19t-57.5 0t-43.5 8t-19.5 5q-35 12 -51 37t-20 49zM78 199q35 14 79 38.5t72 65.5l2 2q6 8 16.5 26.5t14.5 41.5q2 2 2 8q0 12 -4 16q2 4 0 6q-4 10 -20 7q-29 -4 -60 -42t-84 -132q-4 -10 -9 -18.5t-9 -18.5z M122 551.5q-13 8.5 1 10.5q23 -2 43 4t38.5 15t37 19.5t37.5 14.5q2 0 4 1t6 1q10 10 26 0q16 -6 23 -14q0 -2 8 -11q25 -33 43.5 -74.5t56.5 -68.5q10 -10 -5 -8t-39.5 12t-51 24.5t-39.5 28.5l-20 25q-10 -4 -27 -8q-18 -4 -48 1t-55.5 12t-38.5 15.5z" />
<glyph unicode="&#xeb;" horiz-adv-x="423" d="M-51 90q-4 29 0 58.5t8 46.5q20 74 55 125t74 82.5t77 47t66 17.5q29 0 45.5 -11.5t22.5 -27.5q8 -18 6 -39q0 -12 -4 -18v-2v-2q0 -2 -1 -3.5t-1 -3.5q-4 -12 -16.5 -32.5t-38 -46t-66.5 -52t-104 -49.5q-18 -47 -19.5 -80.5t6.5 -54.5q2 -2 2 -4q2 -2 2 -6q4 -4 7.5 -8 t7.5 -9q27 -16 51 -14q10 2 18.5 3t16.5 5q23 6 26 11q20 10 42 26.5t40.5 33.5t30.5 29.5t14 14.5v2q8 8 17 21q8 8 10 12q6 6 8 6q0 2 2 4h2q18 27 37 51.5t35 46.5q0 2 2 4t8 2q2 -2 4 -2q2 -2 0 -6q-8 -14 -18 -28t-24.5 -30.5t-30.5 -39.5q-4 -4 -9.5 -11t-15.5 -18 q-4 -4 -7 -9t-9 -11q-41 -49 -74 -75t-53 -36q-29 -16 -60.5 -19t-57.5 0t-43.5 8t-19.5 5q-35 12 -51 37t-20 49zM78 199q35 14 79 38.5t72 65.5l2 2q6 8 16.5 26.5t14.5 41.5q2 2 2 8q0 12 -4 16q2 4 0 6q-4 10 -20 7q-29 -4 -60 -42t-84 -132q-4 -10 -9 -18.5t-9 -18.5z M189 572q0 23 16.5 35t38.5 10q45 4 45 -49q2 -25 -13 -37t-38 -12q-23 2 -35 13t-14 40zM306 533q0 23 16 35t39 10q45 4 45 -49q2 -25 -13 -37t-38 -12q-23 2 -35 13t-14 40z" />
<glyph unicode="&#xec;" horiz-adv-x="284" d="M-71 86q-1 18 1 35.5t7 28.5q4 16 8 24q10 25 28 78h2q0 4 2.5 7t2.5 7q10 23 18 40.5t14 33.5q8 25 19 43q4 6 5 12t3 11l2 2q2 6 6 14q2 2 2 4t2 4v10q-4 2 -8 -2q-12 -12 -18 -4q-8 4 -2 10l4 5l4 4q8 6 31.5 14t48.5 0q8 -2 22 -12l2 -2q12 -14 14.5 -32t1.5 -34 t-6.5 -31.5t-7.5 -23.5q-4 -12 -8 -19q-2 -4 -3 -7t-3 -7q-4 -6 -5 -12t-5 -11q-4 -8 -6.5 -14t-4.5 -10q-18 -45 -34 -82q-8 -20 -17 -37q-8 -20 -15 -36.5t-11 -30.5v-3q-2 0 -2 -2q-8 -20 0 -34q2 -4 10 -9h2h4q20 2 45 18.5t46.5 37t36.5 38t17 19.5q12 16 17 23 q4 4 5 6t5 6t4 6q2 2 2 4q18 27 34.5 51.5t29.5 46.5q0 2 2 5q2 2 10 2q2 -2 4 -2q4 -4 2 -7q-8 -12 -18 -28q-10 -14 -21.5 -31.5t-28.5 -40.5q-2 -4 -20 -29q-4 -4 -8 -9t-8 -9q-29 -39 -54.5 -62.5t-45 -37t-33 -18.5t-19.5 -5q-20 -4 -36.5 0t-26.5 8q-9 2 -17 8 q-18 12 -25.5 31t-8.5 37zM35 600q4 25 24.5 30t55.5 -16q18 -12 35.5 -27.5t36 -31.5t39.5 -29.5t46 -19.5q14 -6 -3 -10t-48 -3t-65.5 7t-53.5 16q-78 41 -67 84z" />
<glyph unicode="&#xed;" horiz-adv-x="284" d="M-71 86q-1 18 1 35.5t7 28.5q4 16 8 24q10 25 28 78h2q0 4 2.5 7t2.5 7q10 23 18 40.5t14 33.5q8 25 19 43q4 6 5 12t3 11l2 2q2 6 6 14q2 2 2 4t2 4v10q-4 2 -8 -2q-12 -12 -18 -4q-8 4 -2 10l4 5l4 4q8 6 31.5 14t48.5 0q8 -2 22 -12l2 -2q12 -14 14.5 -32t1.5 -34 t-6.5 -31.5t-7.5 -23.5q-4 -12 -8 -19q-2 -4 -3 -7t-3 -7q-4 -6 -5 -12t-5 -11q-4 -8 -6.5 -14t-4.5 -10q-18 -45 -34 -82q-8 -20 -17 -37q-8 -20 -15 -36.5t-11 -30.5v-3q-2 0 -2 -2q-8 -20 0 -34q2 -4 10 -9h2h4q20 2 45 18.5t46.5 37t36.5 38t17 19.5q12 16 17 23 q4 4 5 6t5 6t4 6q2 2 2 4q18 27 34.5 51.5t29.5 46.5q0 2 2 5q2 2 10 2q2 -2 4 -2q4 -4 2 -7q-8 -12 -18 -28q-10 -14 -21.5 -31.5t-28.5 -40.5q-2 -4 -20 -29q-4 -4 -8 -9t-8 -9q-29 -39 -54.5 -62.5t-45 -37t-33 -18.5t-19.5 -5q-20 -4 -36.5 0t-26.5 8q-9 2 -17 8 q-18 12 -25.5 31t-8.5 37zM41 514q25 6 45 19.5t38.5 30t37 31.5t37.5 28q35 20 55 15t25 -30q10 -43 -68 -84q-18 -10 -53 -16t-66 -7t-49 3t-2 10z" />
<glyph unicode="&#xee;" horiz-adv-x="284" d="M-71 86q-1 18 1 35.5t7 28.5q4 16 8 24q10 25 28 78h2q0 4 2.5 7t2.5 7q10 23 18 40.5t14 33.5q8 25 19 43q4 6 5 12t3 11l2 2q2 6 6 14q2 2 2 4t2 4v10q-4 2 -8 -2q-12 -12 -18 -4q-8 4 -2 10l4 5l4 4q8 6 31.5 14t48.5 0q8 -2 22 -12l2 -2q12 -14 14.5 -32t1.5 -34 t-6.5 -31.5t-7.5 -23.5q-4 -12 -8 -19q-2 -4 -3 -7t-3 -7q-4 -6 -5 -12t-5 -11q-4 -8 -6.5 -14t-4.5 -10q-18 -45 -34 -82q-8 -20 -17 -37q-8 -20 -15 -36.5t-11 -30.5v-3q-2 0 -2 -2q-8 -20 0 -34q2 -4 10 -9h2h4q20 2 45 18.5t46.5 37t36.5 38t17 19.5q12 16 17 23 q4 4 5 6t5 6t4 6q2 2 2 4q18 27 34.5 51.5t29.5 46.5q0 2 2 5q2 2 10 2q2 -2 4 -2q4 -4 2 -7q-8 -12 -18 -28q-10 -14 -21.5 -31.5t-28.5 -40.5q-2 -4 -20 -29q-4 -4 -8 -9t-8 -9q-29 -39 -54.5 -62.5t-45 -37t-33 -18.5t-19.5 -5q-20 -4 -36.5 0t-26.5 8q-9 2 -17 8 q-18 12 -25.5 31t-8.5 37zM-23.5 567.5q-13.5 8.5 0.5 10.5q23 -2 43.5 4t39 15t37 19.5t36.5 14.5q2 0 4 1t6 1q10 10 27 0q16 -6 23 -15q0 -2 8 -10q25 -33 43 -74.5t57 -68.5q10 -10 -5 -8t-40 12t-51.5 24.5t-38.5 28.5l-21 25q-10 -4 -26 -8q-18 -4 -48 1t-55.5 12 t-39 15.5z" />
<glyph unicode="&#xef;" horiz-adv-x="284" d="M-71 86q-1 18 1 35.5t7 28.5q4 16 8 24q10 25 28 78h2q0 4 2.5 7t2.5 7q10 23 18 40.5t14 33.5q8 25 19 43q4 6 5 12t3 11l2 2q2 6 6 14q2 2 2 4t2 4v10q-4 2 -8 -2q-12 -12 -18 -4q-8 4 -2 10l4 5l4 4q8 6 31.5 14t48.5 0q8 -2 22 -12l2 -2q12 -14 14.5 -32t1.5 -34 t-6.5 -31.5t-7.5 -23.5q-4 -12 -8 -19q-2 -4 -3 -7t-3 -7q-4 -6 -5 -12t-5 -11q-4 -8 -6.5 -14t-4.5 -10q-18 -45 -34 -82q-8 -20 -17 -37q-8 -20 -15 -36.5t-11 -30.5v-3q-2 0 -2 -2q-8 -20 0 -34q2 -4 10 -9h2h4q20 2 45 18.5t46.5 37t36.5 38t17 19.5q12 16 17 23 q4 4 5 6t5 6t4 6q2 2 2 4q18 27 34.5 51.5t29.5 46.5q0 2 2 5q2 2 10 2q2 -2 4 -2q4 -4 2 -7q-8 -12 -18 -28q-10 -14 -21.5 -31.5t-28.5 -40.5q-2 -4 -20 -29q-4 -4 -8 -9t-8 -9q-29 -39 -54.5 -62.5t-45 -37t-33 -18.5t-19.5 -5q-20 -4 -36.5 0t-26.5 8q-9 2 -17 8 q-18 12 -25.5 31t-8.5 37zM47 586q0 23 16.5 35t38.5 10q45 4 45 -49q2 -25 -13 -37.5t-38 -12.5q-23 2 -35 13.5t-14 40.5zM164 547q0 23 16.5 35t38.5 10q45 4 45 -49q2 -25 -13 -37t-38 -12q-23 2 -35 13t-14 40z" />
<glyph unicode="&#xf1;" horiz-adv-x="536" d="M-89 78.5q1 17.5 5 33t8 25.5q10 23 19.5 45.5t25.5 65.5q2 4 3 7t3 7q33 80 50 117q4 6 5 12t5 10v2q2 6 6 15q2 2 2 4t2 4q4 10 0 12t-8 -2v-2q-4 -4 -8 -6t-9 2q-6 6 -4 10q0 2 4 6q2 0 5 3q10 8 41.5 17t60.5 -13q2 -2 2 -4q12 -14 14 -32t1 -34t-6 -31.5t-7 -23.5 q-10 -25 -23.5 -54.5t-27.5 -62.5q-2 -2 -2 -3t-2 -3q-2 -12 -10 -23q27 37 60.5 81t69 85t69.5 72t61 41q4 2 21.5 6t39.5 -8q12 -8 17.5 -20.5t6.5 -26t-1 -24.5t-4 -15q-4 -23 -20.5 -63t-33.5 -81q-20 -47 -43 -100q-8 -18 -15 -35.5t-11 -30.5v-4h-2q-8 -23 0 -34 q2 -6 10 -11h6q20 2 45 19.5t46.5 38t36.5 38t17 19.5q8 8 17 21q4 4 5 6t5 6t4 8q2 0 2 2q18 27 34.5 52.5t29.5 47.5l2 2q4 5 10 5q2 0 4 -3q4 -4 2 -6q-8 -12 -18 -28q-10 -14 -21.5 -31.5t-28.5 -40.5q-2 -4 -20 -29q-4 -4 -8 -9t-8 -11q-29 -39 -54.5 -62.5t-45 -36 t-33 -17.5t-19.5 -5q-20 -4 -36.5 -1t-26.5 7q-4 2 -8.5 4t-8.5 4v2q-18 12 -25.5 29.5t-8.5 36t1 36t7 27.5q8 33 25.5 76t33.5 82t30.5 67.5t16.5 35.5q2 10 0 10h-4q-23 -6 -63.5 -53.5t-85 -103.5t-81 -108.5t-49.5 -68.5q-2 -6 -4 -11l-4 -10v-2q-4 -4 -4 -6t-2 -6 t-2 -6l-2 -4q0 -2 -2 -5t2 -5q2 -4 8 2q6 14 19 6q4 -10 2 -12q-2 -4 -4 -5q-2 0 -2 -1t-3 -1q-10 -8 -36.5 -17t-55.5 13q0 2 -1 2t-1 2q-10 12 -13 28.5t-2 34zM80 580q14 10 42 22.5t60.5 19.5t51.5 -3q23 -14 34 -23l13 -6q18 -12 35.5 -24.5t37 -20.5t44 -11t57.5 5 q16 4 -3.5 -7.5t-54 -23.5t-72.5 -19.5t-57 3.5q-18 8 -36 22l-11 6q-18 12 -31.5 26.5t-27.5 25t-31.5 13.5t-48.5 -9q-16 -6 -2 4z" />
<glyph unicode="&#xf2;" horiz-adv-x="432" d="M-72 151.5q4 30.5 9 47.5q20 72 53 123t70.5 83.5t75.5 48t67 15.5q43 2 57 -21.5t14 -41.5q4 -18 -5 -31t-25 -8q-2 0 -6 4q-6 4 -6.5 10t1.5 10q0 2 1.5 3t1.5 3v2v2q0 2 -3 5q-6 8 -20 6t-32.5 -17.5t-38 -40t-37 -54.5t-29.5 -58q-29 -70 -34 -119t5 -76q0 -2 2 -2 q0 -4 4 -8q2 -8 13 -14q8 -8 30 -9q18 2 42 11.5t48.5 34t51 68.5t51.5 112q-4 -4 -21 -2q-16 4 -22 27.5t6 56.5q2 6 8 12q8 12 23 14q10 2 20 -7t12 -38v-15t-2 -18q29 10 63 32t60 40q10 8 18.5 14t18.5 15l2 2q4 4 10.5 9t10.5 9q0 2 2 2h10q2 0 4 -2q2 -4 -2 -8l-4 -4 q-2 -2 -4 -3t-6 -5q-70 -59 -116 -84t-71 -33q-2 -8 -4 -16.5t-6 -18.5q-6 -20 -21.5 -55t-39 -69t-56 -62.5t-76.5 -36.5h-2h-4q-6 -2 -22 -2h-4q-35 0 -59.5 11t-30.5 15h-2q-23 16 -34 35t-18 37q-6 29 -2 59.5zM164 606q4 25 24.5 30t55.5 -15q18 -12 35.5 -27.5t36 -32 t40 -30t46.5 -19.5q14 -6 -3.5 -10t-48 -3t-65.5 7t-53 16q-78 41 -68 84z" />
<glyph unicode="&#xf3;" horiz-adv-x="432" d="M-72 151.5q4 30.5 9 47.5q20 72 53 123t70.5 83.5t75.5 48t67 15.5q43 2 57 -21.5t14 -41.5q4 -18 -5 -31t-25 -8q-2 0 -6 4q-6 4 -6.5 10t1.5 10q0 2 1.5 3t1.5 3v2v2q0 2 -3 5q-6 8 -20 6t-32.5 -17.5t-38 -40t-37 -54.5t-29.5 -58q-29 -70 -34 -119t5 -76q0 -2 2 -2 q0 -4 4 -8q2 -8 13 -14q8 -8 30 -9q18 2 42 11.5t48.5 34t51 68.5t51.5 112q-4 -4 -21 -2q-16 4 -22 27.5t6 56.5q2 6 8 12q8 12 23 14q10 2 20 -7t12 -38v-15t-2 -18q29 10 63 32t60 40q10 8 18.5 14t18.5 15l2 2q4 4 10.5 9t10.5 9q0 2 2 2h10q2 0 4 -2q2 -4 -2 -8l-4 -4 q-2 -2 -4 -3t-6 -5q-70 -59 -116 -84t-71 -33q-2 -8 -4 -16.5t-6 -18.5q-6 -20 -21.5 -55t-39 -69t-56 -62.5t-76.5 -36.5h-2h-4q-6 -2 -22 -2h-4q-35 0 -59.5 11t-30.5 15h-2q-23 16 -34 35t-18 37q-6 29 -2 59.5zM176 508q25 6 45.5 19.5t38.5 30t36.5 31.5t37.5 28 q35 20 55 15t25 -30q10 -43 -68 -84q-18 -10 -53 -16t-66 -7t-49 3t-2 10z" />
<glyph unicode="&#xf4;" horiz-adv-x="432" d="M-72 151.5q4 30.5 9 47.5q20 72 53 123t70.5 83.5t75.5 48t67 15.5q43 2 57 -21.5t14 -41.5q4 -18 -5 -31t-25 -8q-2 0 -6 4q-6 4 -6.5 10t1.5 10q0 2 1.5 3t1.5 3v2v2q0 2 -3 5q-6 8 -20 6t-32.5 -17.5t-38 -40t-37 -54.5t-29.5 -58q-29 -70 -34 -119t5 -76q0 -2 2 -2 q0 -4 4 -8q2 -8 13 -14q8 -8 30 -9q18 2 42 11.5t48.5 34t51 68.5t51.5 112q-4 -4 -21 -2q-16 4 -22 27.5t6 56.5q2 6 8 12q8 12 23 14q10 2 20 -7t12 -38v-15t-2 -18q29 10 63 32t60 40q10 8 18.5 14t18.5 15l2 2q4 4 10.5 9t10.5 9q0 2 2 2h10q2 0 4 -2q2 -4 -2 -8l-4 -4 q-2 -2 -4 -3t-6 -5q-70 -59 -116 -84t-71 -33q-2 -8 -4 -16.5t-6 -18.5q-6 -20 -21.5 -55t-39 -69t-56 -62.5t-76.5 -36.5h-2h-4q-6 -2 -22 -2h-4q-35 0 -59.5 11t-30.5 15h-2q-23 16 -34 35t-18 37q-6 29 -2 59.5zM101 559.5q-13 8.5 1 10.5q23 -2 43 4t38.5 15t37 19.5 t37.5 14.5q2 0 4 1t6 1q10 10 26 0q16 -6 23 -14q0 -2 8 -11q25 -33 43.5 -74.5t56.5 -68.5q10 -10 -5 -8t-39.5 12t-51 24.5t-39.5 28.5l-20 25q-10 -4 -27 -8q-18 -4 -48 1t-55.5 12t-38.5 15.5z" />
<glyph unicode="&#xf5;" horiz-adv-x="432" d="M-72 151.5q4 30.5 9 47.5q20 72 53 123t70.5 83.5t75.5 48t67 15.5q43 2 57 -21.5t14 -41.5q4 -18 -5 -31t-25 -8q-2 0 -6 4q-6 4 -6.5 10t1.5 10q0 2 1.5 3t1.5 3v2v2q0 2 -3 5q-6 8 -20 6t-32.5 -17.5t-38 -40t-37 -54.5t-29.5 -58q-29 -70 -34 -119t5 -76q0 -2 2 -2 q0 -4 4 -8q2 -8 13 -14q8 -8 30 -9q18 2 42 11.5t48.5 34t51 68.5t51.5 112q-4 -4 -21 -2q-16 4 -22 27.5t6 56.5q2 6 8 12q8 12 23 14q10 2 20 -7t12 -38v-15t-2 -18q29 10 63 32t60 40q10 8 18.5 14t18.5 15l2 2q4 4 10.5 9t10.5 9q0 2 2 2h10q2 0 4 -2q2 -4 -2 -8l-4 -4 q-2 -2 -4 -3t-6 -5q-70 -59 -116 -84t-71 -33q-2 -8 -4 -16.5t-6 -18.5q-6 -20 -21.5 -55t-39 -69t-56 -62.5t-76.5 -36.5h-2h-4q-6 -2 -22 -2h-4q-35 0 -59.5 11t-30.5 15h-2q-23 16 -34 35t-18 37q-6 29 -2 59.5zM98 580q14 10 42 22.5t60.5 19.5t51.5 -3q23 -14 34 -23 l13 -6q18 -12 35.5 -24.5t37 -20.5t44 -11t57.5 5q16 4 -3.5 -7.5t-54 -23.5t-72.5 -19.5t-57 3.5q-18 8 -36 22l-11 6q-18 12 -31.5 26.5t-27.5 25t-31.5 13.5t-48.5 -9q-16 -6 -2 4z" />
<glyph unicode="&#xf6;" horiz-adv-x="432" d="M-72 151.5q4 30.5 9 47.5q20 72 53 123t70.5 83.5t75.5 48t67 15.5q43 2 57 -21.5t14 -41.5q4 -18 -5 -31t-25 -8q-2 0 -6 4q-6 4 -6.5 10t1.5 10q0 2 1.5 3t1.5 3v2v2q0 2 -3 5q-6 8 -20 6t-32.5 -17.5t-38 -40t-37 -54.5t-29.5 -58q-29 -70 -34 -119t5 -76q0 -2 2 -2 q0 -4 4 -8q2 -8 13 -14q8 -8 30 -9q18 2 42 11.5t48.5 34t51 68.5t51.5 112q-4 -4 -21 -2q-16 4 -22 27.5t6 56.5q2 6 8 12q8 12 23 14q10 2 20 -7t12 -38v-15t-2 -18q29 10 63 32t60 40q10 8 18.5 14t18.5 15l2 2q4 4 10.5 9t10.5 9q0 2 2 2h10q2 0 4 -2q2 -4 -2 -8l-4 -4 q-2 -2 -4 -3t-6 -5q-70 -59 -116 -84t-71 -33q-2 -8 -4 -16.5t-6 -18.5q-6 -20 -21.5 -55t-39 -69t-56 -62.5t-76.5 -36.5h-2h-4q-6 -2 -22 -2h-4q-35 0 -59.5 11t-30.5 15h-2q-23 16 -34 35t-18 37q-6 29 -2 59.5zM191 569q0 23 16.5 35t38.5 10q45 4 45 -49q2 -25 -13 -37 t-38 -12q-23 2 -35 13t-14 40zM308 530q0 23 16 35t39 10q45 4 45 -49q2 -25 -13 -37t-38 -12q-23 2 -35 13t-14 40z" />
<glyph unicode="&#xf7;" horiz-adv-x="479" d="M22 293q1 6 1 14l2 2q10 29 32.5 36t34.5 9q23 0 71 -5t99 -8t95 0t63 17q2 6 -4 9q-6 2 -6 12q0 4 6 4h4l2 -2q4 -4 15.5 -22.5t11.5 -41.5q2 -4 1 -10t-1 -14l-3 -2q-10 -29 -32.5 -36t-34.5 -9q-23 0 -70 4t-98 7t-96 1t-64 -16q-2 -6 4 -9q6 -4 6 -12q-4 -6 -6 -6 t-4 2l-2 2q-6 4 -16 22.5t-10 41.5q-2 4 -1 10zM152 166q0 29 18 44t47 13q57 4 57 -59q2 -29 -16 -44.5t-45 -15.5q-27 2 -43 16.5t-18 45.5zM219 430q0 29 18.5 44t47.5 13q57 4 57 -59q2 -29 -16 -44t-45 -15q-27 2 -43.5 16t-18.5 45z" />
<glyph unicode="&#xf8;" horiz-adv-x="432" d="M-72 151.5q4 30.5 9 47.5q18 68 49.5 118t66.5 81.5t72 48t65 20.5q12 39 9 51q-2 0 -4 -2t-9 0q-2 0 -2 4q0 2 2 2h2q4 4 16.5 6t22.5 -2q4 0 10.5 -2t10.5 -4q14 -12 14 -26.5v-22.5l-8 -18q20 -20 20 -47q4 -18 -5 -31t-25 -8q-2 0 -6 4q-6 4 -6.5 10t1.5 10 q0 2 1.5 3t1.5 3v2v2q-14 -37 -34 -85t-39.5 -101t-38 -105.5t-32.5 -95.5h4q18 2 42 11.5t48.5 34t51 68.5t51.5 112q-4 -4 -21 -2q-16 4 -22 27.5t6 56.5q2 6 8 12q8 12 23 14q10 2 20 -7t12 -38v-15t-2 -18q29 10 63 32t60 40l37 29l2 2l21 18q0 2 2 2h10q2 0 4 -2 q2 -4 -2 -8l-4 -4q-2 -2 -4 -3t-6 -5q-70 -59 -116 -84t-71 -33q-2 -8 -4 -16.5t-6 -18.5q-6 -20 -21.5 -55t-39 -69t-56 -62.5t-76.5 -36.5h-6q-4 0 -8 -1t-8 -1q-10 -33 -15.5 -55.5t-0.5 -28.5q2 0 4 2q4 4 8 0q2 -2 2 -4v-2h-2q-4 -4 -16.5 -6t-24.5 2q-6 0 -14 4l-2 4 q-14 12 -14.5 25.5t1.5 21.5l17 43q-16 4 -27.5 10t-15.5 10h-2q-23 16 -34 35t-18 37q-6 29 -2 59.5zM41 126q-6 -48 4 -77q12 35 28.5 76t32 85l31 88t27.5 83q-25 -27 -48.5 -64.5t-39.5 -74.5q-29 -68 -35 -116z" />
<glyph unicode="&#xf9;" horiz-adv-x="550" d="M-72 96.5q2 22.5 6 42.5q4 16 12.5 36t12.5 30t8 20.5t8 22.5q2 4 3.5 8t3.5 6q18 41 29.5 69.5t19.5 47.5q8 16 10 24h2q2 6 6 15q2 4 2 6v2q4 10 2 12q-4 2 -8 -2l-2 -2q-8 -12 -16 -4q-4 4 -2 10q2 2 4 6l2 3q6 4 17 9t25.5 8t30 1t29.5 -14l4 -4q12 -12 14.5 -30 t1.5 -35t-6.5 -32.5t-7.5 -23.5q-10 -25 -23.5 -54.5t-29.5 -62.5q0 -2 -1 -3t-1 -3q-33 -63 -47 -101q-6 -14 -10 -29.5t4 -27.5q8 -14 22.5 -8t22.5 12q4 4 10 7t12 10q25 23 56.5 60.5t66.5 80.5q6 18 13.5 36.5t15.5 37.5l41 86q8 14 15 28.5t13 24.5h3l6 12 q6 8 12 12.5t8 6.5q16 10 33 12q6 4 20 0q8 0 16.5 -3t14.5 -10.5t8 -18.5t-6 -30l-6 -12v-2q-4 -8 -20.5 -46t-30.5 -71q-6 -16 -12 -24q-18 -45 -35 -82q-8 -20 -17 -37q-16 -41 -24 -68q-2 0 -2 -2v-2q-8 -20 0 -34q2 -4 4 -5.5t4 -3.5q2 0 3 -1t3 -1q20 2 46 19.5 t47.5 38t35.5 38t16 19.5q12 16 19 23q2 4 4 6t4 6l6 6q0 2 2 4q18 27 34.5 51.5t29.5 46.5q0 2 2 4t10 2q2 -2 4 -2q2 -2 0 -6q-10 -12 -18 -28q-10 -14 -20.5 -32t-26.5 -40q-2 -4 -21 -29q-4 -4 -8 -9t-8 -9q-29 -39 -54.5 -62.5t-46 -37t-34 -18.5t-19.5 -5 q-20 -4 -36.5 0t-26.5 8q-4 2 -7.5 3t-7.5 5h-2q-16 12 -23 30.5t-8 37t1 36t6 27.5q0 4 2 9q-43 -53 -85 -95.5t-75 -54.5q-4 -2 -13.5 -5t-21.5 -1h-18q-27 4 -41.5 19.5t-18.5 36t-2 43zM139 598q4 25 24.5 30t55.5 -15q18 -12 35.5 -27.5t36 -32t40 -30t46.5 -19.5 q14 -6 -3.5 -10t-48 -3t-65.5 7t-53 16q-78 41 -68 84z" />
<glyph unicode="&#xfa;" horiz-adv-x="550" d="M-72 96.5q2 22.5 6 42.5q4 16 12.5 36t12.5 30t8 20.5t8 22.5q2 4 3.5 8t3.5 6q18 41 29.5 69.5t19.5 47.5q8 16 10 24h2q2 6 6 15q2 4 2 6v2q4 10 2 12q-4 2 -8 -2l-2 -2q-8 -12 -16 -4q-4 4 -2 10q2 2 4 6l2 3q6 4 17 9t25.5 8t30 1t29.5 -14l4 -4q12 -12 14.5 -30 t1.5 -35t-6.5 -32.5t-7.5 -23.5q-10 -25 -23.5 -54.5t-29.5 -62.5q0 -2 -1 -3t-1 -3q-33 -63 -47 -101q-6 -14 -10 -29.5t4 -27.5q8 -14 22.5 -8t22.5 12q4 4 10 7t12 10q25 23 56.5 60.5t66.5 80.5q6 18 13.5 36.5t15.5 37.5l41 86q8 14 15 28.5t13 24.5h3l6 12 q6 8 12 12.5t8 6.5q16 10 33 12q6 4 20 0q8 0 16.5 -3t14.5 -10.5t8 -18.5t-6 -30l-6 -12v-2q-4 -8 -20.5 -46t-30.5 -71q-6 -16 -12 -24q-18 -45 -35 -82q-8 -20 -17 -37q-16 -41 -24 -68q-2 0 -2 -2v-2q-8 -20 0 -34q2 -4 4 -5.5t4 -3.5q2 0 3 -1t3 -1q20 2 46 19.5 t47.5 38t35.5 38t16 19.5q12 16 19 23q2 4 4 6t4 6l6 6q0 2 2 4q18 27 34.5 51.5t29.5 46.5q0 2 2 4t10 2q2 -2 4 -2q2 -2 0 -6q-10 -12 -18 -28q-10 -14 -20.5 -32t-26.5 -40q-2 -4 -21 -29q-4 -4 -8 -9t-8 -9q-29 -39 -54.5 -62.5t-46 -37t-34 -18.5t-19.5 -5 q-20 -4 -36.5 0t-26.5 8q-4 2 -7.5 3t-7.5 5h-2q-16 12 -23 30.5t-8 37t1 36t6 27.5q0 4 2 9q-43 -53 -85 -95.5t-75 -54.5q-4 -2 -13.5 -5t-21.5 -1h-18q-27 4 -41.5 19.5t-18.5 36t-2 43zM143 506q25 6 45.5 19.5t38.5 30t36.5 31.5t37.5 28q35 20 55 15t25 -30 q10 -43 -68 -84q-18 -10 -53 -16t-66 -7t-49 3t-2 10z" />
<glyph unicode="&#xfb;" horiz-adv-x="550" d="M-72 96.5q2 22.5 6 42.5q4 16 12.5 36t12.5 30t8 20.5t8 22.5q2 4 3.5 8t3.5 6q18 41 29.5 69.5t19.5 47.5q8 16 10 24h2q2 6 6 15q2 4 2 6v2q4 10 2 12q-4 2 -8 -2l-2 -2q-8 -12 -16 -4q-4 4 -2 10q2 2 4 6l2 3q6 4 17 9t25.5 8t30 1t29.5 -14l4 -4q12 -12 14.5 -30 t1.5 -35t-6.5 -32.5t-7.5 -23.5q-10 -25 -23.5 -54.5t-29.5 -62.5q0 -2 -1 -3t-1 -3q-33 -63 -47 -101q-6 -14 -10 -29.5t4 -27.5q8 -14 22.5 -8t22.5 12q4 4 10 7t12 10q25 23 56.5 60.5t66.5 80.5q6 18 13.5 36.5t15.5 37.5l41 86q8 14 15 28.5t13 24.5h3l6 12 q6 8 12 12.5t8 6.5q16 10 33 12q6 4 20 0q8 0 16.5 -3t14.5 -10.5t8 -18.5t-6 -30l-6 -12v-2q-4 -8 -20.5 -46t-30.5 -71q-6 -16 -12 -24q-18 -45 -35 -82q-8 -20 -17 -37q-16 -41 -24 -68q-2 0 -2 -2v-2q-8 -20 0 -34q2 -4 4 -5.5t4 -3.5q2 0 3 -1t3 -1q20 2 46 19.5 t47.5 38t35.5 38t16 19.5q12 16 19 23q2 4 4 6t4 6l6 6q0 2 2 4q18 27 34.5 51.5t29.5 46.5q0 2 2 4t10 2q2 -2 4 -2q2 -2 0 -6q-10 -12 -18 -28q-10 -14 -20.5 -32t-26.5 -40q-2 -4 -21 -29q-4 -4 -8 -9t-8 -9q-29 -39 -54.5 -62.5t-46 -37t-34 -18.5t-19.5 -5 q-20 -4 -36.5 0t-26.5 8q-4 2 -7.5 3t-7.5 5h-2q-16 12 -23 30.5t-8 37t1 36t6 27.5q0 4 2 9q-43 -53 -85 -95.5t-75 -54.5q-4 -2 -13.5 -5t-21.5 -1h-18q-27 4 -41.5 19.5t-18.5 36t-2 43zM120 575.5q-13 8.5 1 10.5q23 -2 43 4t38.5 15t37 19.5t37.5 14.5q2 0 4 1t6 1 q10 10 26 0q16 -6 23 -14q0 -2 8 -11q25 -33 43.5 -74.5t56.5 -68.5q10 -10 -5 -8t-39.5 12t-51 24.5t-39.5 28.5l-20 25q-10 -4 -27 -8q-18 -4 -48 1t-55.5 12t-38.5 15.5z" />
<glyph unicode="&#xfc;" horiz-adv-x="550" d="M-72 96.5q2 22.5 6 42.5q4 16 12.5 36t12.5 30t8 20.5t8 22.5q2 4 3.5 8t3.5 6q18 41 29.5 69.5t19.5 47.5q8 16 10 24h2q2 6 6 15q2 4 2 6v2q4 10 2 12q-4 2 -8 -2l-2 -2q-8 -12 -16 -4q-4 4 -2 10q2 2 4 6l2 3q6 4 17 9t25.5 8t30 1t29.5 -14l4 -4q12 -12 14.5 -30 t1.5 -35t-6.5 -32.5t-7.5 -23.5q-10 -25 -23.5 -54.5t-29.5 -62.5q0 -2 -1 -3t-1 -3q-33 -63 -47 -101q-6 -14 -10 -29.5t4 -27.5q8 -14 22.5 -8t22.5 12q4 4 10 7t12 10q25 23 56.5 60.5t66.5 80.5q6 18 13.5 36.5t15.5 37.5l41 86q8 14 15 28.5t13 24.5h3l6 12 q6 8 12 12.5t8 6.5q16 10 33 12q6 4 20 0q8 0 16.5 -3t14.5 -10.5t8 -18.5t-6 -30l-6 -12v-2q-4 -8 -20.5 -46t-30.5 -71q-6 -16 -12 -24q-18 -45 -35 -82q-8 -20 -17 -37q-16 -41 -24 -68q-2 0 -2 -2v-2q-8 -20 0 -34q2 -4 4 -5.5t4 -3.5q2 0 3 -1t3 -1q20 2 46 19.5 t47.5 38t35.5 38t16 19.5q12 16 19 23q2 4 4 6t4 6l6 6q0 2 2 4q18 27 34.5 51.5t29.5 46.5q0 2 2 4t10 2q2 -2 4 -2q2 -2 0 -6q-10 -12 -18 -28q-10 -14 -20.5 -32t-26.5 -40q-2 -4 -21 -29q-4 -4 -8 -9t-8 -9q-29 -39 -54.5 -62.5t-46 -37t-34 -18.5t-19.5 -5 q-20 -4 -36.5 0t-26.5 8q-4 2 -7.5 3t-7.5 5h-2q-16 12 -23 30.5t-8 37t1 36t6 27.5q0 4 2 9q-43 -53 -85 -95.5t-75 -54.5q-4 -2 -13.5 -5t-21.5 -1h-18q-27 4 -41.5 19.5t-18.5 36t-2 43zM168 582q0 23 16.5 35t38.5 10q45 4 45 -49q2 -25 -13 -37t-38 -12q-23 2 -35 13 t-14 40zM285 543q0 23 16 35t39 10q45 4 45 -49q2 -25 -13 -37t-38 -12q-23 2 -35 13t-14 40z" />
<glyph unicode="&#xfd;" horiz-adv-x="544" d="M-466 -313.5q13 69.5 72.5 130t170.5 79.5q29 6 69 8q35 2 85.5 1t115.5 -9q16 -2 28.5 -2t28.5 -3q8 18 21.5 52t27 71t25.5 73t21 58q2 2 2 5q0 4 2 6q-43 -51 -85 -93.5t-75 -54.5q-4 -2 -13.5 -5t-21.5 -1h-18q-27 4 -41.5 19.5t-18.5 35t-2 43t6 41.5q4 16 12.5 37 t12.5 29q4 10 8 20.5t8 24.5l3.5 7l3.5 7q18 41 29.5 70t19.5 47q8 16 10 23q0 2 2 2q2 6 6 14q2 2 2 4v4q4 10 2 12q-4 2 -8 -2l-2 -2q-8 -12 -16 -4q-6 2 -2 10q2 4 4 7l4 2q10 8 40.5 17t59.5 -15q2 0 4 -2q12 -14 14.5 -32t1.5 -34t-6.5 -31.5t-7.5 -23.5 q-10 -25 -23.5 -54.5t-29.5 -62.5q0 -2 -1 -3t-1 -3q-33 -63 -47 -100q-6 -14 -10 -31t4 -27q8 -14 22.5 -8t22.5 10q12 8 22 19q25 20 56.5 59t66.5 82q6 16 13.5 35.5t15.5 36.5q4 12 12 26q6 12 13.5 27.5t15.5 32.5q8 16 15 30.5t13 24.5h3l6 12q8 8 13 12.5t7 6.5 q16 10 33 12q4 0 9 1t11 -1q8 0 16.5 -3t14.5 -10t8 -18.5t-6 -29.5l-6 -13v-2q-4 -8 -20.5 -46t-30.5 -71q-4 -8 -6 -14l-4 -12q-18 -41 -34 -77t-18 -40q-4 -14 -13 -35.5t-19 -50.5q0 -16 4 -20q2 -4 4 -5.5t4 -3.5q2 0 3 -1t3 -1q20 2 46 19.5t47.5 38t35.5 38t16 19.5 q6 8 19 21q2 6 8 12q2 4 6 8q0 2 2 2q18 27 34.5 52.5t29.5 47.5q0 2 2 5q2 2 10 2q2 -2 4 -2q2 -2 0 -7q-10 -12 -18 -28q-10 -14 -20.5 -31.5t-26.5 -40.5q-2 -4 -21 -29q-4 -4 -8 -9t-8 -9q-29 -39 -54.5 -62.5t-46 -37t-34 -18.5t-19.5 -5q-23 -4 -39 0 q-12 -29 -24.5 -60.5t-28.5 -66.5q47 -6 91 -9t77 2t52.5 19.5t19.5 42.5q-4 12 -7 23q-2 8 1.5 15t15.5 5q6 -2 12 -10q4 -8 8 -21t0 -36q-2 -20 -17 -44t-51 -41.5t-94.5 -26.5t-146.5 1q-16 -29 -33.5 -58.5t-40.5 -58.5q-86 -117 -168 -163.5t-146.5 -57t-105 2 t-42.5 12.5q-61 20 -89 82.5t-15 132zM-453 -375v-16q0 -18 9 -41q8 -20 31.5 -43t66.5 -29q25 -4 55.5 -5t67.5 11.5t81 41t97 83.5q31 31 58.5 80t49.5 98q-102 12 -193 12.5t-159.5 -19t-111.5 -60.5t-52 -113zM170 510q25 6 45.5 19.5t38.5 30t36.5 31.5t37.5 28 q35 20 55 15t25 -30q10 -43 -68 -84q-18 -10 -53 -16t-66 -7t-49 3t-2 10z" />
<glyph unicode="&#xff;" horiz-adv-x="544" d="M-466 -313.5q13 69.5 72.5 130t170.5 79.5q29 6 69 8q35 2 85.5 1t115.5 -9q16 -2 28.5 -2t28.5 -3q8 18 21.5 52t27 71t25.5 73t21 58q2 2 2 5q0 4 2 6q-43 -51 -85 -93.5t-75 -54.5q-4 -2 -13.5 -5t-21.5 -1h-18q-27 4 -41.5 19.5t-18.5 35t-2 43t6 41.5q4 16 12.5 37 t12.5 29q4 10 8 20.5t8 24.5l3.5 7l3.5 7q18 41 29.5 70t19.5 47q8 16 10 23q0 2 2 2q2 6 6 14q2 2 2 4v4q4 10 2 12q-4 2 -8 -2l-2 -2q-8 -12 -16 -4q-6 2 -2 10q2 4 4 7l4 2q10 8 40.5 17t59.5 -15q2 0 4 -2q12 -14 14.5 -32t1.5 -34t-6.5 -31.5t-7.5 -23.5 q-10 -25 -23.5 -54.5t-29.5 -62.5q0 -2 -1 -3t-1 -3q-33 -63 -47 -100q-6 -14 -10 -31t4 -27q8 -14 22.5 -8t22.5 10q12 8 22 19q25 20 56.5 59t66.5 82q6 16 13.5 35.5t15.5 36.5q4 12 12 26q6 12 13.5 27.5t15.5 32.5q8 16 15 30.5t13 24.5h3l6 12q8 8 13 12.5t7 6.5 q16 10 33 12q4 0 9 1t11 -1q8 0 16.5 -3t14.5 -10t8 -18.5t-6 -29.5l-6 -13v-2q-4 -8 -20.5 -46t-30.5 -71q-4 -8 -6 -14l-4 -12q-18 -41 -34 -77t-18 -40q-4 -14 -13 -35.5t-19 -50.5q0 -16 4 -20q2 -4 4 -5.5t4 -3.5q2 0 3 -1t3 -1q20 2 46 19.5t47.5 38t35.5 38t16 19.5 q6 8 19 21q2 6 8 12q2 4 6 8q0 2 2 2q18 27 34.5 52.5t29.5 47.5q0 2 2 5q2 2 10 2q2 -2 4 -2q2 -2 0 -7q-10 -12 -18 -28q-10 -14 -20.5 -31.5t-26.5 -40.5q-2 -4 -21 -29q-4 -4 -8 -9t-8 -9q-29 -39 -54.5 -62.5t-46 -37t-34 -18.5t-19.5 -5q-23 -4 -39 0 q-12 -29 -24.5 -60.5t-28.5 -66.5q47 -6 91 -9t77 2t52.5 19.5t19.5 42.5q-4 12 -7 23q-2 8 1.5 15t15.5 5q6 -2 12 -10q4 -8 8 -21t0 -36q-2 -20 -17 -44t-51 -41.5t-94.5 -26.5t-146.5 1q-16 -29 -33.5 -58.5t-40.5 -58.5q-86 -117 -168 -163.5t-146.5 -57t-105 2 t-42.5 12.5q-61 20 -89 82.5t-15 132zM-453 -375v-16q0 -18 9 -41q8 -20 31.5 -43t66.5 -29q25 -4 55.5 -5t67.5 11.5t81 41t97 83.5q31 31 58.5 80t49.5 98q-102 12 -193 12.5t-159.5 -19t-111.5 -60.5t-52 -113zM170 584q0 23 16.5 35t38.5 10q45 4 45 -49q2 -25 -13 -37 t-38 -12q-23 2 -35 13t-14 40zM287 545q0 23 16 35t39 10q45 4 45 -49q2 -25 -13 -37t-38 -12q-23 2 -35 13t-14 40z" />
</font>
</defs>
</svg>
